<svg width="50" height="50" viewBox="0 0 50 50" fill="none" xmlns="http://www.w3.org/2000/svg">
<circle cx="25" cy="25" r="25" fill="#1FDED3"/>
<path d="M31 31C29.89 31 29 31.89 29 33C29 33.5304 29.2107 34.0391 29.5858 34.4142C29.9609 34.7893 30.4696 35 31 35C31.5304 35 32.0391 34.7893 32.4142 34.4142C32.7893 34.0391 33 33.5304 33 33C33 32.4696 32.7893 31.9609 32.4142 31.5858C32.0391 31.2107 31.5304 31 31 31ZM15 15V17H17L20.6 24.59L19.24 27.04C19.09 27.32 19 27.65 19 28C19 28.5304 19.2107 29.0391 19.5858 29.4142C19.9609 29.7893 20.4696 30 21 30H33V28H21.42C21.3537 28 21.2901 27.9737 21.2432 27.9268C21.1963 27.8799 21.17 27.8163 21.17 27.75C21.17 27.7 21.18 27.66 21.2 27.63L22.1 26H29.55C30.3 26 30.96 25.58 31.3 24.97L34.88 18.5C34.95 18.34 35 18.17 35 18C35 17.7348 34.8946 17.4804 34.7071 17.2929C34.5196 17.1054 34.2652 17 34 17H19.21L18.27 15M21 31C19.89 31 19 31.89 19 33C19 33.5304 19.2107 34.0391 19.5858 34.4142C19.9609 34.7893 20.4696 35 21 35C21.5304 35 22.0391 34.7893 22.4142 34.4142C22.7893 34.0391 23 33.5304 23 33C23 32.4696 22.7893 31.9609 22.4142 31.5858C22.0391 31.2107 21.5304 31 21 31Z" fill="white"/>
<path d="M29.7928 20.8748C29.5928 20.8415 29.3844 20.8332 29.1678 20.8332H20.8344C20.6011 20.8332 20.3761 20.8498 20.1594 20.8832C20.2761 20.6498 20.4428 20.4332 20.6428 20.2332L23.3511 17.5165C24.4928 16.3832 26.3428 16.3832 27.4844 17.5165L28.9428 18.9915C29.4761 19.5165 29.7594 20.1832 29.7928 20.8748Z" stroke="white" stroke-width="1.5" stroke-linecap="round" stroke-linejoin="round"/>
</svg>
