<svg width="16" height="26" viewBox="0 0 16 26" fill="none" xmlns="http://www.w3.org/2000/svg">
<path d="M11.862 1.21714L1.60611 11.5939C1.3794 11.8188 1.19945 12.0863 1.07665 12.3811C0.95385 12.6758 0.890625 12.992 0.890625 13.3113C0.890625 13.6306 0.95385 13.9468 1.07665 14.2415C1.19945 14.5363 1.3794 14.8038 1.60611 15.0287L11.862 25.2845C12.0868 25.5112 12.3543 25.6912 12.6491 25.814C12.9439 25.9368 13.26 26 13.5793 26C13.8986 26 14.2148 25.9368 14.5096 25.814C14.8043 25.6912 15.0718 25.5112 15.2967 25.2845C15.7472 24.8313 16.0001 24.2183 16.0001 23.5792C16.0001 22.9402 15.7472 22.3272 15.2967 21.874L6.73404 13.3113L15.2967 4.74864C15.7436 4.2981 15.9955 3.69001 15.9982 3.05545C16 2.73712 15.939 2.42155 15.8186 2.12685C15.6982 1.83214 15.5209 1.5641 15.2967 1.33808C15.0799 1.10327 14.8188 0.91375 14.5283 0.780455C14.2379 0.647161 13.9239 0.572742 13.6045 0.561497C13.2852 0.550251 12.9667 0.602404 12.6676 0.714939C12.3685 0.827475 12.0947 0.998163 11.862 1.21714Z" fill="#FF9941"/>
</svg>
