<svg width="18" height="18" viewBox="0 0 18 18" fill="none" xmlns="http://www.w3.org/2000/svg">
<path d="M17.773 3.70325C17.7056 3.65642 17.6247 3.62632 17.5389 3.61619C17.4532 3.60606 17.3659 3.61627 17.2864 3.64573L9.54117 6.54444C9.20443 6.67126 8.78269 6.73155 8.34973 6.73155C7.74599 6.73362 7.1214 6.61235 6.68604 6.44743C6.55337 6.39913 6.42704 6.33873 6.3092 6.26725C6.34127 6.25339 6.38136 6.23815 6.42546 6.2229L13.4699 3.58683L14.5202 3.97489V2.84049C14.5218 2.7596 14.5022 2.67944 14.4629 2.606C14.4236 2.53256 14.3657 2.46775 14.2933 2.41639C14.2261 2.36961 14.1455 2.33954 14.06 2.32941C13.9746 2.31927 13.8875 2.32946 13.8082 2.35888L6.06306 5.25759C5.82412 5.34075 5.61887 5.44331 5.44569 5.5923C5.24514 5.7633 5.13125 5.99606 5.12898 6.23953C5.12898 6.24646 5.13139 6.25824 5.13139 6.25824V16.4658L5.12978 16.4796C5.12978 16.4824 5.13219 16.4838 5.13219 16.4865V16.4976H5.13379C5.14983 16.8545 5.35829 17.0818 5.55713 17.2426C6.18252 17.7193 7.23285 17.9861 8.35053 18C8.87971 18 9.4169 17.9307 9.914 17.7464L17.6616 14.847C17.866 14.7707 17.9999 14.5816 17.9999 14.3674V4.12735C18.0012 4.0465 17.9814 3.96644 17.9422 3.89304C17.9029 3.81965 17.8451 3.7548 17.773 3.70325ZM12.8605 1.76292C12.8469 1.61047 12.7739 1.46494 12.6441 1.37763C12.5766 1.33079 12.4957 1.3007 12.4099 1.29057C12.3242 1.28044 12.2369 1.29065 12.1574 1.32011L4.41219 4.21743C4.07544 4.34356 3.65291 4.40454 3.22075 4.40454C2.61701 4.40592 1.99242 4.28465 1.55706 4.11903C1.42425 4.07154 1.29788 4.01159 1.18022 3.94024C1.21229 3.92639 1.25238 3.91114 1.29648 3.89589L8.34171 1.25982L9.39204 1.64789V0.514873C9.39347 0.433928 9.37373 0.353749 9.33431 0.280315C9.29488 0.206882 9.23678 0.142091 9.16434 0.0907731C9.097 0.0440009 9.01621 0.0139393 8.93062 0.00380754C8.84503 -0.00632423 8.75787 0.00385544 8.67846 0.0332563L0.933271 2.93266C0.694341 3.01582 0.489887 3.11768 0.315901 3.26737C0.11565 3.43848 0.0020512 3.67123 0 3.91461C0 3.92292 0.00240516 3.93401 0.00240516 3.93401V14.1741H0.00400899C0.0200446 14.531 0.228507 14.7583 0.427348 14.919C1.05274 15.3958 2.10307 15.6619 3.22155 15.6758C3.52529 15.6742 3.82806 15.6459 4.12515 15.5912V6.25755C4.11714 5.77247 4.34164 5.30679 4.73611 4.97139C5.00941 4.74226 5.33412 4.56397 5.69023 4.4475L12.8605 1.76292Z" fill="white"/>
</svg>
