<svg width="24" height="24" viewBox="0 0 24 24" fill="none" xmlns="http://www.w3.org/2000/svg">
<path d="M12.0001 12.6407C11.643 12.642 11.2962 12.7607 11.013 12.9784C10.7299 13.1961 10.526 13.5007 10.4329 13.8455C10.3397 14.1903 10.3624 14.5561 10.4974 14.8868C10.6324 15.2174 10.8723 15.4946 11.1801 15.6757V18.0007H12.8401V15.6757C13.0837 15.5316 13.2858 15.3269 13.4269 15.0816C13.568 14.8363 13.6431 14.5586 13.6451 14.2757C13.6451 14.0601 13.6025 13.8467 13.5197 13.6476C13.4369 13.4486 13.3156 13.2679 13.1627 13.116C13.0098 12.964 12.8284 12.8438 12.6289 12.7622C12.4294 12.6807 12.2157 12.6393 12.0001 12.6407Z" stroke="black" stroke-width="0.5" stroke-linecap="round" stroke-linejoin="round"/>
<path d="M18.1449 8.88477H5.84994C4.65701 8.88477 3.68994 9.85183 3.68994 11.0448V19.5898C3.68994 20.7827 4.65701 21.7498 5.84994 21.7498H18.1449C19.3379 21.7498 20.3049 20.7827 20.3049 19.5898V11.0448C20.3049 9.85183 19.3379 8.88477 18.1449 8.88477Z" stroke="black" stroke-width="0.5" stroke-linecap="round" stroke-linejoin="round"/>
<path d="M6.6748 8.885V7.58C6.6748 6.1664 7.23636 4.81069 8.23593 3.81112C9.23549 2.81155 10.5912 2.25 12.0048 2.25C13.4184 2.25 14.7741 2.81155 15.7737 3.81112C16.7733 4.81069 17.3348 6.1664 17.3348 7.58V8.885" stroke="black" stroke-width="0.5" stroke-linecap="round" stroke-linejoin="round"/>
</svg>
