<svg width="18" height="18" viewBox="0 0 18 18" fill="none" xmlns="http://www.w3.org/2000/svg">
<path d="M9.0026 0C10.3621 0.000785485 11.7038 0.309379 12.927 0.902624C14.1501 1.49587 15.223 2.35836 16.0651 3.42536C16.9072 4.49237 17.4966 5.73619 17.7891 7.06347C18.0817 8.39075 18.0697 9.76703 17.7541 11.089C17.4385 12.411 16.8276 13.6444 15.967 14.6966C15.1065 15.7488 14.0188 16.5925 12.7855 17.1644C11.5522 17.7363 10.2053 18.0215 8.84599 17.9986C7.48667 17.9758 6.15017 17.6454 4.9368 17.0324L4.80064 16.9593L0.698827 17.983C0.619887 18.0029 0.537579 18.0053 0.457585 17.9903C0.37759 17.9753 0.301814 17.943 0.235484 17.8959C0.169154 17.8487 0.11385 17.7877 0.073389 17.7171C0.032928 17.6465 0.00827276 17.568 0.00112524 17.4869V17.3946L0.01688 17.3013L1.04093 13.2018L0.97003 13.0668C0.455064 12.0534 0.138066 10.9511 0.0360105 9.81894L0.00787724 9.38919L0 8.99995C0 6.61301 0.948486 4.32384 2.6368 2.63602C4.32512 0.948206 6.61496 0 9.0026 0ZM9.0026 1.12499C7.62797 1.12477 6.27722 1.48416 5.08456 2.16746C3.8919 2.85075 2.89887 3.83416 2.20413 5.01996C1.5094 6.20575 1.13715 7.55265 1.12439 8.92682C1.11162 10.301 1.45878 11.6546 2.13137 12.853C2.18358 12.9462 2.20817 13.0524 2.20226 13.159L2.18651 13.2648L1.33576 16.6634L4.73874 15.8152C4.80792 15.7981 4.87971 15.7943 4.95031 15.8039L5.05271 15.8275L5.15061 15.8714C6.20093 16.4592 7.37203 16.7986 8.57398 16.8635C9.77593 16.9283 10.9768 16.7169 12.0843 16.2456C13.1918 15.7742 14.1765 15.0553 14.9628 14.1442C15.7491 13.2331 16.3161 12.154 16.6202 10.9897C16.9244 9.82537 16.9576 8.60687 16.7172 7.42775C16.4769 6.24863 15.9695 5.14025 15.234 4.18772C14.4984 3.23519 13.5543 2.46384 12.4741 1.93292C11.3939 1.40199 10.2063 1.12561 9.0026 1.12499ZM9.56526 10.1249C9.70587 10.1247 9.84148 10.1771 9.94538 10.2718C10.0493 10.3665 10.114 10.4966 10.1267 10.6366C10.1394 10.7766 10.0992 10.9163 10.014 11.0281C9.92886 11.14 9.8049 11.2159 9.66654 11.2409L9.56526 11.2499H6.18929C6.04868 11.2502 5.91308 11.1978 5.80917 11.1031C5.70527 11.0084 5.6406 10.8783 5.62789 10.7383C5.61519 10.5983 5.65537 10.4586 5.74053 10.3468C5.82569 10.2349 5.94965 10.159 6.08801 10.1339L6.18929 10.1249H9.56526ZM11.8159 6.74996C11.9565 6.7497 12.0921 6.80208 12.196 6.89678C12.2999 6.99148 12.3646 7.12164 12.3773 7.26163C12.39 7.40162 12.3498 7.54129 12.2647 7.65314C12.1795 7.76499 12.0555 7.84091 11.9172 7.86595L11.8159 7.87495H6.18929C6.04868 7.87521 5.91308 7.82283 5.80917 7.72813C5.70527 7.63343 5.6406 7.50327 5.62789 7.36328C5.61519 7.22329 5.65537 7.08362 5.74053 6.97177C5.82569 6.85992 5.94965 6.784 6.08801 6.75896L6.18929 6.74996H11.8159Z" fill="white"/>
</svg>
