<svg width="24" height="24" viewBox="0 0 24 24" fill="none" xmlns="http://www.w3.org/2000/svg">
<path opacity="0.925" fill-rule="evenodd" clip-rule="evenodd" d="M9.86722 5.4626C11.0758 5.41483 12.2633 5.54768 13.4297 5.86104C13.889 5.99688 14.3265 6.18438 14.7422 6.42354C15.293 6.76535 15.8477 7.1013 16.4063 7.43135C16.6002 7.79501 16.4987 8.02938 16.1016 8.13447C15.0899 7.9181 14.0743 7.72277 13.0547 7.54854C12.7198 7.51099 12.3838 7.48755 12.0469 7.47822C11.8588 7.47194 11.6791 7.49538 11.5078 7.54854C11.657 7.70552 11.8132 7.85397 11.9766 7.99385C12.1514 7.8768 12.3467 7.82993 12.5625 7.85322C13.3845 7.88763 14.1267 8.14544 14.7891 8.62666C17.5925 11.3832 20.3816 14.1566 23.1563 16.947C23.2258 17.0971 23.2415 17.2533 23.2032 17.4157C23.0478 17.6102 22.8838 17.7977 22.711 17.9782C22.8838 18.1588 23.0478 18.3463 23.2032 18.5407C23.2344 19.1657 23.2344 19.7907 23.2032 20.4157C23.1315 20.5571 23.0143 20.6196 22.8516 20.6032C22.7516 20.6025 22.6578 20.5791 22.5703 20.5329C22.1713 20.126 21.765 19.7276 21.3516 19.3376C21.171 19.5104 20.9835 19.6744 20.7891 19.8298C20.6267 19.8681 20.4704 19.8524 20.3203 19.7829C17.625 17.0876 14.9297 14.3923 12.2344 11.697C11.5047 10.8672 11.1765 9.89843 11.25 8.79072C11.2798 8.72201 11.3189 8.65947 11.3672 8.60322C11.0547 8.25949 10.7266 7.93137 10.3828 7.61885C8.80559 7.95443 7.25872 8.39974 5.74222 8.95479C4.6275 9.40272 3.5025 9.8246 2.36722 10.2204C1.23833 10.3728 0.71489 9.88062 0.796907 8.74385C0.89151 8.43701 1.0712 8.1948 1.33597 8.01729C3.20079 7.31754 5.0758 6.64568 6.96097 6.00166C7.92041 5.73312 8.88913 5.55344 9.86722 5.4626ZM9.96097 6.25947C11.2311 6.20533 12.4655 6.38501 13.6641 6.79854C13.1279 6.75012 12.5889 6.71102 12.0469 6.68135C11.6002 6.71051 11.1549 6.73394 10.711 6.75166C10.6086 6.64151 10.4993 6.53993 10.3828 6.44697C10.2195 6.58685 10.0633 6.7353 9.91409 6.89229C8.96108 7.08494 8.02358 7.33497 7.10159 7.64229C5.38306 8.2399 3.67214 8.8571 1.96878 9.49385C1.64133 9.4173 1.51633 9.21415 1.59378 8.88447C1.66611 8.79644 1.75204 8.72613 1.85159 8.67354C3.26803 8.18402 4.67428 7.6684 6.07034 7.12666C7.33883 6.67779 8.63572 6.38876 9.96097 6.25947ZM12.4922 8.6501C13.1977 8.67494 13.8227 8.90932 14.3672 9.35322C13.836 9.91572 13.2891 10.4626 12.7266 10.9938C12.2751 10.4502 12.0485 9.82526 12.0469 9.11885C12.2049 8.96871 12.3534 8.81247 12.4922 8.6501ZM14.9297 9.9626C17.3789 12.3415 19.8086 14.7477 22.2188 17.1813C22.25 17.2126 22.25 17.2438 22.2188 17.2751C21.6953 17.7986 21.1719 18.322 20.6485 18.8454C20.6172 18.8767 20.586 18.8767 20.5547 18.8454C18.1563 16.447 15.7579 14.0486 13.3594 11.6501C13.3281 11.6188 13.3281 11.5876 13.3594 11.5563C13.8923 11.0313 14.4157 10.5 14.9297 9.9626ZM22.0547 18.5876C22.3574 18.7092 22.4902 18.928 22.4532 19.2438C22.2969 19.0876 22.1406 18.9313 21.9844 18.7751C21.9703 18.7017 21.9938 18.6392 22.0547 18.5876Z" fill="#8B3E00"/>
<path opacity="0.927" fill-rule="evenodd" clip-rule="evenodd" d="M7.19522 10.2874C8.44439 10.2166 9.6788 10.3182 10.8983 10.5921C10.9245 10.6261 10.9402 10.6651 10.9452 10.7093C10.8863 10.9261 10.8394 11.1449 10.8046 11.3656C9.87511 11.182 8.93761 11.0726 7.99209 11.0374C5.63663 11.0457 3.97256 12.1082 2.99991 14.2249C2.78355 14.1606 2.57261 14.0825 2.36709 13.9906C2.31488 13.9332 2.30707 13.8707 2.34366 13.8031C3.01753 12.1449 4.21284 11.0589 5.92959 10.5452C6.35386 10.4383 6.77573 10.3523 7.19522 10.2874Z" fill="#8B3E00"/>
<path opacity="0.927" fill-rule="evenodd" clip-rule="evenodd" d="M14.3203 14.5547C14.3914 14.5552 14.4461 14.5864 14.4844 14.6484C14.5755 14.8177 14.6849 14.9739 14.8125 15.1172C14.8438 15.1485 14.8438 15.1797 14.8125 15.2109C14.4231 15.5191 13.9934 15.7613 13.5234 15.9375C13.7584 16.7115 14.2583 17.235 15.0234 17.5078C14.9453 17.7266 14.8672 17.9453 14.7891 18.1641C14.7578 18.1797 14.7266 18.1953 14.6953 18.2109C13.7237 17.8487 13.0674 17.1768 12.7266 16.1953C12.5753 16.2614 12.4191 16.3082 12.2578 16.3359C12.3718 17.3085 12.8561 18.0272 13.7109 18.4922C13.6094 18.7266 13.5078 18.9609 13.4062 19.1953C12.3012 18.6908 11.6684 17.8313 11.5078 16.6172C11.3681 16.6228 11.2353 16.6541 11.1094 16.7109C11.0751 17.6788 11.411 18.4913 12.1172 19.1484C11.9473 19.3498 11.7676 19.5373 11.5781 19.7109C11.0567 19.2943 10.6973 18.7631 10.5 18.1172C10.3902 17.7157 10.3042 17.3094 10.2422 16.8984C10.1685 16.9364 10.0904 16.952 10.0078 16.9453C10.0223 17.5116 10.077 18.0741 10.1719 18.6328C10.2265 18.9844 10.3281 19.3204 10.4766 19.6406C10.262 19.8066 10.0355 19.955 9.79688 20.0859C9.5767 19.6585 9.43608 19.2054 9.375 18.7266C9.28317 18.1832 9.22847 17.6363 9.21094 17.0859C9.0652 17.0932 8.92458 17.1245 8.78906 17.1797C9.06947 18.2159 8.86636 19.1377 8.17969 19.9453C7.98202 19.771 7.79452 19.5913 7.61719 19.4062C7.84688 19.1264 7.99533 18.8061 8.0625 18.4453C8.10136 18.0194 8.07792 17.5975 7.99219 17.1797C7.80469 17.1797 7.61719 17.1797 7.42969 17.1797C7.45702 17.907 7.30856 18.5945 6.98438 19.2422C6.88411 19.4034 6.76692 19.5518 6.63281 19.6875C6.60155 19.7188 6.57033 19.7188 6.53906 19.6875C6.36717 19.5156 6.19533 19.3438 6.02344 19.1719C6.49777 18.5895 6.68527 17.9255 6.58594 17.1797C6.37027 17.1176 6.1515 17.0707 5.92969 17.0391C5.78869 17.7351 5.49178 18.3523 5.03906 18.8906C4.99219 18.9219 4.94531 18.9219 4.89844 18.8906C4.73362 18.7336 4.57738 18.5696 4.42969 18.3984C4.77384 17.9912 4.99261 17.5224 5.08594 16.9922C5.07103 16.9384 5.03981 16.8993 4.99219 16.875C4.88339 16.8358 4.77398 16.8202 4.66406 16.8281C4.54355 17.4402 4.21542 17.9012 3.67969 18.2109C3.54874 17.9881 3.42374 17.7616 3.30469 17.5312C3.65106 17.2838 3.83074 16.9478 3.84375 16.5234C3.21381 16.2448 2.70599 15.8229 2.32031 15.2578C2.53906 15.1172 2.75781 14.9766 2.97656 14.8359C3.43754 15.4184 4.03129 15.8012 4.75781 15.9844C6.80822 16.527 8.85506 16.5114 10.8984 15.9375C11.7202 15.7 12.5327 15.4344 13.3359 15.1406C13.698 14.9913 14.0262 14.796 14.3203 14.5547Z" fill="#8B3E00"/>
</svg>
