<svg width="42" height="42" viewBox="0 0 42 42" fill="none" xmlns="http://www.w3.org/2000/svg">
<circle cx="21" cy="21" r="20.5" stroke="#8B3E00"/>
<path d="M29.8801 17.7198H12.6001C12.3455 17.7198 12.1013 17.6187 11.9213 17.4386C11.7413 17.2586 11.6401 17.0144 11.6401 16.7598C11.6401 16.5052 11.7413 16.261 11.9213 16.081C12.1013 15.9009 12.3455 15.7998 12.6001 15.7998H29.8801C30.1347 15.7998 30.3789 15.9009 30.5589 16.081C30.739 16.261 30.8401 16.5052 30.8401 16.7598C30.8401 17.0144 30.739 17.2586 30.5589 17.4386C30.3789 17.6187 30.1347 17.7198 29.8801 17.7198ZM26.6801 22.1998H15.8001C15.5455 22.1998 15.3013 22.0987 15.1213 21.9186C14.9413 21.7386 14.8401 21.4944 14.8401 21.2398C14.8401 20.9852 14.9413 20.741 15.1213 20.561C15.3013 20.3809 15.5455 20.2798 15.8001 20.2798H26.6801C26.9347 20.2798 27.1789 20.3809 27.3589 20.561C27.539 20.741 27.6401 20.9852 27.6401 21.2398C27.6401 21.4944 27.539 21.7386 27.3589 21.9186C27.1789 22.0987 26.9347 22.1998 26.6801 22.1998ZM22.8401 26.6798H19.6401C19.3855 26.6798 19.1413 26.5787 18.9613 26.3986C18.7813 26.2186 18.6801 25.9744 18.6801 25.7198C18.6801 25.4652 18.7813 25.221 18.9613 25.041C19.1413 24.8609 19.3855 24.7598 19.6401 24.7598H22.8401C23.0947 24.7598 23.3389 24.8609 23.5189 25.041C23.699 25.221 23.8001 25.4652 23.8001 25.7198C23.8001 25.9744 23.699 26.2186 23.5189 26.3986C23.3389 26.5787 23.0947 26.6798 22.8401 26.6798Z" fill="#8B3E00"/>
</svg>
