<svg width="20" height="20" viewBox="0 0 20 20" fill="none" xmlns="http://www.w3.org/2000/svg">
<path d="M9.99984 4.1665H16.6665M3.33317 15.8332H5.83317M3.33317 4.1665H6.6665M9.1665 15.8332H16.6665M14.1665 9.99984H16.6665M3.33317 9.99984H10.8332" stroke="black" stroke-linecap="round"/>
<path d="M6.66667 4.16667C6.66667 5.08714 7.41286 5.83333 8.33333 5.83333C9.25381 5.83333 10 5.08714 10 4.16667C10 3.24619 9.25381 2.5 8.33333 2.5C7.41286 2.5 6.66667 3.24619 6.66667 4.16667Z" stroke="black" stroke-linecap="round"/>
<path d="M10.8332 10.0002C10.8332 10.9206 11.5794 11.6668 12.4998 11.6668C13.4203 11.6668 14.1665 10.9206 14.1665 10.0002C14.1665 9.07969 13.4203 8.3335 12.4998 8.3335C11.5794 8.3335 10.8332 9.07969 10.8332 10.0002Z" stroke="black" stroke-linecap="round"/>
<path d="M5.83317 15.8332C5.83317 16.7536 6.57936 17.4998 7.49984 17.4998C8.42031 17.4998 9.1665 16.7536 9.1665 15.8332C9.1665 14.9127 8.42031 14.1665 7.49984 14.1665C6.57936 14.1665 5.83317 14.9127 5.83317 15.8332Z" stroke="black" stroke-linecap="round"/>
</svg>
