<svg width="339" height="339" viewBox="0 0 339 339" fill="none" xmlns="http://www.w3.org/2000/svg">
<path d="M117.255 245.437H221.745C211.283 300.669 190.341 338.25 169.5 338.25C149.301 338.25 129 302.914 118.234 250.432L117.255 245.471V245.437ZM18.739 245.454H91.4027C97.5452 280.588 107.991 310.491 121.643 331.399C78.7386 318.665 42.6247 289.456 21.2027 250.162L18.739 245.454ZM247.615 245.454H320.261C309.87 266.032 295.384 284.271 277.692 299.049C259.999 313.828 239.474 324.837 217.375 331.399C230.115 311.857 240.055 284.52 246.315 252.407L247.615 245.454ZM252.711 135.767H334.892C340.589 163.807 339.098 192.833 330.555 220.142H251.175C253.76 195.798 254.493 171.292 253.369 146.837L252.694 135.75L252.711 135.767ZM4.12523 135.75H86.3065C84.5411 160.589 84.7273 185.528 86.8633 210.337L87.8252 220.125H8.44523C-0.102709 192.818 -1.60047 163.792 4.09148 135.75H4.12523ZM111.737 135.75H227.314C229.242 160.613 229.033 185.595 226.69 210.422L225.643 220.125H113.374C110.424 194.858 109.679 169.382 111.146 143.985L111.737 135.75H227.314H111.703H111.737ZM219.197 10.4699L217.375 7.60119C242.455 15.0496 265.467 28.2127 284.602 46.0561C303.737 63.8996 318.473 85.9373 327.653 110.437H250.196C244.864 69.6674 234.047 34.6349 219.18 10.4868L219.197 10.4699ZM119.601 8.22557L121.66 7.60119C106.776 30.3993 95.7227 63.795 89.8502 103.012L88.804 110.437H11.3815C20.4347 86.278 34.8922 64.5084 53.6487 46.793C72.4053 29.0777 94.9642 15.8857 119.601 8.22557ZM169.5 0.783691C191.758 0.783691 214.151 43.68 223.736 105.122L224.53 110.437H114.471C123.6 46.1606 146.618 0.783691 169.5 0.783691Z" fill="white"/>
</svg>
