<svg width="53" height="52" viewBox="0 0 53 52" fill="none" xmlns="http://www.w3.org/2000/svg">
<path d="M23.7919 9.78842H31.9169L40.8273 0.850925C41.0791 0.597077 41.3786 0.395593 41.7087 0.258094C42.0387 0.120596 42.3927 0.0498047 42.7502 0.0498047C43.1078 0.0498047 43.4618 0.120596 43.7918 0.258094C44.1218 0.395593 44.4214 0.597077 44.6731 0.850925L51.6607 7.86551C52.1651 8.37295 52.4482 9.05938 52.4482 9.77488C52.4482 10.4904 52.1651 11.1768 51.6607 11.6843L45.4586 17.9134H23.7919V23.3301C23.7919 24.0484 23.5066 24.7373 22.9986 25.2452C22.4907 25.7531 21.8019 26.0384 21.0836 26.0384C20.3653 26.0384 19.6764 25.7531 19.1685 25.2452C18.6606 24.7373 18.3752 24.0484 18.3752 23.3301V15.2051C18.3752 13.7685 18.9459 12.3908 19.9617 11.3749C20.9776 10.3591 22.3553 9.78842 23.7919 9.78842ZM7.54189 23.3301V34.1634L1.33981 40.3655C0.83538 40.873 0.552246 41.5594 0.552246 42.2749C0.552246 42.9904 0.83538 43.6768 1.33981 44.1843L8.32731 51.1988C8.57908 51.4527 8.87863 51.6542 9.20866 51.7917C9.5387 51.9292 9.89269 52 10.2502 52C10.6078 52 10.9618 51.9292 11.2918 51.7917C11.6218 51.6542 11.9214 51.4527 12.1731 51.1988L23.7919 39.5801H34.6252C35.3435 39.5801 36.0324 39.2948 36.5403 38.7868C37.0482 38.2789 37.3336 37.5901 37.3336 36.8718V34.1634H40.0419C40.7602 34.1634 41.4491 33.8781 41.957 33.3702C42.4649 32.8623 42.7502 32.1734 42.7502 31.4551V28.7468H45.4586C46.1769 28.7468 46.8657 28.4614 47.3736 27.9535C47.8816 27.4456 48.1669 26.7567 48.1669 26.0384V23.3301H29.2086V26.0384C29.2086 27.475 28.6379 28.8528 27.6221 29.8686C26.6062 30.8844 25.2285 31.4551 23.7919 31.4551H18.3752C16.9386 31.4551 15.5609 30.8844 14.5451 29.8686C13.5292 28.8528 12.9586 27.475 12.9586 26.0384V17.9134L7.54189 23.3301Z" fill="#8B3E00"/>
</svg>
