<svg width="24" height="24" viewBox="0 0 24 24" fill="none" xmlns="http://www.w3.org/2000/svg">
<g clip-path="url(#clip0_5012_9011)">
<path opacity="0.928" fill-rule="evenodd" clip-rule="evenodd" d="M23.9765 3.25856C23.9765 3.39919 23.9765 3.53981 23.9765 3.68044C21.939 5.72573 19.9078 7.7804 17.8827 9.8445C18.7124 9.84928 19.5405 9.88054 20.3671 9.93825C20.6167 10.1748 20.6167 10.4092 20.3671 10.6414C19.3822 10.6731 18.3979 10.6653 17.414 10.6179C17.3889 10.8746 17.3342 11.1246 17.2499 11.3679C16.7717 11.9242 16.2483 12.4321 15.6796 12.8914C15.1306 13.1117 14.7166 12.9633 14.4374 12.4461C13.7899 12.9456 13.0633 13.2737 12.2577 13.4304C11.7235 13.3724 11.497 13.0755 11.578 12.5398C11.7942 11.7925 12.1692 11.1362 12.703 10.5711C13.0019 10.2851 13.3222 10.0273 13.664 9.79762C14.1306 9.50578 14.6071 9.23231 15.0937 8.97731C16.3947 7.14094 17.7072 5.31281 19.0312 3.49294C19.2097 3.25066 19.4363 3.19597 19.7108 3.32887C19.8806 3.51905 19.8884 3.71436 19.7343 3.91481C18.326 5.86429 16.9119 7.80961 15.4921 9.75075C14.4673 10.1512 13.6001 10.7684 12.8905 11.6023C12.6899 11.8941 12.5258 12.2066 12.3983 12.5398C12.4139 12.5554 12.4296 12.5711 12.4452 12.5867C13.563 12.1168 14.5474 11.4527 15.3983 10.5945C15.6204 10.3873 15.8469 10.3795 16.078 10.5711C16.1463 10.7054 16.1619 10.846 16.1249 10.9929C15.8827 11.3289 15.6405 11.6648 15.3983 12.0007C15.4296 12.032 15.4608 12.032 15.4921 12.0007C15.8437 11.6492 16.1952 11.2976 16.5468 10.9461C16.6169 10.533 16.7106 10.1268 16.828 9.72731C19.0246 7.54631 21.2043 5.35101 23.3671 3.14137C23.6064 3.02243 23.8095 3.06149 23.9765 3.25856Z" fill="#8B3E00"/>
<path opacity="0.933" fill-rule="evenodd" clip-rule="evenodd" d="M23.9766 17.6945C23.9766 17.8196 23.9766 17.9445 23.9766 18.0695C23.8908 18.1986 23.7659 18.2689 23.6016 18.2805C20.6155 18.5148 17.6311 18.4992 14.6484 18.2336C13.9076 18.157 13.1732 18.0398 12.4453 17.882C12.2491 17.9076 12.0616 17.9623 11.8828 18.0461C10.1507 18.8995 8.36948 19.6339 6.53906 20.2492C5.51794 20.5894 4.47108 20.8003 3.39844 20.882C2.87334 20.8875 2.38897 20.7547 1.94531 20.4836C1.74802 20.3 1.63083 20.0734 1.59375 19.8039C1.54559 19.2492 1.59246 18.7023 1.73438 18.1633C1.8811 17.5747 2.06079 16.9966 2.27344 16.4289C1.67078 15.9753 1.10047 15.4753 0.5625 14.9289C0.31812 14.6273 0.122807 14.2991 -0.0234375 13.9445C-0.0234375 13.7414 -0.0234375 13.5383 -0.0234375 13.3352C0.257902 12.8892 0.60165 12.4908 1.00781 12.1398C1.44676 11.8113 1.88426 11.4832 2.32031 11.1555C2.11575 10.5887 1.92044 10.0183 1.73438 9.44454C1.67348 9.19014 1.63442 8.93233 1.61719 8.6711C1.66844 8.23221 1.70751 7.78689 1.73438 7.33516C2.00418 6.5808 2.44168 5.94021 3.04688 5.41329C3.42319 4.50996 4.08725 3.93965 5.03906 3.70235C5.44036 3.60921 5.84662 3.54671 6.25781 3.51485C7.06308 3.12034 7.90683 3.01096 8.78906 3.18672C9.59756 3.40138 10.0819 3.917 10.2422 4.7336C10.1561 5.13194 9.92958 5.23352 9.5625 5.03829C9.41114 4.44944 9.04397 4.08225 8.46094 3.93672C8.13281 3.90547 7.80469 3.90547 7.47656 3.93672C7.27894 3.97046 7.09144 4.03296 6.91406 4.12422C7.12425 4.31536 7.35862 4.47161 7.61719 4.59297C8.52319 4.80396 9.38255 5.13208 10.1953 5.57735C10.74 5.95629 10.9744 6.47974 10.8984 7.14766C10.8969 7.3376 10.8813 7.5251 10.8516 7.71016C11.354 8.49091 11.3228 9.25657 10.7578 10.007C10.8309 10.1099 10.9325 10.1568 11.0625 10.1477C11.3611 10.1095 11.658 10.0626 11.9531 10.007C12.3128 10.1015 12.4222 10.3202 12.2812 10.6633C12.1855 10.7619 12.0683 10.8166 11.9297 10.8273C11.5855 10.8798 11.2417 10.9346 10.8984 10.9914C10.4928 10.8316 10.11 10.6285 9.75 10.382C9.6817 10.2477 9.66609 10.1071 9.70312 9.96016C9.84206 9.77425 9.9983 9.60236 10.1719 9.44454C10.6109 8.79335 10.4781 8.30116 9.77344 7.96797C9.34884 7.79932 8.91136 7.6743 8.46094 7.59297C7.39509 7.45975 6.33258 7.30347 5.27344 7.12422C4.78186 7.02832 4.33657 6.83299 3.9375 6.53829C3.84199 6.35857 3.85762 6.18668 3.98438 6.02266C4.06591 5.95732 4.15966 5.92605 4.26562 5.92891C4.69828 6.1098 5.14359 6.25825 5.60156 6.37422C6.58341 6.53233 7.56778 6.67296 8.55469 6.7961C9.08409 6.87564 9.59189 7.0241 10.0781 7.24141C10.1734 6.85544 10.0718 6.53514 9.77344 6.28047C9.474 6.09949 9.16153 5.94325 8.83594 5.81172C8.21817 5.63004 7.6088 5.42693 7.00781 5.20235C6.63694 4.98785 6.32447 4.7066 6.07031 4.3586C4.91564 4.34289 4.12658 4.8663 3.70312 5.92891C3.20449 6.36475 2.81387 6.88038 2.53125 7.47579C2.378 7.96985 2.52644 8.33702 2.97656 8.57735C3.17453 8.64635 3.37765 8.69322 3.58594 8.71797C4.05469 8.74924 4.52344 8.74924 4.99219 8.71797C6.16491 8.57486 7.33678 8.57486 8.50781 8.71797C8.88319 8.77661 9.24253 8.88602 9.58594 9.0461C9.81642 9.25746 9.83208 9.484 9.63281 9.72579C9.54459 9.75358 9.45867 9.78485 9.375 9.81954C8.81498 9.57996 8.22905 9.44716 7.61719 9.4211C6.50672 9.41753 5.39733 9.45658 4.28906 9.53829C3.69548 9.56369 3.11735 9.4856 2.55469 9.30391C2.77321 10.0142 3.0154 10.7173 3.28125 11.4133C3.35682 11.6427 3.41151 11.8771 3.44531 12.1164C3.3783 12.5328 3.30018 12.9469 3.21094 13.3586C3.34185 13.4808 3.49809 13.5589 3.67969 13.593C3.795 13.6613 3.89656 13.7472 3.98438 13.8508C4.15625 14.1633 4.32812 14.4758 4.5 14.7883C4.54061 15.0199 4.62655 15.2309 4.75781 15.4211C4.86506 15.4407 4.95881 15.4094 5.03906 15.3273C5.85938 14.6321 6.6172 13.8742 7.3125 13.0539C7.34939 12.7325 7.31034 12.42 7.19531 12.1164C7.26511 11.7843 7.46827 11.6671 7.80469 11.7648C7.97869 11.9738 8.08027 12.216 8.10938 12.4914C8.14064 12.7258 8.14064 12.9602 8.10938 13.1945C7.77825 13.7924 7.35638 14.3237 6.84375 14.7883C6.68109 15.2196 6.57952 15.6572 6.53906 16.1008C7.43583 15.7388 8.24831 15.2466 8.97656 14.6242C8.78198 14.6175 8.58666 14.6253 8.39062 14.6477C8.06916 14.7021 7.88948 14.5693 7.85156 14.2492C7.86539 14.1122 7.92792 14.0028 8.03906 13.9211C8.60016 13.8402 9.16266 13.7621 9.72656 13.6867C9.8828 13.4599 10.0078 13.2177 10.1016 12.9602C10.3206 12.7765 10.5315 12.7921 10.7344 13.007C10.7625 13.0838 10.786 13.1619 10.8047 13.2414C10.6828 13.6834 10.4874 14.0897 10.2188 14.4602C9.42534 15.4077 8.46441 16.1343 7.33594 16.6398C6.90891 16.8377 6.47142 17.0096 6.02344 17.1555C5.72231 17.2217 5.53481 17.1045 5.46094 16.8039C5.55445 16.4771 5.62477 16.149 5.67188 15.8195C5.13872 16.3624 4.59182 16.378 4.03125 15.8664C3.91908 15.6237 3.82533 15.3737 3.75 15.1164C3.60525 14.8738 3.47244 14.6238 3.35156 14.3664C3.21068 14.2646 3.05443 14.1943 2.88281 14.1555C2.54469 13.9796 2.38845 13.6983 2.41406 13.3117C2.48115 12.8794 2.55928 12.4498 2.64844 12.0227C2.49777 12.0667 2.35714 12.137 2.22656 12.2336C1.73796 12.597 1.27702 12.9955 0.84375 13.4289C0.800484 13.5008 0.777047 13.579 0.773438 13.6633C0.825075 13.8916 0.926639 14.0947 1.07812 14.2727C1.5115 14.753 1.98806 15.1827 2.50781 15.5617C2.5523 15.5906 2.59137 15.5829 2.625 15.5383C2.70313 15.3664 2.78125 15.1946 2.85938 15.0227C2.99976 14.8931 3.16382 14.854 3.35156 14.9055C3.55597 15.0098 3.62629 15.1739 3.5625 15.3977C3.05002 16.5445 2.65939 17.732 2.39062 18.9602C2.19875 19.7841 2.52688 20.1591 3.375 20.0852C4.8727 19.9275 6.31805 19.5603 7.71094 18.9836C9.0623 18.4602 10.3904 17.882 11.6953 17.2492C12.0103 17.107 12.3384 17.0601 12.6797 17.1086C14.8095 17.501 16.9579 17.6807 19.125 17.6477C20.5245 17.6337 21.923 17.5868 23.3203 17.507C23.4765 17.5149 23.6328 17.5226 23.7891 17.5305C23.8758 17.5628 23.9383 17.6175 23.9766 17.6945Z" fill="#8B3E00"/>
<path opacity="0.928" fill-rule="evenodd" clip-rule="evenodd" d="M23.9764 8.36688C23.9764 8.50751 23.9764 8.64813 23.9764 8.78876C22.8438 9.85104 21.7032 10.9057 20.5546 11.9528C20.4778 11.981 20.3997 12.0044 20.3202 12.0231C19.9387 11.9677 19.5559 11.9209 19.1718 11.8825C18.9865 11.8956 18.8068 11.9347 18.6327 11.9997C17.9026 12.4015 17.2385 12.8937 16.6405 13.4763C16.6085 13.6488 16.6789 13.7659 16.8514 13.8278C18.0304 14.0006 19.1554 13.8287 20.2264 13.3122C21.2732 12.5698 22.3669 11.8979 23.5077 11.2966C23.7053 11.2814 23.8615 11.3517 23.9764 11.5075C23.9764 11.6325 23.9764 11.7575 23.9764 11.8825C23.1607 12.4238 22.3169 12.9316 21.4452 13.4059C20.3372 14.3573 19.0481 14.787 17.578 14.695C17.0188 14.7469 16.5188 14.6063 16.078 14.2731C15.6403 13.736 15.6793 13.236 16.1952 12.7731C16.9077 12.0811 17.7203 11.542 18.6327 11.1559C18.7421 11.1403 18.8515 11.1247 18.9608 11.1091C19.3832 11.1178 19.8051 11.1334 20.2264 11.1559C21.2749 10.1543 22.3374 9.16995 23.4139 8.20282C23.6437 8.13687 23.8312 8.19157 23.9764 8.36688Z" fill="#8B3E00"/>
</g>
<defs>
<clipPath id="clip0_5012_9011">
<rect width="24" height="24" fill="white"/>
</clipPath>
</defs>
</svg>
