<svg width="62" height="60" viewBox="0 0 62 60" fill="none" xmlns="http://www.w3.org/2000/svg">
<path d="M25.235 3.18735L24.3463 2.63003C22.607 1.56362 20.4361 0.944092 18.5699 1.52554C16.5641 2.15015 14.9644 3.69517 14.1266 6.01587L12.9332 5.40142C10.8766 4.34263 9.79999 4.32612 8.90751 4.7273C8.19531 5.04595 7.45263 5.81275 6.61093 6.93247L17.0719 15.0207C18.7096 15.5539 21.109 15.5412 23.5084 14.9191C25.9205 14.297 28.3199 13.0783 30.0719 11.4406L34.0201 1.67788C30.5416 -1.07065 27.3678 0.521339 25.235 3.18735ZM31.9762 12.9005C29.818 15.0841 26.6061 16.5568 24.1051 17.2169C23.2291 17.4455 22.3531 17.6105 21.5025 17.6994C21.0328 18.4738 20.6393 19.2609 20.3346 20.048C20.9439 23.1457 22.0865 25.6847 23.8004 27.7668L21.9723 29.2902C20.9185 28.0207 19.9791 26.6496 19.2682 25.1261C19.1539 28.0714 19.8141 31.1183 20.8932 34.2921L18.6461 35.0539C16.6656 29.2648 15.9928 23.3361 18.773 17.7501C17.8336 17.674 16.9449 17.4962 16.1197 17.2043L16.0816 17.1916C15.5357 17.7121 15.0152 18.258 14.5201 18.8293C10.5122 23.4757 8.30449 29.6583 9.45976 34.4699C10.078 37.047 11.1863 39.4845 12.7809 41.5666C15.1168 41.5158 17.3258 41.5666 19.3316 42.3283C20.2838 42.2267 21.2613 42.1632 22.2769 42.1632C25.8951 42.1632 29.1705 42.8361 31.6461 44.0041C32.6109 44.4611 33.4869 45.007 34.1852 45.6291C34.1852 44.9562 34.2867 44.2326 34.4898 43.6994C33.36 42.633 32.649 41.338 32.649 39.8654C32.649 37.8214 34.0074 36.133 35.9752 34.9142C35.9752 34.3302 36.0895 33.7716 36.2926 33.2384C35.0103 32.1339 34.1852 30.7628 34.1852 29.1632C34.1852 28.1603 34.5152 27.2462 35.0738 26.421C34.5152 25.6085 34.1852 24.6945 34.1852 23.6916C34.1852 23.1964 34.2613 22.7394 34.401 22.2951C33.1695 21.2033 32.3951 19.8576 32.3951 18.3087C32.3951 16.7726 33.1568 15.4396 34.3756 14.3605C33.6266 13.7765 32.8268 13.2814 31.9762 12.9005ZM46.1187 13.1925C42.818 13.1925 39.8346 13.8908 37.7906 14.9191C35.734 15.9474 34.7691 17.2169 34.7691 18.3087C34.7691 19.4132 35.734 20.6828 37.7906 21.7111C39.8346 22.7394 42.818 23.4376 46.1187 23.4376C47.5533 23.4376 48.9117 23.298 50.1685 23.0695V20.9113C51.9332 20.6447 53.3932 20.1623 54.3326 19.5402V21.7746C55.9195 21.3175 57.443 19.6291 57.4811 18.3087C57.4811 17.2169 56.5162 15.9474 54.4596 14.9191C52.4029 13.8908 49.4322 13.1925 46.1187 13.1925ZM58.3697 21.7873C57.9508 22.2316 57.4557 22.6505 56.8971 23.0314L56.9225 26.713C58.5221 25.7609 59.2711 24.6564 59.2711 23.6916C59.2711 23.0822 58.9791 22.422 58.3697 21.7873ZM36.5592 23.7423C36.5973 24.8341 37.5621 26.0656 39.5807 27.0812C41.6373 28.1222 44.608 28.8078 47.9215 28.8078C49.9908 28.8078 51.9332 28.5285 53.5963 28.0714L53.6852 24.6183C51.5016 25.38 48.9117 25.799 46.1187 25.799C42.5006 25.799 39.2125 25.0753 36.7242 23.8312C36.6607 23.8058 36.61 23.7677 36.5592 23.7423ZM36.8131 28.1603C36.6353 28.5031 36.5592 28.8459 36.5592 29.1632C36.5592 30.2677 37.524 31.5373 39.5807 32.5656C41.6373 33.5939 44.608 34.2794 47.9215 34.2794C49.5973 34.2794 51.1842 34.1144 52.6187 33.797V30.7501C51.1461 31.0294 49.5719 31.1691 47.9215 31.1691C44.2906 31.1691 41.0025 30.4582 38.5143 29.2013C37.8922 28.8966 37.3209 28.5412 36.8131 28.1603ZM59.0172 28.1603C58.2428 28.7062 57.5699 29.1125 56.7828 29.4552V32.2863C58.4713 31.3087 59.2711 30.1662 59.2711 29.1632C59.2711 28.8459 59.1949 28.5031 59.0172 28.1603ZM59.9693 32.8322C59.7154 33.0861 59.4361 33.3273 59.1314 33.5685V37.6818C60.4391 36.7931 61.0738 35.8156 61.0738 34.9269C61.0738 34.2541 60.7057 33.5304 59.9693 32.8322ZM38.3746 34.6095C38.3619 34.7238 38.3492 34.8253 38.3492 34.9269C38.3492 36.0314 39.3141 37.2882 41.3707 38.3166C43.4273 39.3576 46.4107 40.0431 49.7115 40.0431C51.6031 40.0431 53.4059 39.8146 54.9674 39.4337V35.6378C52.898 36.298 50.4986 36.6535 47.9215 36.6535C44.2906 36.6535 41.0025 35.9298 38.5143 34.6857C38.4635 34.6603 38.4254 34.6349 38.3746 34.6095ZM36.648 37.3263C35.5435 38.1515 35.023 39.0529 35.023 39.8654C35.023 40.9699 35.9879 42.2267 38.0445 43.2677C40.1012 44.296 43.0719 44.9816 46.3853 44.9816C47.5914 44.9816 48.7594 44.8927 49.8512 44.7277V42.4171H49.7115C46.0807 42.4171 42.7926 41.6935 40.3043 40.4367C38.7174 39.6496 37.3971 38.5958 36.648 37.3263ZM57.2779 41.2111C56.275 41.5666 55.1832 41.8585 54.0152 42.049V43.5851C54.2564 43.4835 54.4977 43.382 54.7262 43.2677C55.9703 42.633 56.8082 41.922 57.2779 41.2111ZM58.4459 43.5216C57.9635 44.0041 57.4049 44.4357 56.7828 44.8292V48.4601C58.4713 47.4953 59.2711 46.3527 59.2711 45.3498C59.2711 44.7658 59.0045 44.131 58.4459 43.5216ZM14.1773 43.8771C12.8824 43.8898 11.4859 44.0548 10.0387 44.3976C7.14287 45.0705 4.65332 46.3019 3.02832 47.6603C1.40332 49.006 0.76855 50.3771 0.958979 51.3546C1.14941 52.3322 2.15234 53.2335 4.10742 53.7541C6.05615 54.2619 8.78183 54.2873 11.6764 53.6144C12.8443 53.3351 13.9361 52.9796 14.9391 52.5607V49.9328C16.7926 49.1076 18.1764 48.1173 18.7984 47.1525V50.2501C20.3346 48.9298 20.9312 47.6095 20.7535 46.6447C20.5758 45.6671 19.5602 44.7658 17.6051 44.258C16.6275 44.0041 15.4596 43.8644 14.1773 43.8771ZM22.3785 44.5373C22.7213 45.0324 22.9625 45.591 23.0894 46.213C23.2291 46.9748 23.1656 47.7111 22.9371 48.4347C24.1939 48.7648 25.3365 49.2091 26.3268 49.7677C26.8853 50.0724 27.4059 50.4406 27.8629 50.8214C29.0055 50.5548 29.9703 50.174 30.6559 49.7169V52.3322C32.6998 51.3673 33.6393 50.1867 33.6393 49.2472C33.6393 48.2951 32.6998 47.1144 30.6432 46.1496C28.5992 45.1974 25.6539 44.5499 22.3785 44.5373ZM36.5719 45.172C36.5592 45.2228 36.5592 45.2863 36.5592 45.3498C36.5592 46.4542 37.524 47.7111 39.5807 48.7521C41.6373 49.7804 44.608 50.466 47.9215 50.466C49.5973 50.466 51.1842 50.2882 52.6187 49.9835V46.5685C50.7398 47.0763 48.6197 47.3556 46.3853 47.3556C42.7545 47.3556 39.4664 46.632 36.9781 45.3878C36.8385 45.3117 36.6988 45.2355 36.5719 45.172ZM36.9273 49.9074C36.6734 50.3263 36.5592 50.7326 36.5592 51.1261C36.5592 52.2306 37.524 53.4874 39.5807 54.5285C41.6373 55.5568 44.608 56.2423 47.9215 56.2423C49.5973 56.2423 51.1842 56.0646 52.6187 55.7599V52.4083C51.1461 52.6876 49.5719 52.84 47.9215 52.84C44.2906 52.84 41.0025 52.1164 38.5143 50.8595C37.943 50.5802 37.4098 50.2628 36.9273 49.9074ZM58.9029 49.9074C58.1666 50.4025 57.5191 50.796 56.7828 51.1134V54.2365C58.4713 53.2716 59.2711 52.1291 59.2711 51.1261C59.2711 50.7326 59.1568 50.3263 58.9029 49.9074ZM21.7564 50.5929C21.3121 51.1515 20.7916 51.6847 20.2076 52.1671C18.2271 53.8302 15.4342 55.1759 12.2096 55.9249C11.0594 56.1916 9.91679 56.3566 8.81992 56.4455C9.22617 57.1183 9.94091 57.7785 10.987 58.3624C12.7174 59.34 15.2564 60.0001 18.0748 60.0001C19.357 60.0001 20.5758 59.8605 21.693 59.6193V56.9787C23.4449 56.7121 24.9176 56.2296 25.857 55.6076V57.9435C27.1266 57.0548 27.7359 56.0519 27.7359 55.0998C27.7359 53.9953 26.9107 52.8146 25.1715 51.8371C24.232 51.3166 23.0641 50.8849 21.7564 50.5929Z" fill="#8B3E00"/>
</svg>
