<svg width="28" height="28" viewBox="0 0 28 28" fill="none" xmlns="http://www.w3.org/2000/svg">
<path d="M20.9425 1.78653C20.8785 1.82919 20.6918 2.11719 20.5265 2.42653L20.2278 2.98119L19.7638 3.23186C19.0705 3.60519 18.9531 3.70653 18.9531 3.91453C18.9531 4.16519 19.0651 4.27186 19.6731 4.60252L20.2065 4.89052L20.5265 5.46652C20.8678 6.06919 20.9745 6.18652 21.1825 6.18652C21.4118 6.18652 21.5025 6.08519 21.8118 5.51452C22.1318 4.91719 22.1371 4.91186 22.8678 4.50653C23.2251 4.30919 23.3638 4.20253 23.4011 4.09053C23.4971 3.82919 23.3905 3.67453 22.9531 3.42919C22.1051 2.95453 22.1478 2.99186 21.8171 2.38386C21.6465 2.06919 21.4651 1.79186 21.4065 1.75986C21.2625 1.68519 21.0758 1.69586 20.9425 1.78653ZM21.3851 3.35986C21.4918 3.56253 21.5931 3.65319 21.8118 3.77053C21.9665 3.85053 22.0785 3.93586 22.0678 3.95719C22.0518 3.98386 21.9238 4.05853 21.7798 4.13319C21.5825 4.23453 21.4865 4.32519 21.3531 4.57053L21.1825 4.87452L21.0758 4.66652C20.9318 4.37853 20.7451 4.19186 20.4945 4.07986C20.3825 4.02653 20.2865 3.96786 20.2865 3.95186C20.2918 3.93586 20.4145 3.84519 20.5691 3.75986C20.7665 3.64253 20.8891 3.52519 21.0065 3.32786C21.0971 3.17319 21.1825 3.06119 21.2038 3.07186C21.2251 3.08786 21.3051 3.21586 21.3851 3.35986Z" fill="#8B3E00"/>
<path d="M16.3824 5.2427C15.9024 5.44537 15.4277 5.87204 15.0117 6.4747C14.7024 6.91737 14.7237 7.23204 15.0597 7.3547C15.2997 7.4347 15.4544 7.3547 15.6624 7.02937C16.089 6.36804 16.601 5.97337 17.033 5.97337C17.8597 5.97337 18.6437 7.18404 19.0224 9.04003C19.129 9.57337 19.1397 9.77603 19.1397 11.3334C19.1397 12.9814 19.1184 13.2854 18.9477 14.0747L18.889 14.3414L18.617 14.1387C17.9024 13.6054 17.1184 13.4347 16.297 13.6267C15.881 13.728 15.5984 13.8667 15.2144 14.1654L14.9104 14.4L14.8517 14.064C14.713 13.248 14.665 12.6507 14.665 11.68C14.665 10.6134 14.7237 9.97337 14.8997 9.04537C14.9904 8.58137 14.9957 8.50137 14.9264 8.37337C14.841 8.20803 14.7504 8.16003 14.5317 8.16003C14.2704 8.16003 14.1584 8.35204 14.0144 9.04537C13.945 9.39737 13.8864 9.7387 13.8864 9.8027C13.8864 9.87737 13.7317 10.1334 13.5397 10.3894C13.1237 10.944 12.7184 11.7067 12.505 12.352C12.1744 13.3387 12.1797 13.2054 12.1797 19.5787V25.3814L12.3184 25.488C12.505 25.6374 12.6757 25.6267 12.857 25.472L13.0064 25.344L13.0384 19.4027C13.0597 14.9547 13.081 13.408 13.129 13.2267C13.2784 12.6934 13.433 12.272 13.6144 11.92L13.8064 11.5467L13.8384 12.48C13.8757 13.504 13.9504 14.08 14.1104 14.6134C14.5424 16.0054 15.433 16.6507 16.953 16.656C18.1904 16.6667 18.9584 16.2134 19.4597 15.1734C19.817 14.4267 20.0197 13.3174 20.0197 12.064C20.0197 11.4454 20.0784 11.4614 20.361 12.144C20.7664 13.1147 20.777 13.184 20.8144 15.456L20.8464 17.504L20.9957 17.632C21.1824 17.792 21.3477 17.7974 21.5344 17.648L21.6784 17.5307L21.6624 15.4454C21.641 13.392 21.6357 13.3547 21.5024 12.8427C21.2357 11.8614 20.8517 11.072 20.281 10.3147C20.0357 9.98937 20.009 9.9307 19.961 9.52537C19.7637 7.8667 19.209 6.5387 18.3824 5.74937C17.9344 5.32804 17.5877 5.1627 17.0864 5.13604C16.7557 5.12004 16.633 5.13604 16.3824 5.2427ZM17.737 14.576C17.9024 14.656 18.137 14.832 18.265 14.9707L18.4944 15.216L18.3077 15.376C18.2064 15.4614 17.993 15.5947 17.833 15.6747C17.5664 15.7974 17.481 15.8134 16.953 15.808C16.537 15.808 16.297 15.7814 16.1264 15.7174C15.8704 15.616 15.3797 15.3067 15.3797 15.2427C15.3797 15.1627 15.7317 14.8107 15.9397 14.6774C16.2757 14.464 16.537 14.4 17.0117 14.416C17.353 14.432 17.5077 14.464 17.737 14.576Z" fill="#8B3E00"/>
<path d="M23.8225 5.76024C23.6785 5.81891 23.6038 5.93091 23.1931 6.68824L22.8731 7.28024L22.1958 7.65357C21.3638 8.11757 21.2998 8.1709 21.2998 8.4269C21.2998 8.67757 21.3318 8.70424 22.1745 9.1629L22.8571 9.53624L23.2411 10.2242C23.6785 11.0296 23.7158 11.0722 23.8811 11.1042C24.1691 11.1629 24.2918 11.0349 24.7025 10.2776L25.0971 9.5469L25.7905 9.16824C26.5638 8.74157 26.6865 8.6349 26.6865 8.41624C26.6865 8.19757 26.5371 8.06957 25.7745 7.6589L25.0971 7.2909L24.7185 6.58157C24.5051 6.19224 24.3078 5.85091 24.2705 5.82424C24.1691 5.73891 23.9505 5.70691 23.8225 5.76024ZM24.9211 8.16557C25.4171 8.4429 25.4225 8.41624 24.8358 8.70957C24.5371 8.86424 24.3771 9.04557 24.1585 9.4829C24.0785 9.63757 23.9931 9.74957 23.9665 9.73357C23.9398 9.71757 23.8278 9.53624 23.7211 9.32824C23.5131 8.9389 23.4171 8.84824 22.9691 8.6189C22.8198 8.54424 22.6811 8.4589 22.6651 8.43757C22.6491 8.4109 22.8251 8.28824 23.0545 8.16024C23.4651 7.94157 23.4865 7.92024 23.7265 7.48824L23.9825 7.0349L24.2331 7.47757C24.4731 7.90424 24.4998 7.9309 24.9211 8.16557Z" fill="#8B3E00"/>
<path d="M10.0678 6.28249C9.94516 6.34115 9.80116 6.45849 9.73716 6.54382C9.67849 6.62915 9.37982 7.27449 9.07049 7.97849L8.51582 9.25315L7.13982 11.2798C6.38249 12.3945 5.74782 13.3278 5.72649 13.3491C5.71049 13.3705 5.58782 13.3438 5.45449 13.2851C5.28915 13.2105 5.10249 13.1731 4.84115 13.1731C4.51049 13.1731 4.40915 13.1998 4.08382 13.3598C3.31049 13.7491 2.81982 14.5865 3.16649 14.9331C3.27315 15.0398 3.50249 15.0718 3.67315 15.0078C3.72115 14.9865 3.80649 14.8745 3.87049 14.7518C3.99849 14.4905 4.25449 14.2078 4.45715 14.1011C4.53715 14.0585 4.71315 14.0265 4.84649 14.0265C5.07049 14.0265 5.17715 14.0851 6.24915 14.8051C6.88382 15.2371 7.47049 15.6478 7.55049 15.7225C7.82249 15.9785 7.86516 16.3891 7.65716 16.7838C7.49716 17.0878 5.34249 19.4771 5.15582 19.5518C4.77182 19.7171 4.62249 19.6691 3.74249 19.0878C2.86249 18.5065 2.66515 18.3465 2.54782 18.1225C2.39848 17.8398 2.45182 17.5891 2.79315 16.9065C2.96915 16.5545 3.11315 16.2131 3.11315 16.1438C3.11315 15.9998 2.95315 15.8131 2.79315 15.7598C2.72915 15.7385 2.60649 15.7545 2.52115 15.7865C2.39315 15.8451 2.29715 15.9838 2.00382 16.5758L1.64648 17.2905V17.7811C1.64648 18.2131 1.66248 18.2931 1.80115 18.5438C1.88115 18.6931 2.02515 18.8905 2.12115 18.9758C2.39848 19.2425 4.09982 20.3625 4.31849 20.4211C4.61715 20.5065 5.08115 20.4958 5.35849 20.3998C5.74249 20.2665 5.98249 20.0371 7.17182 18.6931C8.50516 17.1838 8.62782 16.9865 8.62782 16.2931C8.62782 15.7918 8.52116 15.5038 8.20116 15.1518L8.00382 14.9278L8.56916 14.0905C9.16649 13.2105 9.22516 13.0505 9.05982 12.8158C8.96382 12.6771 8.76116 12.6238 8.59049 12.6878C8.50516 12.7198 8.24916 13.0451 7.88116 13.5838C7.56649 14.0478 7.29982 14.4371 7.29449 14.4478C7.27849 14.4638 6.72916 14.1171 6.50515 13.9465C6.41449 13.8771 6.48915 13.7598 7.69982 11.9785C8.40382 10.9332 8.99582 10.0798 9.01182 10.0798C9.05982 10.0798 9.83316 10.6345 9.83316 10.6718C9.83316 10.6932 9.71049 10.8905 9.55582 11.1145C9.23049 11.5891 9.20382 11.7865 9.42782 11.9838C9.73182 12.2451 9.89182 12.1491 10.3718 11.4238C10.6705 10.9812 10.9905 10.6132 11.8065 9.78648C12.3878 9.19982 12.8892 8.66649 12.9212 8.60249C12.9532 8.53849 12.9798 8.35715 12.9798 8.20249C12.9798 7.71715 12.8625 7.58915 11.7958 6.86382C10.9265 6.27182 10.8305 6.21849 10.5692 6.20249C10.3665 6.18649 10.2225 6.21315 10.0678 6.28249ZM11.3318 7.57849C11.8278 7.91449 12.1265 8.14915 12.1265 8.20249C12.1265 8.25582 11.7425 8.67715 11.2785 9.14115L10.4252 9.98915L9.92382 9.65848L9.41716 9.32782L9.81716 8.41049C10.0358 7.90382 10.2598 7.39182 10.3132 7.26382C10.3665 7.14115 10.4412 7.03982 10.4732 7.03982C10.5052 7.03982 10.8892 7.27982 11.3318 7.57849Z" fill="#8B3E00"/>
<path d="M20.996 18.7414L20.8467 18.8694V22.1067V25.344L20.996 25.472C21.1773 25.6267 21.348 25.6374 21.5347 25.488L21.6733 25.3814V22.1067V18.832L21.5347 18.7254C21.348 18.576 21.1773 18.5867 20.996 18.7414Z" fill="#8B3E00"/>
<path d="M16.3878 19.7386C15.5984 19.792 15.4331 19.872 15.4331 20.2186C15.4331 20.608 15.4651 20.6133 16.9264 20.608C18.0464 20.608 18.2224 20.5973 18.3131 20.5173C18.4518 20.4 18.4571 20.048 18.3238 19.9306C18.1371 19.76 17.3051 19.68 16.3878 19.7386Z" fill="#8B3E00"/>
<path d="M14.9267 21.4665C14.7614 21.6265 14.7561 21.8185 14.9161 21.9998C15.0067 22.1118 15.1401 22.1598 15.5667 22.2505C16.7027 22.4958 18.6387 22.3465 18.9427 21.9998C19.0921 21.8291 19.0921 21.6531 18.9481 21.4718C18.8147 21.3065 18.6707 21.2958 18.1001 21.4238C17.8281 21.4825 17.4494 21.5091 16.9267 21.5091C16.4041 21.5091 16.0254 21.4825 15.7534 21.4238C15.2147 21.3011 15.0814 21.3065 14.9267 21.4665Z" fill="#8B3E00"/>
</svg>
