<svg width="50" height="50" viewBox="0 0 50 50" fill="none" xmlns="http://www.w3.org/2000/svg">
<circle cx="25" cy="25" r="25" fill="#7573CE"/>
<path d="M17 34C16.45 34 15.979 33.804 15.587 33.412C15.195 33.02 14.9993 32.5493 15 32V21C15 20.45 15.196 19.979 15.588 19.587C15.98 19.195 16.4507 18.9993 17 19H21V17C21 16.45 21.196 15.979 21.588 15.587C21.98 15.195 22.4507 14.9993 23 15H27C27.55 15 28.021 15.196 28.413 15.588C28.805 15.98 29.0007 16.4507 29 17V19H33C33.55 19 34.021 19.196 34.413 19.588C34.805 19.98 35.0007 20.4507 35 21V32C35 32.55 34.804 33.021 34.412 33.413C34.02 33.805 33.5493 34.0007 33 34H17ZM23 19H27V17H23V19Z" fill="white"/>
</svg>
