<svg width="20" height="25" viewBox="0 0 20 25" fill="none" xmlns="http://www.w3.org/2000/svg">
<path d="M9.84615 24.5C11.2 24.5 12.3077 23.3923 12.3077 22.0385H7.38462C7.38462 23.3923 8.49231 24.5 9.84615 24.5ZM17.2308 17.1154V10.9615C17.2308 7.18308 15.2246 4.02 11.6923 3.18308V0.5H8V3.18308C4.48 4.02 2.46154 7.17077 2.46154 10.9615V17.1154L0 19.5769V20.8077H19.6923V19.5769L17.2308 17.1154ZM14.7692 18.3462H4.92308V10.9615C4.92308 7.90923 6.78154 5.42308 9.84615 5.42308C12.9108 5.42308 14.7692 7.90923 14.7692 10.9615V18.3462Z" fill="#8B3E00"/>
</svg>
