<svg width="18" height="19" viewBox="0 0 18 19" fill="none" xmlns="http://www.w3.org/2000/svg">
<path d="M5.5 4.5C5.5 3.57174 5.86875 2.6815 6.52513 2.02513C7.1815 1.36875 8.07174 1 9 1C9.92826 1 10.8185 1.36875 11.4749 2.02513C12.1313 2.6815 12.5 3.57174 12.5 4.5C12.5 5.42826 12.1313 6.3185 11.4749 6.97487C10.8185 7.63125 9.92826 8 9 8C8.07174 8 7.1815 7.63125 6.52513 6.97487C5.86875 6.3185 5.5 5.42826 5.5 4.5ZM1.81802 12.318C2.66193 11.4741 3.80653 11 5 11H13C14.1935 11 15.3381 11.4741 16.182 12.318C17.0259 13.1619 17.5 14.3065 17.5 15.5C17.5 16.163 17.2366 16.7989 16.7678 17.2678C16.2989 17.7366 15.663 18 15 18H3C2.33696 18 1.70107 17.7366 1.23223 17.2678C0.763392 16.7989 0.5 16.163 0.5 15.5C0.5 14.3065 0.974106 13.1619 1.81802 12.318Z" stroke="black"/>
</svg>
