<svg width="18" height="18" viewBox="0 0 18 18" fill="none" xmlns="http://www.w3.org/2000/svg">
<g clip-path="url(#clip0_3299_7367)">
<g clip-path="url(#clip1_3299_7367)">
<path d="M3 9.25V15.25C3 15.6478 3.15804 16.0294 3.43934 16.3107C3.72064 16.592 4.10218 16.75 4.5 16.75H13.5C13.8978 16.75 14.2794 16.592 14.5607 16.3107C14.842 16.0294 15 15.6478 15 15.25V9.25" stroke="black" stroke-linecap="round" stroke-linejoin="round"/>
<path d="M9 5.125C9 4.42881 8.72344 3.76113 8.23116 3.26884C7.73887 2.77656 7.07119 2.5 6.375 2.5C5.87772 2.5 5.40081 2.69754 5.04917 3.04917C4.69754 3.40081 4.5 3.87772 4.5 4.375C4.5 4.87228 4.69754 5.34919 5.04917 5.70083C5.40081 6.05246 5.87772 6.25 6.375 6.25H9M9 5.125V6.25M9 5.125C9 4.42881 9.27656 3.76113 9.76884 3.26884C10.2611 2.77656 10.9288 2.5 11.625 2.5C12.1223 2.5 12.5992 2.69754 12.9508 3.04917C13.3025 3.40081 13.5 3.87772 13.5 4.375C13.5 4.62123 13.4515 4.86505 13.3573 5.09253C13.263 5.32002 13.1249 5.52672 12.9508 5.70083C12.7767 5.87494 12.57 6.01305 12.3425 6.10727C12.115 6.2015 11.8712 6.25 11.625 6.25H9" stroke="black" stroke-linejoin="round"/>
<path d="M9 9.25V16.75M2.25 6.25H15.75V9.25H2.25V6.25Z" stroke="black" stroke-linecap="round" stroke-linejoin="round"/>
</g>
</g>
<defs>
<clipPath id="clip0_3299_7367">
<rect width="18" height="18" fill="white"/>
</clipPath>
<clipPath id="clip1_3299_7367">
<rect width="18" height="18" fill="white"/>
</clipPath>
</defs>
</svg>
