<svg width="16" height="16" viewBox="0 0 16 16" fill="none" xmlns="http://www.w3.org/2000/svg">
<path d="M6.67157 1.4026C6.21921 1.25629 5.72953 1.27591 5.29032 1.45794C4.85112 1.63998 4.49113 1.97252 4.2749 2.39593L3.73757 3.4466C3.67372 3.57169 3.57199 3.67341 3.4469 3.73727L2.39557 4.2746C1.97215 4.49083 1.63961 4.85082 1.45758 5.29002C1.27555 5.72922 1.25593 6.21891 1.40224 6.67127L1.76624 7.7946C1.80945 7.92808 1.80945 8.07179 1.76624 8.20527L1.4029 9.3286C1.25659 9.78096 1.27621 10.2706 1.45825 10.7098C1.64028 11.149 1.97282 11.509 2.39624 11.7253L3.4469 12.2626C3.57199 12.3265 3.67372 12.4282 3.73757 12.5533L4.2749 13.6046C4.49113 14.028 4.85112 14.3606 5.29032 14.5426C5.72953 14.7246 6.21921 14.7442 6.67157 14.5979L7.7949 14.2339C7.92838 14.1907 8.07209 14.1907 8.20557 14.2339L9.3289 14.5973C9.78118 14.7436 10.2708 14.7241 10.71 14.5422C11.1492 14.3603 11.5092 14.0279 11.7256 13.6046L12.2629 12.5533C12.3268 12.4282 12.4285 12.3265 12.5536 12.2626L13.6049 11.7259C14.0285 11.5097 14.3611 11.1496 14.5432 10.7102C14.7252 10.2709 14.7447 9.78105 14.5982 9.3286L14.2342 8.20527C14.191 8.07179 14.191 7.92808 14.2342 7.7946L14.5976 6.67127C14.7439 6.21899 14.7244 5.72936 14.5425 5.29017C14.3606 4.85097 14.0282 4.49094 13.6049 4.2746L12.5536 3.73727C12.4285 3.67341 12.3268 3.57169 12.2629 3.4466L11.7262 2.39527C11.51 1.9717 11.1499 1.63906 10.7105 1.45702C10.2712 1.27497 9.78135 1.25544 9.3289 1.40193L8.20557 1.76593C8.07209 1.80915 7.92838 1.80915 7.7949 1.76593L6.67157 1.4026ZM4.5069 7.83793L5.44957 6.89527L7.3349 8.78127L11.1062 5.00993L12.0496 5.9526L7.3349 10.6659L4.5069 7.83793Z" fill="#4CAF50"/>
</svg>
