<svg width="259" height="259" viewBox="0 0 259 259" fill="none" xmlns="http://www.w3.org/2000/svg">
<path fill-rule="evenodd" clip-rule="evenodd" d="M253.169 129.168L253.188 130.409L253.243 131.65L253.335 132.895L253.462 134.143L253.624 135.396L253.817 136.656L254.04 137.924L254.29 139.2L254.564 140.485L254.859 141.78L255.171 143.085L255.495 144.401L255.827 145.727L256.161 147.064L256.492 148.411L256.815 149.768L257.124 151.133L257.412 152.505L257.672 153.882L257.899 155.263L258.085 156.646L258.225 158.028L258.311 159.406L258.338 160.778L258.3 162.141L258.191 163.491L258.007 164.825L257.743 166.14L257.395 167.433L256.962 168.699L256.441 169.937L255.831 171.143L255.132 172.314L254.345 173.448L253.472 174.543L252.517 175.597L251.482 176.609L250.372 177.579L249.194 178.505L247.951 179.389L246.653 180.23L245.304 181.031L243.913 181.793L242.488 182.517L241.035 183.206L239.564 183.863L238.08 184.492L236.593 185.095L235.109 185.676L233.636 186.239L232.18 186.789L230.748 187.329L229.345 187.863L227.978 188.398L226.652 188.936L225.371 189.482L224.14 190.042L222.964 190.62L221.847 191.221L220.792 191.851L219.802 192.514L218.881 193.215L218.033 193.96L217.26 194.756L216.565 195.607L215.952 196.521L215.423 197.503L214.982 198.562L214.633 199.705L214.379 200.94L214.224 202.276L214.174 203.723L214.232 205.293L214.406 206.998L214.702 208.851L215.127 210.867L215.69 213.065L216.401 215.464L215.665 216.464L213.249 215.74L211.036 215.166L209.006 214.73L207.14 214.425L205.424 214.241L203.844 214.174L202.387 214.216L201.043 214.362L199.8 214.608L198.651 214.95L197.586 215.384L196.597 215.906L195.678 216.513L194.822 217.201L194.023 217.968L193.273 218.811L192.569 219.725L191.903 220.71L191.271 221.76L190.668 222.873L190.088 224.044L189.527 225.27L188.979 226.547L188.441 227.87L187.907 229.234L187.372 230.634L186.833 232.065L186.284 233.519L185.722 234.991L185.142 236.474L184.541 237.961L183.915 239.445L183.26 240.918L182.573 242.372L181.852 243.8L181.094 245.194L180.296 246.546L179.458 247.849L178.578 249.096L177.655 250.28L176.689 251.396L175.68 252.437L174.629 253.399L173.537 254.278L172.406 255.072L171.238 255.778L170.035 256.395L168.8 256.923L167.535 257.363L166.245 257.718L164.931 257.988L163.599 258.179L162.25 258.293L160.888 258.337L159.516 258.315L158.138 258.233L156.757 258.098L155.374 257.915L153.993 257.691L152.615 257.433L151.242 257.147L149.877 256.84L148.52 256.518L147.172 256.187L145.834 255.852L144.507 255.52L143.19 255.196L141.884 254.883L140.588 254.586L139.302 254.31L138.026 254.058L136.758 253.833L135.497 253.637L134.243 253.473L132.994 253.343L131.75 253.249L130.508 253.19L129.268 253.169L128.028 253.184L126.786 253.237L125.542 253.326L124.294 253.45L123.041 253.609L121.782 253.8L120.515 254.02L119.24 254.269L117.956 254.541L116.662 254.834L115.357 255.145L114.042 255.468L112.716 255.799L111.38 256.134L110.034 256.466L108.678 256.789L107.314 257.099L105.942 257.389L104.565 257.652L103.184 257.881L101.802 258.071L100.42 258.215L99.0409 258.306L97.6682 258.338L96.3047 258.305L94.9534 258.202L93.6178 258.024L92.3011 257.766L91.0068 257.425L89.738 256.999L88.498 256.485L87.2896 255.882L86.1157 255.19L84.9787 254.41L83.8806 253.544L82.8231 252.595L81.8075 251.566L80.8346 250.463L79.9047 249.289L79.0176 248.052L78.1726 246.757L77.3687 245.413L76.6042 244.025L75.8772 242.602L75.1853 241.151L74.5256 239.681L73.895 238.198L73.2901 236.711L72.7074 235.227L72.1428 233.752L71.5923 232.295L71.0518 230.86L70.5167 229.455L69.9827 228.085L69.4451 226.755L68.8994 225.47L68.3407 224.236L67.7642 223.055L67.165 221.933L66.538 220.873L65.8782 219.878L65.1801 218.951L64.4383 218.097L63.647 217.318L62.8003 216.617L61.8919 215.997L60.9151 215.461L59.8627 215.013L58.7271 214.657L57.4999 214.395L56.1722 214.232L54.7339 214.173L53.1742 214.223L51.4808 214.388L49.6403 214.673L47.6373 215.088L45.4547 215.639L43.0729 216.338L41.8096 215.866L42.5453 213.433L43.1311 211.205L43.5774 209.16L43.8931 207.283L44.0859 205.555L44.1626 203.965L44.1291 202.499L43.9908 201.145L43.7523 199.895L43.4179 198.738L42.9914 197.667L42.4765 196.673L41.8764 195.748L41.1944 194.888L40.4335 194.084L39.5969 193.331L38.6875 192.622L37.7087 191.954L36.6636 191.32L35.5558 190.714L34.3889 190.133L33.1668 189.57L31.8937 189.022L30.5742 188.483L29.2132 187.948L27.8159 187.414L26.3879 186.875L24.9353 186.327L23.4643 185.767L21.9818 185.189L20.4947 184.589L19.0103 183.965L17.5362 183.313L16.0802 182.629L14.6498 181.91L13.253 181.155L11.8972 180.361L10.59 179.526L9.33841 178.649L8.14909 177.729L7.02816 176.766L5.98108 175.761L5.01256 174.713L4.12652 173.625L3.32597 172.497L2.61301 171.332L1.98876 170.131L1.45338 168.899L1.00608 167.636L0.645151 166.348L0.367987 165.036L0.171188 163.705L0.0506168 162.357L0.00149431 160.996L0.0184935 159.625L0.0958404 158.248L0.227416 156.866L0.406855 155.483L0.627646 154.102L0.883215 152.724L1.16702 151.351L1.47261 149.985L1.79371 148.627L2.12427 147.278L2.45851 145.94L2.79095 144.611L3.11649 143.294L3.43035 141.987L3.72818 140.69L4.00602 139.404L4.26029 138.126L4.48787 136.858L4.68601 135.597L4.8524 134.342L4.98515 133.093L5.08276 131.848L5.14415 130.606L5.16864 129.366L5.15597 128.126L5.10628 126.885L5.02011 125.641L4.89842 124.393L4.74255 123.141L4.55429 121.882L4.33582 120.616L4.08973 119.341L3.81903 118.058L3.52716 116.764L3.21794 115.461L2.89563 114.146L2.56485 112.822L2.2306 111.486L1.89826 110.141L1.5735 108.786L1.2623 107.422L0.970861 106.051L0.705591 104.674L0.473009 103.294L0.279687 101.911L0.132165 100.529L0.036867 99.1499L0 97.7766L0.0274592 96.4122L0.124725 95.0598L0.296762 93.7229L0.547921 92.4046L0.881849 91.1083L1.30141 89.8374L1.80859 88.5949L2.40451 87.384L3.08929 86.2072L3.86212 85.0672L4.72122 83.9659L5.66384 82.9052L6.68638 81.8862L7.78435 80.9099L8.95251 79.9765L10.185 79.086L11.4752 78.2377L12.8163 77.4306L14.2009 76.6631L15.6214 75.9332L17.0701 75.2385L18.5393 74.5763L20.0212 73.9436L21.5082 73.3368L22.993 72.7524L24.4684 72.1865L25.9276 71.6351L27.3641 71.0939L28.7718 70.5585L30.145 70.0246L31.4782 69.4875L32.7666 68.9426L34.0054 68.3851L35.1903 67.8102L36.3174 67.213L37.3828 66.5885L38.3831 65.9314L39.3149 65.2366L40.1751 64.4984L40.9604 63.7113L41.6679 62.8693L42.2944 61.966L42.8368 60.9949L43.2919 59.9488L43.656 58.8201L43.9255 57.6005L44.0962 56.2811L44.1636 54.8521L44.1226 53.3025L43.9675 51.6202L43.6918 49.792L43.288 47.8025L42.7476 45.6349L42.0609 43.2697L42.2688 41.7436L44.7187 42.4917L46.9625 43.089L49.0207 43.5461L50.9112 43.8719L52.6499 44.0742L54.2508 44.1599L55.7265 44.1351L57.0883 44.0049L58.3465 43.7742L59.5104 43.4473L60.5884 43.028L61.5885 42.52L62.518 41.9266L63.3836 41.2509L64.1919 40.4962L64.9488 39.6655L65.6602 38.7619L66.3317 37.7885L66.9686 36.7485L67.576 35.6456L68.1592 34.4832L68.7231 33.2653L69.2724 31.9962L69.8121 30.6802L70.3467 29.3223L70.8809 27.9277L71.4193 26.502L71.9661 25.051L72.5257 23.5813L73.1023 22.0994L73.6997 20.6124L74.3217 19.1276L74.9718 17.6524L75.6531 16.1946L76.3687 14.7619L77.121 13.3621L77.9121 12.0028L78.7439 10.6915L79.6175 9.43522L80.5337 8.24072L81.493 7.11413L82.495 6.06098L83.5393 5.08606L84.6246 4.19332L85.7494 3.38588L86.9118 2.66589L88.1095 2.03455L89.3397 1.49211L90.5997 1.03786L91.8863 0.67013L93.1962 0.38641L94.5261 0.183353L95.8728 0.0568792L97.2327 0.00225572L98.6029 0.0141958L99.98 0.0869574L101.361 0.214445L102.744 0.39031L104.126 0.608048L105.504 0.861089L106.878 1.14288L108.244 1.44697L109.603 1.76706L110.952 2.09708L112.292 2.43123L113.621 2.76401L114.939 3.09028L116.247 3.40524L117.545 3.70449L118.832 3.98406L120.11 4.24033L121.379 4.47013L122.641 4.67071L123.896 4.83971L125.145 4.9752L126.39 5.07565L127.632 5.13995L128.873 5.1674L130.113 5.15769L131.354 5.11093L132.598 5.02764L133.845 4.90873L135.097 4.75553L136.355 4.56977L137.621 4.35361L138.895 4.10961L140.177 3.84076L141.47 3.55043L142.773 3.24245L144.086 2.92102L145.41 2.59073L146.745 2.25657L148.089 1.92387L149.444 1.59829L150.807 1.28578L152.177 0.992541L153.553 0.72495L154.934 0.489524L156.316 0.292835L157.699 0.141429L159.078 0.0417408L160.452 0L161.817 0.0221298L163.171 0.113647L164.509 0.279562L165.829 0.524276L167.127 0.851498L168.4 1.26415L169.645 1.76431L170.858 2.35314L172.038 3.03086L173.181 3.79674L174.285 4.64905L175.349 5.58514L176.372 6.60147L177.352 7.69361L178.288 8.85639L179.182 10.084L180.034 11.3699L180.844 12.7071L181.615 14.0885L182.348 15.5065L183.045 16.9532L183.71 18.4211L184.345 19.9022L184.953 21.3891L185.539 22.8744L186.107 24.3508L186.659 25.8115L187.201 27.25L187.736 28.6602L188.27 30.0363L188.807 31.373L189.351 32.6651L189.908 33.908L190.481 35.0974L191.076 36.2292L191.698 37.2997L192.353 38.3053L193.044 39.2427L193.779 40.1086L194.562 40.9L195.399 41.6138L196.297 42.2469L197.263 42.7962L198.303 43.2583L199.424 43.6298L200.636 43.907L201.947 44.0857L203.367 44.1615L204.907 44.1293L206.578 43.9835L208.394 43.7176L210.37 43.3243L212.523 42.7952L214.872 42.1205L216.66 42.0635L215.9 44.5308L215.291 46.7902L214.823 48.8625L214.487 50.7658L214.275 52.516L214.18 54.1274L214.197 55.6127L214.319 56.9832L214.541 58.2493L214.861 59.4203L215.273 60.5049L215.774 61.5109L216.361 62.4457L217.03 63.3162L217.778 64.1288L218.603 64.8896L219.501 65.6045L220.469 66.2789L221.504 66.9183L222.602 67.528L223.76 68.1129L224.973 68.6781L226.239 69.2284L227.551 69.7687L228.906 70.3035L230.298 70.8376L231.721 71.3755L233.17 71.9215L234.639 72.48L236.12 73.055L237.607 73.6506L239.092 74.2705L240.568 74.9182L242.028 75.597L243.463 76.3098L244.865 77.059L246.228 77.847L247.544 78.6755L248.804 79.5457L250.004 80.4585L251.136 81.4144L252.196 82.413L253.177 83.4539L254.076 84.536L254.891 85.6578L255.618 86.8173L256.256 88.0122L256.806 89.24L257.267 90.4977L257.641 91.7823L257.932 93.0904L258.141 94.4189L258.273 95.7643L258.333 97.1234L258.327 98.4928L258.258 99.8695L258.135 101.251L257.963 102.633L257.748 104.015L257.498 105.394L257.218 106.768L256.915 108.135L256.596 109.494L256.267 110.845L255.933 112.185L255.6 113.515L255.273 114.834L254.957 116.143L254.656 117.441L254.375 118.729L254.117 120.008L253.885 121.278L253.682 122.54L253.51 123.795L253.372 125.045L253.269 126.291L253.201 127.533L253.171 128.773L253.169 129.168Z" fill="#FF7701"/>
</svg>
