<svg width="13" height="12" viewBox="0 0 13 12" fill="none" xmlns="http://www.w3.org/2000/svg">
<path d="M5.50331 1.05195C5.16404 0.942217 4.79678 0.956933 4.46738 1.09346C4.13797 1.22998 3.86798 1.47939 3.70581 1.79695L3.30281 2.58495C3.25492 2.67876 3.17863 2.75506 3.08481 2.80295L2.29631 3.20595C1.97875 3.36812 1.72934 3.63811 1.59282 3.96752C1.45629 4.29692 1.44158 4.66418 1.55131 5.00345L1.82431 5.84595C1.85672 5.94606 1.85672 6.05384 1.82431 6.15395L1.55181 6.99645C1.44208 7.33572 1.45679 7.70298 1.59332 8.03238C1.72984 8.36179 1.97925 8.63178 2.29681 8.79395L3.08481 9.19695C3.17863 9.24484 3.25492 9.32113 3.30281 9.41495L3.70581 10.2034C3.86798 10.521 4.13797 10.7704 4.46738 10.9069C4.79678 11.0435 5.16404 11.0582 5.50331 10.9484L6.34581 10.6754C6.44592 10.643 6.5537 10.643 6.65381 10.6754L7.49631 10.9479C7.83552 11.0577 8.20274 11.0431 8.53214 10.9066C8.86153 10.7702 9.13156 10.5209 9.29381 10.2034L9.69681 9.41495C9.7447 9.32113 9.821 9.24484 9.91481 9.19695L10.7033 8.79445C11.021 8.63227 11.2705 8.36219 11.407 8.03268C11.5435 7.70317 11.5582 7.33578 11.4483 6.99645L11.1753 6.15395C11.1429 6.05384 11.1429 5.94606 11.1753 5.84595L11.4478 5.00345C11.5576 4.66424 11.5429 4.29702 11.4065 3.96763C11.2701 3.63823 11.0208 3.3682 10.7033 3.20595L9.91481 2.80295C9.821 2.75506 9.7447 2.67876 9.69681 2.58495L9.29431 1.79645C9.13213 1.47878 8.86205 1.2293 8.53254 1.09276C8.20303 0.95623 7.83565 0.941583 7.49631 1.05145L6.65381 1.32445C6.5537 1.35686 6.44592 1.35686 6.34581 1.32445L5.50331 1.05195ZM3.87981 5.87845L4.58681 5.17145L6.00081 6.58595L8.82931 3.75745L9.53681 4.46445L6.00081 7.99945L3.87981 5.87845Z" fill="white"/>
</svg>
