<svg width="16" height="26" viewBox="0 0 16 26" fill="none" xmlns="http://www.w3.org/2000/svg">
<path d="M4.13804 1.21714L14.3939 11.5939C14.6206 11.8188 14.8005 12.0863 14.9233 12.3811C15.0462 12.6758 15.1094 12.992 15.1094 13.3113C15.1094 13.6306 15.0462 13.9468 14.9233 14.2415C14.8005 14.5363 14.6206 14.8038 14.3939 15.0287L4.13804 25.2845C3.91318 25.5112 3.64565 25.6912 3.3509 25.814C3.05614 25.9368 2.73998 26 2.42067 26C2.10135 26 1.7852 25.9368 1.49044 25.814C1.19569 25.6912 0.92816 25.5112 0.703298 25.2845C0.252789 24.8313 -8.01086e-05 24.2183 -8.01086e-05 23.5792C-8.01086e-05 22.9402 0.252789 22.3272 0.703298 21.874L9.26596 13.3113L0.703298 4.74864C0.256433 4.2981 0.00450897 3.69001 0.00183678 3.05545C-3.8147e-06 2.73712 0.0610104 2.42155 0.181382 2.12685C0.301755 1.83214 0.479117 1.5641 0.703298 1.33808C0.920069 1.10327 1.18122 0.91375 1.47166 0.780455C1.76211 0.647161 2.07608 0.572742 2.39545 0.561497C2.71482 0.550251 3.03326 0.602404 3.33236 0.714939C3.63146 0.827475 3.90529 0.998163 4.13804 1.21714Z" fill="#FF9941"/>
</svg>
