<svg width="8" height="12" viewBox="0 0 8 12" fill="none" xmlns="http://www.w3.org/2000/svg">
<path d="M5.55148 0.329329L0.818017 5.11862C0.71338 5.2224 0.630328 5.34587 0.573651 5.48192C0.516974 5.61796 0.487793 5.76388 0.487793 5.91125C0.487793 6.05863 0.516974 6.20454 0.573651 6.34059C0.630328 6.47663 0.71338 6.6001 0.818017 6.70388L5.55148 11.4374C5.65527 11.542 5.77874 11.625 5.91478 11.6817C6.05082 11.7384 6.19674 11.7676 6.34412 11.7676C6.49149 11.7676 6.63741 11.7384 6.77345 11.6817C6.90949 11.625 7.03297 11.542 7.13675 11.4374C7.34467 11.2282 7.46138 10.9452 7.46138 10.6503C7.46138 10.3554 7.34467 10.0724 7.13675 9.86325L3.18475 5.91125L7.13675 1.95925C7.34299 1.75131 7.45927 1.47065 7.4605 1.17778C7.46135 1.03086 7.43319 0.885211 7.37763 0.749193C7.32207 0.613176 7.24022 0.489463 7.13675 0.385147C7.0367 0.276774 6.91617 0.189301 6.78212 0.127781C6.64807 0.0662613 6.50315 0.0319128 6.35575 0.0267229C6.20835 0.021533 6.06138 0.0456028 5.92334 0.0975428C5.78529 0.149482 5.65891 0.228261 5.55148 0.329329Z" fill="#8B3E00"/>
</svg>
