<svg width="8" height="12" viewBox="0 0 8 12" fill="none" xmlns="http://www.w3.org/2000/svg">
<path d="M2.44852 0.329329L7.18198 5.11862C7.28662 5.2224 7.36967 5.34587 7.42635 5.48192C7.48303 5.61796 7.51221 5.76388 7.51221 5.91125C7.51221 6.05863 7.48303 6.20454 7.42635 6.34059C7.36967 6.47663 7.28662 6.6001 7.18198 6.70388L2.44852 11.4374C2.34473 11.542 2.22126 11.625 2.08522 11.6817C1.94918 11.7384 1.80326 11.7676 1.65588 11.7676C1.50851 11.7676 1.36259 11.7384 1.22655 11.6817C1.09051 11.625 0.967035 11.542 0.863253 11.4374C0.655325 11.2282 0.538617 10.9452 0.538617 10.6503C0.538617 10.3554 0.655325 10.0724 0.863253 9.86325L4.81525 5.91125L0.863253 1.95925C0.657007 1.75131 0.540735 1.47065 0.539502 1.17778C0.538652 1.03086 0.566813 0.885211 0.622369 0.749193C0.677925 0.613176 0.759785 0.489463 0.863253 0.385147C0.963301 0.276774 1.08383 0.189301 1.21788 0.127781C1.35193 0.0662613 1.49685 0.0319128 1.64425 0.0267229C1.79165 0.021533 1.93862 0.0456028 2.07666 0.0975428C2.21471 0.149482 2.34109 0.228261 2.44852 0.329329Z" fill="#8B3E00"/>
</svg>
