<svg width="18" height="19" viewBox="0 0 18 19" fill="none" xmlns="http://www.w3.org/2000/svg">
<g clip-path="url(#clip0_8559_6963)">
<path d="M15 5.75H12V4.25L10.5 2.75H7.5L6 4.25V5.75H3C2.175 5.75 1.5 6.425 1.5 7.25V11C1.5 11.5625 1.8 12.035 2.25 12.2975V14.75C2.25 15.5825 2.9175 16.25 3.75 16.25H14.25C15.0825 16.25 15.75 15.5825 15.75 14.75V12.29C16.1925 12.0275 16.5 11.5475 16.5 11V7.25C16.5 6.425 15.825 5.75 15 5.75ZM7.5 4.25H10.5V5.75H7.5V4.25ZM3 7.25H15V11H11.25V8.75H6.75V11H3V7.25ZM9.75 11.75H8.25V10.25H9.75V11.75ZM14.25 14.75H3.75V12.5H6.75V13.25H11.25V12.5H14.25V14.75Z" fill="black"/>
</g>
<defs>
<clipPath id="clip0_8559_6963">
<rect width="18" height="18" fill="white" transform="translate(0 0.5)"/>
</clipPath>
</defs>
</svg>
