<svg width="31" height="30" viewBox="0 0 31 30" fill="none" xmlns="http://www.w3.org/2000/svg">
<path d="M25.0625 6.5625H21.8141L20.2168 4.16719C20.1312 4.03893 20.0153 3.93375 19.8794 3.86098C19.7435 3.78821 19.5917 3.75009 19.4375 3.75H11.9375C11.7833 3.75009 11.6315 3.78821 11.4956 3.86098C11.3597 3.93375 11.2438 4.03893 11.1582 4.16719L9.55977 6.5625H6.3125C5.56658 6.5625 4.85121 6.85882 4.32376 7.38626C3.79632 7.91371 3.5 8.62908 3.5 9.375V22.5C3.5 23.2459 3.79632 23.9613 4.32376 24.4887C4.85121 25.0162 5.56658 25.3125 6.3125 25.3125H25.0625C25.8084 25.3125 26.5238 25.0162 27.0512 24.4887C27.5787 23.9613 27.875 23.2459 27.875 22.5V9.375C27.875 8.62908 27.5787 7.91371 27.0512 7.38626C26.5238 6.85882 25.8084 6.5625 25.0625 6.5625ZM26 22.5C26 22.7486 25.9012 22.9871 25.7254 23.1629C25.5496 23.3387 25.3111 23.4375 25.0625 23.4375H6.3125C6.06386 23.4375 5.8254 23.3387 5.64959 23.1629C5.47377 22.9871 5.375 22.7486 5.375 22.5V9.375C5.375 9.12636 5.47377 8.8879 5.64959 8.71209C5.8254 8.53627 6.06386 8.4375 6.3125 8.4375H10.0625C10.2169 8.4376 10.3689 8.39957 10.5051 8.32679C10.6412 8.25401 10.7573 8.14874 10.843 8.02031L12.4391 5.625H18.9348L20.532 8.02031C20.6177 8.14874 20.7338 8.25401 20.8699 8.32679C21.0061 8.39957 21.1581 8.4376 21.3125 8.4375H25.0625C25.3111 8.4375 25.5496 8.53627 25.7254 8.71209C25.9012 8.8879 26 9.12636 26 9.375V22.5ZM15.6875 10.3125C14.6677 10.3125 13.6708 10.6149 12.8228 11.1815C11.9749 11.7481 11.314 12.5534 10.9237 13.4955C10.5335 14.4377 10.4314 15.4745 10.6303 16.4747C10.8293 17.4749 11.3204 18.3937 12.0415 19.1148C12.7626 19.8359 13.6814 20.327 14.6816 20.5259C15.6818 20.7249 16.7185 20.6228 17.6607 20.2325C18.6029 19.8422 19.4082 19.1813 19.9748 18.3334C20.5413 17.4855 20.8438 16.4886 20.8438 15.4688C20.8422 14.1017 20.2985 12.7911 19.3318 11.8244C18.3652 10.8578 17.0545 10.3141 15.6875 10.3125ZM15.6875 18.75C15.0385 18.75 14.4041 18.5576 13.8645 18.197C13.3249 17.8365 12.9044 17.324 12.656 16.7244C12.4077 16.1249 12.3427 15.4651 12.4693 14.8286C12.5959 14.1921 12.9084 13.6074 13.3673 13.1486C13.8262 12.6897 14.4109 12.3772 15.0474 12.2505C15.6839 12.1239 16.3436 12.1889 16.9432 12.4373C17.5427 12.6856 18.0552 13.1062 18.4158 13.6458C18.7763 14.1854 18.9688 14.8198 18.9688 15.4688C18.9688 16.339 18.623 17.1736 18.0077 17.7889C17.3923 18.4043 16.5577 18.75 15.6875 18.75Z" fill="black"/>
</svg>
