<svg width="55" height="50" viewBox="0 0 55 50" fill="none" xmlns="http://www.w3.org/2000/svg">
<path d="M45.6998 32.4847C46.6478 30.1826 47.1623 27.7181 47.1623 25.0097C47.1623 23.0597 46.8644 21.191 46.3498 19.4576C44.5894 19.8639 42.7478 20.0806 40.8248 20.0806C36.8868 20.0848 33.0056 19.1422 29.5081 17.3322C26.0107 15.5222 22.9998 12.8979 20.729 9.68057C18.2999 15.5581 13.7175 20.2859 7.91859 22.8972C7.81025 23.5743 7.81025 24.3056 7.81025 25.0097C7.81025 27.5954 8.31954 30.1558 9.30903 32.5446C10.2985 34.9335 11.7489 37.104 13.5772 38.9324C17.2697 42.6249 22.2778 44.6993 27.4998 44.6993C30.3436 44.6993 33.079 44.0764 35.5436 42.966C37.0873 45.9181 37.7915 47.3806 37.7373 47.3806C33.2957 48.8701 29.8561 49.6014 27.4998 49.6014C20.9457 49.6014 14.6894 47.0285 10.0853 42.3972C7.28483 39.6054 5.20313 36.1762 4.01859 32.4035H0.416504V20.0806H3.36859C4.26299 15.727 6.3193 11.6967 9.31931 8.41738C12.3193 5.13808 16.1511 2.73209 20.4081 1.4547C24.6652 0.177321 29.1886 0.0761982 33.4984 1.16206C37.8083 2.24793 41.7438 4.48028 44.8873 7.62223C48.3004 11.0219 50.6285 15.3575 51.5769 20.0806H54.5832V32.4035H54.4207L44.779 41.2597L30.4248 39.6347V35.1118H43.5061L45.6998 32.4847ZM20.1061 24.3868C20.9186 24.3868 21.704 24.7118 22.2728 25.3076C22.8443 25.8839 23.1651 26.6627 23.1651 27.4743C23.1651 28.286 22.8443 29.0647 22.2728 29.641C21.704 30.2097 20.9186 30.5347 20.1061 30.5347C18.3998 30.5347 17.0186 29.1806 17.0186 27.4743C17.0186 25.7681 18.3998 24.3868 20.1061 24.3868ZM34.8665 24.3868C36.5728 24.3868 37.9269 25.7681 37.9269 27.4743C37.9269 29.1806 36.5728 30.5347 34.8665 30.5347C33.1603 30.5347 31.779 29.1806 31.779 27.4743C31.779 26.6555 32.1043 25.8701 32.6833 25.2911C33.2623 24.7121 34.0476 24.3868 34.8665 24.3868Z" fill="#8B3E00"/>
</svg>
