<svg width="24" height="24" viewBox="0 0 24 24" fill="none" xmlns="http://www.w3.org/2000/svg">
<g clip-path="url(#clip0_5012_8950)">
<path opacity="0.921" fill-rule="evenodd" clip-rule="evenodd" d="M9.02352 -0.0234375C9.52353 -0.0234375 10.0235 -0.0234375 10.5235 -0.0234375C10.9989 0.0419357 11.4755 0.135686 11.9532 0.257812C12.4479 0.141616 12.9401 0.0478664 13.4298 -0.0234375C13.9298 -0.0234375 14.4298 -0.0234375 14.9298 -0.0234375C15.3035 0.0775898 15.6785 0.194777 16.0548 0.328125C16.2318 0.466627 16.2865 0.646312 16.2188 0.867188C16.1058 1.0215 15.9573 1.07619 15.7735 1.03125C14.8179 0.658664 13.8335 0.596166 12.8204 0.84375C12.6537 0.871763 12.4896 0.910828 12.3282 0.960938C12.2839 0.979941 12.2526 1.01119 12.2345 1.05469C12.168 1.28571 12.1524 1.52009 12.1876 1.75781C12.3468 2.09186 12.5187 2.41998 12.7032 2.74219C12.9527 3.52727 12.8824 4.28508 12.4923 5.01562C13.8679 5.51222 15.032 6.31687 15.9845 7.42969C16.3197 7.81903 16.6322 8.2253 16.922 8.64844C17.11 8.27217 17.3443 7.92844 17.6251 7.61719C18.1414 7.10873 18.6492 6.59311 19.1485 6.07031C19.0092 5.86219 18.8529 5.66686 18.6798 5.48438C17.9399 4.94766 17.2133 4.39297 16.5001 3.82031C16.3985 3.35938 16.5782 3.17969 17.0391 3.28125C17.669 3.7408 18.2862 4.21736 18.8907 4.71094C19.0503 3.72118 18.7456 2.90086 17.9766 2.25C17.6759 2.04884 17.3713 1.85353 17.0626 1.66406C16.891 1.18689 17.0551 0.99158 17.5548 1.07812C19.2902 1.96304 19.962 3.36148 19.5704 5.27344C19.5961 5.36981 19.6507 5.44795 19.7345 5.50781C20.9298 4.3125 22.1251 3.11719 23.3204 1.92188C23.5617 1.75307 23.7804 1.77651 23.9766 1.99219C23.9766 2.11719 23.9766 2.24219 23.9766 2.36719C21.9795 4.38774 19.9717 6.40336 17.9532 8.41406C17.7319 8.73169 17.56 9.07542 17.4376 9.44531C17.3578 10.0372 17.2953 10.631 17.2501 11.2266C17.0856 11.4194 16.8903 11.4584 16.6641 11.3438C16.5983 11.2511 16.5514 11.1495 16.5235 11.0391C16.579 10.5247 16.6024 10.0091 16.5938 9.49219C15.7933 8.22291 14.7699 7.16822 13.5235 6.32812C13.0369 6.05644 12.5291 5.82989 12.0001 5.64844C10.671 6.13331 9.53038 6.89892 8.57821 7.94531C8.13603 8.44987 7.72977 8.98111 7.35946 9.53906C7.43577 11.0221 7.48264 12.5065 7.50008 13.9922C7.36096 14.5291 7.04066 14.9119 6.53914 15.1406C6.81256 15.414 7.08603 15.6875 7.35946 15.9609C7.49225 16.4531 7.31258 16.6328 6.82039 16.5C6.3126 15.9922 5.80475 15.4844 5.29696 14.9766C5.25008 14.8828 5.20321 14.7891 5.15633 14.6953C5.036 13.1968 4.95791 11.6968 4.92196 10.1953C5.08644 10.0025 5.28177 9.96347 5.50789 10.0781C5.57319 10.133 5.61228 10.2033 5.62508 10.2891C5.7156 11.6953 5.80156 13.1015 5.88289 14.5078C6.2983 14.4838 6.58738 14.2807 6.75008 13.8984C6.74427 12.6162 6.69739 11.3349 6.60946 10.0547C6.57285 9.4448 6.36974 8.89795 6.00008 8.41406C4.89069 7.30467 3.78133 6.19533 2.67196 5.08594C2.45594 4.61966 2.60438 4.40872 3.11727 4.45312C3.49867 4.78758 3.86585 5.13914 4.21883 5.50781C4.30254 5.44795 4.35722 5.36981 4.38289 5.27344C4.01565 3.75791 4.43752 2.51573 5.64852 1.54688C6.68774 0.831863 7.81274 0.308423 9.02352 -0.0234375ZM9.53914 0.679688C10.186 0.70065 10.8266 0.778777 11.461 0.914062C11.3567 1.43313 11.4114 1.93313 11.6251 2.41406C11.8937 2.76338 12.0577 3.154 12.1173 3.58594C12.065 4.04751 11.9322 4.48501 11.7188 4.89844C9.77511 5.66775 8.21258 6.91777 7.03133 8.64844C6.84331 8.27217 6.60894 7.92844 6.32821 7.61719C5.81192 7.10873 5.30408 6.59311 4.80477 6.07031C4.92158 5.84508 5.07782 5.64975 5.27352 5.48438C6.01339 4.94766 6.73996 4.39297 7.45321 3.82031C7.55478 3.35938 7.37506 3.17969 6.91414 3.28125C6.28428 3.7408 5.66708 4.21736 5.06258 4.71094C4.89303 3.57337 5.29147 2.69056 6.25789 2.0625C7.02838 1.54447 7.85647 1.13823 8.74227 0.84375C9.01082 0.770255 9.27646 0.715566 9.53914 0.679688Z" fill="#8B3E00"/>
<path opacity="0.883" fill-rule="evenodd" clip-rule="evenodd" d="M-0.0234375 2.36898C-0.0234375 2.24398 -0.0234375 2.11898 -0.0234375 1.99398C0.172792 1.7783 0.391542 1.75486 0.632812 1.92367C1.09375 2.38461 1.55469 2.84555 2.01562 3.30648C2.26365 3.73645 2.14646 3.96301 1.66406 3.98617C1.06258 3.48622 0.500081 2.94716 -0.0234375 2.36898Z" fill="#8B3E00"/>
<path opacity="0.928" fill-rule="evenodd" clip-rule="evenodd" d="M23.9766 8.08683C23.9766 8.21185 23.9766 8.33682 23.9766 8.46183C23.2139 9.24802 22.4404 10.0292 21.6562 10.8056C21.625 10.8681 21.5938 10.9306 21.5625 10.9931C21.3732 12.1929 21.2014 13.3961 21.0469 14.6025C20.9557 14.9099 20.815 15.1911 20.625 15.4462C19.4141 16.6571 18.2031 17.8681 16.9922 19.079C16.423 19.4371 15.8761 19.4058 15.3516 18.9853C15.2078 18.8307 15.1063 18.651 15.0469 18.4462C14.8992 18.5825 14.7429 18.7075 14.5781 18.8212C14.5469 19.3056 14.5469 19.79 14.5781 20.2743C14.664 20.7353 14.9375 21.0087 15.3984 21.0946C16.5399 21.2771 17.6805 21.4646 18.8203 21.6571C19.8953 21.9354 20.6297 22.5917 21.0234 23.6259C20.9988 23.7648 20.9363 23.882 20.8359 23.9775C20.6953 23.9775 20.5547 23.9775 20.4141 23.9775C20.0522 23.1078 19.4116 22.5688 18.4922 22.3603C17.3522 22.1684 16.2116 21.9809 15.0703 21.7978C14.3558 21.5831 13.9417 21.1066 13.8281 20.3681C13.8125 20.0243 13.7969 19.6806 13.7812 19.3368C12.8622 19.9681 11.8856 20.0852 10.8516 19.6884C10.6213 19.5772 10.3948 19.46 10.1719 19.3368C10.1629 19.7607 10.1316 20.1826 10.0781 20.6025C9.89845 21.2197 9.50002 21.6181 8.88281 21.7978C7.74295 21.9896 6.60234 22.1771 5.46094 22.3603C4.54155 22.5688 3.90092 23.1078 3.53906 23.9775C3.39844 23.9775 3.25781 23.9775 3.11719 23.9775C3.01683 23.882 2.95432 23.7648 2.92969 23.6259C3.32341 22.5917 4.05778 21.9354 5.13281 21.6571C6.27258 21.4646 7.41319 21.2771 8.55469 21.0946C9.01561 21.0087 9.28908 20.7353 9.375 20.2743C9.40627 19.79 9.40627 19.3056 9.375 18.8212C9.21019 18.7075 9.05395 18.5825 8.90625 18.4462C8.70459 18.9986 8.30616 19.2954 7.71094 19.3368C7.49855 19.3147 7.29544 19.26 7.10156 19.1728C5.82942 17.9476 4.57162 16.7054 3.32812 15.4462C3.13808 15.1911 2.99745 14.9099 2.90625 14.6025C2.75177 13.3961 2.57989 12.1929 2.39062 10.9931C2.35937 10.9306 2.32813 10.8681 2.29688 10.8056C1.5127 10.0292 0.739266 9.24802 -0.0234375 8.46183C-0.0234375 8.33682 -0.0234375 8.21185 -0.0234375 8.08683C0.133842 7.90069 0.321342 7.86165 0.539062 7.96965C1.32812 8.75869 2.11719 9.54779 2.90625 10.3368C3.03921 10.5558 3.13296 10.7902 3.1875 11.04C3.32812 12.1025 3.46875 13.1649 3.60938 14.2275C3.6344 14.4275 3.6969 14.615 3.79688 14.79C5.0078 16.0634 6.24998 17.3056 7.52344 18.5165C7.89394 18.6164 8.12831 18.4758 8.22656 18.0946C8.19052 17.8897 8.08894 17.7256 7.92188 17.6025C7.76011 17.2726 7.85386 17.0694 8.20312 16.9931C8.29533 16.9951 8.3813 17.0185 8.46094 17.0634C9.34214 17.9758 10.3734 18.6633 11.5547 19.1259C11.9385 19.2183 12.3135 19.1871 12.6797 19.0321C13.1539 18.8185 13.6071 18.5685 14.0391 18.2821C14.4589 17.9718 14.8651 17.6437 15.2578 17.2978C15.9765 16.579 16.6953 15.8603 17.4141 15.1415C16.9657 14.9588 16.6611 14.6385 16.5 14.1806C16.4062 13.6181 16.4062 13.0556 16.5 12.4931C16.721 12.2436 16.9397 12.2436 17.1562 12.4931C17.169 12.5681 17.1925 12.6384 17.2266 12.704C17.1728 13.0831 17.1649 13.4659 17.2031 13.8525C17.3406 14.2691 17.6296 14.4878 18.0703 14.5087C18.1418 13.0522 18.2433 11.599 18.375 10.1493C18.6072 9.95354 18.8259 9.96919 19.0312 10.1962C18.9953 11.6977 18.9172 13.1977 18.7969 14.6962C18.75 14.79 18.7031 14.8837 18.6562 14.9775C17.7188 15.915 16.7812 16.8525 15.8438 17.79C15.6525 18.1994 15.7774 18.4651 16.2188 18.5868C16.2891 18.5634 16.3594 18.54 16.4297 18.5165C17.7031 17.3056 18.9453 16.0634 20.1562 14.79C20.2562 14.615 20.3187 14.4275 20.3438 14.2275C20.4844 13.1649 20.625 12.1025 20.7656 11.04C20.8201 10.7902 20.9139 10.5558 21.0469 10.3368C21.8359 9.54779 22.625 8.75869 23.4141 7.96965C23.6318 7.86165 23.8193 7.90069 23.9766 8.08683Z" fill="#8B3E00"/>
<path opacity="0.922" fill-rule="evenodd" clip-rule="evenodd" d="M9.02344 9.58625C9.61805 9.53553 10.1962 9.60585 10.7578 9.79719C11.1541 9.94199 11.2323 10.1842 10.9922 10.5238C10.9169 10.5508 10.8388 10.5664 10.7578 10.5706C10.3764 10.4401 9.98583 10.3464 9.58594 10.2894C9.18816 10.338 8.7975 10.424 8.41406 10.5472C8.08172 10.6614 7.87856 10.552 7.80469 10.2191C7.81852 10.082 7.88105 9.97264 7.99219 9.89094C8.33742 9.77366 8.68116 9.67208 9.02344 9.58625Z" fill="#8B3E00"/>
<path opacity="0.922" fill-rule="evenodd" clip-rule="evenodd" d="M13.8516 9.58421C14.58 9.51362 15.2831 9.61515 15.961 9.8889C16.211 10.1077 16.211 10.3264 15.961 10.5452C15.8907 10.553 15.8204 10.5608 15.7501 10.5686C15.2924 10.4561 14.8315 10.3624 14.3673 10.2873C14.0262 10.3218 13.6981 10.4078 13.3829 10.5452C12.9612 10.6389 12.7815 10.4749 12.8438 10.053C12.9301 9.92753 13.0473 9.8416 13.1954 9.79515C13.4182 9.71818 13.637 9.64787 13.8516 9.58421Z" fill="#8B3E00"/>
<path opacity="0.918" fill-rule="evenodd" clip-rule="evenodd" d="M8.17966 11.8359C8.55339 11.898 8.92839 11.9605 9.30466 12.0234C9.57667 11.9989 9.84231 11.9443 10.1015 11.8594C10.537 11.7833 10.7011 11.963 10.5937 12.3984C10.459 12.5373 10.2949 12.6233 10.1015 12.6562C9.42981 12.8262 8.77356 12.7793 8.13278 12.5156C7.91153 12.28 7.92714 12.0534 8.17966 11.8359Z" fill="#8B3E00"/>
<path opacity="0.921" fill-rule="evenodd" clip-rule="evenodd" d="M13.5234 11.8359C13.8971 11.898 14.2721 11.9605 14.6484 12.0234C14.9204 11.9989 15.186 11.9443 15.4453 11.8594C15.8807 11.7833 16.0448 11.963 15.9374 12.3984C15.7285 12.5724 15.4863 12.674 15.2109 12.7031C14.6529 12.7995 14.106 12.7526 13.5703 12.5625C13.3488 12.4484 13.2785 12.2686 13.3593 12.0234C13.3917 11.9367 13.4463 11.8742 13.5234 11.8359Z" fill="#8B3E00"/>
<path opacity="0.918" fill-rule="evenodd" clip-rule="evenodd" d="M10.8984 14.1335C11.2372 14.1551 11.5731 14.202 11.9062 14.2741C12.1065 14.259 12.3018 14.22 12.4922 14.1569C12.961 14.0632 13.1407 14.2429 13.0312 14.696C12.9743 14.7686 12.904 14.8232 12.8203 14.86C12.1289 15.1046 11.457 15.0655 10.8047 14.7428C10.6615 14.5103 10.6928 14.3071 10.8984 14.1335Z" fill="#8B3E00"/>
<path opacity="0.922" fill-rule="evenodd" clip-rule="evenodd" d="M10.2891 16.0078C10.5379 16.0537 10.7879 16.1005 11.0391 16.1484C11.3209 16.1013 11.6021 16.0545 11.8828 16.0078C12.1636 16.0545 12.4448 16.1013 12.7266 16.1484C12.9368 16.1304 13.1399 16.0835 13.336 16.0078C13.5703 16.0234 13.6954 16.1484 13.711 16.3828C13.7083 16.5052 13.6615 16.6068 13.5703 16.6875C13.0194 16.9419 12.4569 16.9654 11.8828 16.7578C11.3844 16.9302 10.8844 16.938 10.3828 16.7812C10.1022 16.6809 10.0006 16.4856 10.0781 16.1953C10.1436 16.1217 10.2139 16.0592 10.2891 16.0078Z" fill="#8B3E00"/>
</g>
<defs>
<clipPath id="clip0_5012_8950">
<rect width="24" height="24" fill="white"/>
</clipPath>
</defs>
</svg>
