<svg width="24" height="24" viewBox="0 0 24 24" fill="none" xmlns="http://www.w3.org/2000/svg">
<g clip-path="url(#clip0_5012_9023)">
<path opacity="0.945" fill-rule="evenodd" clip-rule="evenodd" d="M23.9766 5.88217C23.9766 8.49156 23.9766 11.1009 23.9766 13.7103C23.8149 14.0827 23.5337 14.3092 23.1328 14.39C22.7269 14.4134 22.3206 14.4212 21.9141 14.4134C21.9242 14.8372 21.9008 15.2591 21.8438 15.679C21.6748 16.1762 21.3389 16.4965 20.8359 16.64C20.2578 16.6712 19.6797 16.6712 19.1016 16.64C18.5212 16.4711 18.1852 16.0883 18.0938 15.4915C18.0703 14.1479 18.0625 12.8042 18.0703 11.4603C17.6953 11.4603 17.3203 11.4603 16.9453 11.4603C17.0074 12.0353 16.8902 12.5665 16.5938 13.054C16.25 13.4603 15.9062 13.8665 15.5625 14.2728C15.5033 14.6116 15.472 14.9553 15.4688 15.304C15.4035 15.4384 15.2941 15.5009 15.1406 15.4915C14.9368 15.4993 14.8118 15.4056 14.7656 15.2103C14.7344 14.8509 14.7344 14.4916 14.7656 14.1322C14.8079 14.0117 14.8703 13.9023 14.9531 13.804C15.3775 13.3454 15.7681 12.861 16.125 12.3509C16.1997 11.5562 16.2153 10.7593 16.1719 9.96029C16.1535 9.82178 16.0832 9.7202 15.9609 9.65561C14.8515 9.62434 13.7422 9.62434 12.6328 9.65561C12.2474 9.84606 12.1458 10.1351 12.3281 10.5228C12.3828 10.5775 12.4375 10.6322 12.4922 10.6869C13.1953 10.7337 13.8984 10.7806 14.6016 10.8275C14.854 11.0671 14.8384 11.2858 14.5547 11.4837C12.2887 11.5202 10.023 11.5124 7.75781 11.4603C7.73494 11.7974 7.77398 12.1255 7.875 12.4447C8.23233 12.9115 8.60733 13.3646 9 13.804C9.08278 13.9023 9.14527 14.0117 9.1875 14.1322C9.21877 16.3353 9.21877 18.5384 9.1875 20.7415C9.09469 20.9949 8.91497 21.0809 8.64844 20.9994C8.57812 20.9603 8.52342 20.9056 8.48438 20.8353C8.46877 18.679 8.45311 16.5228 8.4375 14.3665C8.09583 13.9154 7.73648 13.4779 7.35938 13.054C7.06289 12.5665 6.9457 12.0353 7.00781 11.4603C6.63281 11.4603 6.25781 11.4603 5.88281 11.4603C5.89064 12.8042 5.88281 14.1479 5.85938 15.4915C5.76792 16.0883 5.43197 16.4711 4.85156 16.64C4.27344 16.6712 3.69531 16.6712 3.11719 16.64C2.61426 16.4965 2.27832 16.1762 2.10938 15.679C2.05232 15.2591 2.02889 14.8372 2.03906 14.4134C1.63251 14.4212 1.22626 14.4134 0.820312 14.39C0.419456 14.3092 0.138206 14.0827 -0.0234375 13.7103C-0.0234375 11.1009 -0.0234375 8.49156 -0.0234375 5.88217C0.108485 5.58625 0.327235 5.37531 0.632812 5.24936C1.09921 5.18697 1.56796 5.16353 2.03906 5.17904C2.01838 4.70434 2.05744 4.23558 2.15625 3.77279C2.34759 3.347 2.6679 3.07356 3.11719 2.95248C5.38163 2.54506 6.29569 3.47475 5.85938 5.74154C5.74533 6.02036 5.55 6.09067 5.27344 5.95248C5.23439 5.91343 5.1953 5.87434 5.15625 5.83529C5.14064 5.2884 5.12498 4.74156 5.10938 4.19467C5.06419 4.00865 4.96261 3.86021 4.80469 3.74936C4.29247 3.67447 3.77685 3.65885 3.25781 3.70248C3.08086 3.77008 2.94805 3.88727 2.85938 4.05404C2.78192 7.80236 2.7663 11.5524 2.8125 15.304C2.82254 15.535 2.9241 15.7147 3.11719 15.8431C3.64505 15.9181 4.1763 15.9337 4.71094 15.89C4.875 15.8197 4.99219 15.7025 5.0625 15.5384C5.12447 12.6818 5.15573 9.82239 5.15625 6.96029C5.36156 6.73328 5.58028 6.71762 5.8125 6.91342C5.87859 7.31579 5.90203 7.72201 5.88281 8.13217C6.4297 8.13217 6.97655 8.13217 7.52344 8.13217C7.50511 7.67593 7.52855 7.22279 7.59375 6.77279C7.98403 6.019 8.58558 5.76118 9.39844 5.99936C9.5273 6.052 9.64448 6.12231 9.75 6.21029C10.3227 5.57275 10.979 5.46339 11.7188 5.88217C12.198 5.21814 12.8153 5.03842 13.5703 5.34311C13.827 5.48256 14.0301 5.67789 14.1797 5.92904C14.9452 5.56314 15.5936 5.70376 16.125 6.35092C16.2153 6.51254 16.2779 6.68443 16.3125 6.86654C16.3359 7.28814 16.3437 7.71001 16.3359 8.13217C16.914 8.13217 17.4922 8.13217 18.0703 8.13217C18.0625 6.78831 18.0703 5.44459 18.0938 4.10092C18.2043 3.49718 18.5558 3.11437 19.1484 2.95248C19.7109 2.92123 20.2734 2.92123 20.8359 2.95248C21.5016 3.14943 21.8532 3.59474 21.8906 4.28842C21.9141 4.58488 21.9218 4.88176 21.9141 5.17904C22.3852 5.16353 22.8539 5.18697 23.3203 5.24936C23.6259 5.37531 23.8447 5.58625 23.9766 5.88217ZM19.2891 3.67904C19.7581 3.67124 20.2268 3.67905 20.6953 3.70248C20.8723 3.77008 21.0051 3.88727 21.0938 4.05404C21.1552 6.48981 21.1865 8.92731 21.1875 11.3665C21.4063 11.6165 21.625 11.6165 21.8438 11.3665C21.8594 11.3041 21.875 11.2415 21.8906 11.179C21.9141 9.42911 21.9219 7.67912 21.9141 5.92904C22.2738 5.92126 22.6332 5.92904 22.9922 5.95248C23.0779 5.96528 23.1482 6.00437 23.2031 6.06967C23.2572 7.30904 23.2807 8.55123 23.2734 9.79623C23.2807 11.0412 23.2572 12.2834 23.2031 13.5228C23.1608 13.5791 23.1061 13.6182 23.0391 13.64C22.6644 13.6634 22.2894 13.6712 21.9141 13.6634C21.9317 13.254 21.9083 12.8477 21.8438 12.4447C21.625 12.2572 21.4063 12.2572 21.1875 12.4447C21.1719 13.3978 21.1562 14.3509 21.1406 15.304C21.116 15.5942 20.9675 15.7895 20.6953 15.89C20.211 15.9212 19.7265 15.9212 19.2422 15.89C19.0374 15.7856 18.9046 15.6216 18.8438 15.3978C18.8125 11.6634 18.8125 7.92906 18.8438 4.19467C18.92 3.95475 19.0684 3.78288 19.2891 3.67904ZM0.960938 5.92904C1.32031 5.92904 1.67969 5.92904 2.03906 5.92904C2.03906 8.50717 2.03906 11.0853 2.03906 13.6634C1.66374 13.6712 1.28874 13.6634 0.914062 13.64C0.792098 13.5962 0.721786 13.5102 0.703125 13.3822C0.671873 10.9915 0.671873 8.60092 0.703125 6.21029C0.735145 6.06128 0.821081 5.96753 0.960938 5.92904ZM12.9141 5.92904C13.2211 5.98468 13.4321 6.15657 13.5469 6.44467C13.5781 7.14779 13.5781 7.85092 13.5469 8.55404C13.504 8.65548 13.4493 8.74923 13.3828 8.83529C13.0872 8.88986 12.7903 8.89768 12.4922 8.85873C12.42 8.78472 12.3652 8.69875 12.3281 8.60092C12.2969 7.86653 12.2969 7.13218 12.3281 6.39779C12.4373 6.12372 12.6326 5.96748 12.9141 5.92904ZM10.8516 6.35092C11.2048 6.39015 11.4313 6.57765 11.5312 6.91342C11.5391 7.17906 11.5469 7.44465 11.5547 7.71029C11.5597 8.02637 11.5363 8.33889 11.4844 8.64779C11.2662 9.02818 10.9615 9.12976 10.5703 8.95248C10.4482 8.86164 10.3622 8.74445 10.3125 8.60092C10.2812 8.00715 10.2812 7.41343 10.3125 6.81967C10.4161 6.56711 10.5958 6.41087 10.8516 6.35092ZM14.7422 6.49154C15.148 6.4247 15.4214 6.58093 15.5625 6.96029C15.5938 7.49153 15.5938 8.02281 15.5625 8.55404C15.5282 8.6665 15.4735 8.76803 15.3984 8.85873C15.1016 8.89 14.8047 8.89 14.5078 8.85873C14.4356 8.78472 14.3809 8.69875 14.3438 8.60092C14.3125 8.03842 14.3125 7.47592 14.3438 6.91342C14.4229 6.71725 14.5557 6.57662 14.7422 6.49154ZM8.83594 6.63217C9.21389 6.6685 9.44048 6.87161 9.51562 7.24154C9.54689 7.64781 9.54689 8.05403 9.51562 8.46029C9.38044 8.97714 9.06014 9.1412 8.55469 8.95248C8.48438 8.88217 8.41406 8.81186 8.34375 8.74154C8.29195 8.44047 8.26852 8.13578 8.27344 7.82748C8.28127 7.56967 8.28905 7.31186 8.29688 7.05404C8.41842 6.83003 8.59814 6.6894 8.83594 6.63217ZM5.88281 8.88217C6.44555 8.87434 7.00805 8.88217 7.57031 8.90561C7.96716 9.67464 8.57653 9.94028 9.39844 9.70248C9.58575 9.62453 9.75764 9.523 9.91406 9.39779C10.4346 9.81423 10.9971 9.90015 11.6016 9.65561C11.4141 10.015 11.4141 10.3743 11.6016 10.7337C9.69539 10.7572 7.78912 10.765 5.88281 10.7572C5.88281 10.1322 5.88281 9.50715 5.88281 8.88217ZM16.2422 8.88217C16.8516 8.88217 17.4609 8.88217 18.0703 8.88217C18.0703 9.50715 18.0703 10.1322 18.0703 10.7572C17.6953 10.7572 17.3203 10.7572 16.9453 10.7572C16.9582 10.3797 16.9348 10.0047 16.875 9.63217C16.8088 9.484 16.7306 9.34337 16.6406 9.21029C16.4969 9.10478 16.3641 8.99542 16.2422 8.88217Z" fill="#8B3E00"/>
<path opacity="0.926" fill-rule="evenodd" clip-rule="evenodd" d="M15.0234 16.2438C15.2247 16.2297 15.3732 16.3078 15.4688 16.4782C15.5 17.9313 15.5 19.3844 15.4688 20.8376C15.3084 21.0369 15.1131 21.076 14.8828 20.9548C14.8175 20.8999 14.7784 20.8296 14.7656 20.7438C14.7344 19.3376 14.7344 17.9313 14.7656 16.5251C14.8294 16.4068 14.9153 16.3131 15.0234 16.2438Z" fill="#8B3E00"/>
</g>
<defs>
<clipPath id="clip0_5012_9023">
<rect width="24" height="24" fill="white"/>
</clipPath>
</defs>
</svg>
