<svg width="66" height="65" viewBox="0 0 66 65" fill="none" xmlns="http://www.w3.org/2000/svg">
<path d="M24.8222 8.85625C23.6072 11.9004 22.6968 15.0575 22.1044 18.2812H43.8956C43.302 15.0574 42.3903 11.9003 41.1738 8.85625C39.951 5.87844 38.5413 3.59937 37.0788 2.10031C35.6244 0.605312 34.2472 0 33 0C31.7528 0 30.3756 0.605312 28.9213 2.10031C27.4588 3.60344 26.0491 5.87844 24.8222 8.85625ZM24.4322 1.14156C23.1566 2.87219 22.0353 4.96438 21.0685 7.30844C19.7685 10.4772 18.7122 14.1903 17.9728 18.2812H3.76627C5.79549 14.1201 8.68821 10.4392 12.2517 7.48374C15.8152 4.52831 19.9676 2.36623 24.4322 1.14156ZM41.5719 1.14156C42.8435 2.87219 43.9688 4.96438 44.9316 7.30844C46.2316 10.4772 47.2878 14.1903 48.0272 18.2812H62.2338C60.2045 14.1201 57.3118 10.4392 53.7484 7.48374C50.1849 4.52831 46.0365 2.36623 41.5719 1.14156ZM63.8831 22.3438H48.6406C49.0388 25.5734 49.25 28.9819 49.25 32.5C49.25 36.0181 49.0388 39.4266 48.6406 42.6562H63.8831C64.9582 39.3782 65.504 35.9498 65.5 32.5C65.5028 29.0503 64.957 25.6221 63.8831 22.3438ZM62.2338 46.7188H48.0272C47.2878 50.8097 46.2356 54.5269 44.9316 57.6875C44.0641 59.8722 42.936 61.9442 41.5719 63.8584C46.0358 62.6333 50.1874 60.4709 53.7502 57.5155C57.3129 54.5601 60.205 50.8795 62.2338 46.7188ZM33 65C34.2472 65 35.6244 64.3947 37.0788 62.8997C38.5413 61.3966 39.951 59.1216 41.1738 56.1437C42.3903 53.0997 43.302 49.9426 43.8956 46.7188H22.1044C22.7869 50.2653 23.7172 53.4503 24.8263 56.1437C26.0491 59.1216 27.4588 61.4006 28.9213 62.8997C30.3756 64.3947 31.7528 65 33 65ZM24.4281 63.8584C19.965 62.6327 15.8142 60.4702 12.2522 57.5148C8.69014 54.5594 5.79868 50.879 3.77033 46.7188H17.9769C18.7163 50.8097 19.7685 54.5269 21.0725 57.6875C22.0353 60.0356 23.1606 62.1278 24.4363 63.8584H24.4281ZM2.12096 42.6562H17.3594C16.9497 39.2864 16.7462 35.8947 16.75 32.5C16.75 28.9819 16.9613 25.5734 17.3594 22.3438H2.1169C1.04185 25.6218 0.496052 29.0502 0.500021 32.5C0.500021 36.0466 1.07283 39.4591 2.12096 42.6562ZM20.8125 32.5C20.8125 28.9453 21.04 25.5328 21.4544 22.3438H44.5456C44.96 25.5328 45.1875 28.9453 45.1875 32.5C45.1875 36.0547 44.96 39.4631 44.5456 42.6562H21.4544C21.0223 39.2882 20.8079 35.8957 20.8125 32.5Z" fill="#8B3E00"/>
</svg>
