<svg width="57" height="57" viewBox="0 0 57 57" fill="none" xmlns="http://www.w3.org/2000/svg">
<path d="M54.7977 19.3887C58.1831 16.0033 56.6394 12.0491 54.7977 10.1262L46.6727 2.0012C43.2602 -1.38422 39.3331 0.159531 37.4102 2.0012L32.806 6.63245H25.7915C20.6456 6.63245 17.6665 9.34078 16.1498 12.4554L4.1248 24.4804V35.3137L2.20188 37.2095C-1.18354 40.622 0.360214 44.5491 2.20188 46.472L10.3269 54.597C11.7894 56.0595 13.3602 56.6012 14.8498 56.6012C16.7727 56.6012 18.5331 55.6533 19.5894 54.597L26.9019 47.2574H36.6248C41.229 47.2574 43.5581 44.3866 44.3977 41.5699C47.4581 40.7574 49.1373 38.4283 49.8144 36.1533C54.0123 35.0699 55.5831 31.0887 55.5831 28.2991V20.1741H53.9852L54.7977 19.3887ZM50.1665 28.2991C50.1665 29.5179 49.6519 31.0074 47.4581 31.0074H44.7498V33.7158C44.7498 34.9345 44.2352 36.4241 42.0415 36.4241H39.3331V39.1324C39.3331 40.3512 38.8185 41.8408 36.6248 41.8408H24.681L15.7977 50.7241C14.9581 51.5095 14.4706 51.0491 14.1727 50.7512L6.0748 42.6804C5.28938 41.8408 5.7498 41.3533 6.04771 41.0554L9.54146 37.5345V26.7012L14.9581 21.2845V25.5908C14.9581 28.8679 17.1248 33.7158 23.0831 33.7158C29.0415 33.7158 31.2081 28.8679 31.2081 25.5908H50.1665V28.2991ZM50.9519 15.5429L46.3477 20.1741H25.7915V25.5908C25.7915 26.8095 25.2769 28.2991 23.0831 28.2991C20.8894 28.2991 20.3748 26.8095 20.3748 25.5908V17.4658C20.3748 16.2199 20.8352 12.0491 25.7915 12.0491H35.0269L41.2019 5.87411C42.0415 5.0887 42.529 5.54911 42.8269 5.84703L50.9248 13.9179C51.7102 14.7574 51.2498 15.2449 50.9519 15.5429Z" fill="#8B3E00"/>
</svg>
