<svg width="16" height="17" viewBox="0 0 16 17" fill="none" xmlns="http://www.w3.org/2000/svg">
<path d="M4.68678 0.286664C3.83557 0.326824 3.25429 0.462665 2.74612 0.662347C2.2202 0.867309 1.77443 1.14235 1.33091 1.58748C0.887382 2.0326 0.614259 2.47869 0.410737 3.00541C0.213775 3.5147 0.0803338 4.09646 0.0427334 4.94815C0.00513303 5.79984 -0.00318706 6.0736 0.000972982 8.2461C0.00513302 10.4186 0.0147331 10.6909 0.0560135 11.5444C0.096654 12.3954 0.232015 12.9766 0.431697 13.4849C0.636979 14.0108 0.911702 14.4564 1.35699 14.9001C1.80227 15.3438 2.24804 15.6163 2.77604 15.8201C3.28485 16.0167 3.86677 16.1508 4.7183 16.1881C5.56983 16.2254 5.84391 16.234 8.01577 16.2299C10.1876 16.2257 10.4611 16.2161 11.3144 16.1756C12.1677 16.1351 12.7457 15.9988 13.2542 15.8001C13.7802 15.5943 14.2261 15.3201 14.6694 14.8747C15.1128 14.4292 15.3858 13.9828 15.5891 13.4558C15.7863 12.947 15.9202 12.365 15.9571 11.5141C15.9944 10.6602 16.0032 10.3876 15.9991 8.21538C15.9949 6.0432 15.9851 5.77088 15.9447 4.91775C15.9042 4.06462 15.7687 3.48526 15.5691 2.97661C15.3635 2.45069 15.0891 2.0054 14.644 1.5614C14.1989 1.11739 13.7522 0.844589 13.2253 0.641707C12.7161 0.444745 12.1345 0.310504 11.283 0.273703C10.4315 0.236903 10.1574 0.227463 7.98473 0.231623C5.81207 0.235783 5.54007 0.245063 4.68678 0.286664ZM4.78022 14.7489C4.00021 14.715 3.57669 14.5854 3.29445 14.4769C2.92068 14.3329 2.65444 14.1588 2.37316 13.8802C2.09187 13.6017 1.91907 13.3345 1.77315 12.9615C1.66355 12.6793 1.53155 12.2562 1.49507 11.4762C1.45539 10.6332 1.44707 10.38 1.44243 8.24418C1.43779 6.10832 1.44595 5.85552 1.48291 5.01215C1.51619 4.23278 1.64659 3.80878 1.75491 3.5267C1.89891 3.15245 2.07235 2.88669 2.35156 2.60557C2.63076 2.32444 2.89716 2.15132 3.27045 2.0054C3.55237 1.89532 3.97541 1.76444 4.7551 1.72732C5.59879 1.68732 5.85159 1.67932 7.98713 1.67468C10.1227 1.67004 10.3761 1.67804 11.2201 1.71516C11.9995 1.74908 12.4237 1.8782 12.7054 1.98716C13.0793 2.13116 13.3454 2.30412 13.6266 2.58381C13.9077 2.86349 14.081 3.12893 14.2269 3.50302C14.3371 3.78414 14.468 4.20702 14.5048 4.98719C14.545 5.83088 14.5541 6.08384 14.5579 8.21922C14.5618 10.3546 14.5542 10.6082 14.5173 11.4513C14.4832 12.2313 14.3539 12.6549 14.2453 12.9375C14.1013 13.3111 13.9277 13.5775 13.6483 13.8585C13.3689 14.1394 13.1029 14.3126 12.7294 14.4585C12.4478 14.5684 12.0243 14.6996 11.2452 14.7367C10.4016 14.7764 10.1488 14.7847 8.01241 14.7894C5.87607 14.794 5.62407 14.7854 4.78038 14.7489M11.302 3.95502C11.3024 4.14491 11.359 4.33043 11.4648 4.48814C11.5705 4.64584 11.7207 4.76864 11.8962 4.84099C12.0718 4.91335 12.2649 4.93202 12.451 4.89465C12.6372 4.85727 12.8081 4.76552 12.9421 4.631C13.0762 4.49649 13.1673 4.32525 13.204 4.13894C13.2407 3.95264 13.2213 3.75963 13.1483 3.58434C13.0753 3.40905 12.9519 3.25934 12.7938 3.15416C12.6358 3.04897 12.45 2.99303 12.2601 2.99341C12.0056 2.99392 11.7617 3.09551 11.582 3.27584C11.4023 3.45616 11.3016 3.70047 11.302 3.95502ZM3.89237 8.23874C3.89685 10.5076 5.73943 12.3426 8.00778 12.3383C10.2761 12.334 12.1125 10.4916 12.1081 8.22274C12.1038 5.95392 10.2608 4.11838 7.99209 4.12286C5.72343 4.12734 3.88805 5.97024 3.89237 8.23874ZM5.33335 8.23586C5.3323 7.70843 5.48769 7.19254 5.77984 6.75341C6.072 6.31429 6.48781 5.97166 6.9747 5.76886C7.46158 5.56606 7.99767 5.51219 8.51517 5.61406C9.03267 5.71593 9.50834 5.96897 9.88203 6.34118C10.2557 6.7134 10.5106 7.18806 10.6146 7.70515C10.7185 8.22225 10.6667 8.75854 10.4659 9.24623C10.265 9.73391 9.92401 10.1511 9.48604 10.445C9.04808 10.7389 8.53281 10.8963 8.00537 10.8973C7.65516 10.8981 7.30823 10.8298 6.9844 10.6964C6.66057 10.5631 6.36619 10.3672 6.11806 10.1201C5.86993 9.87294 5.67292 9.57933 5.53828 9.25603C5.40363 8.93273 5.334 8.58608 5.33335 8.23586Z" fill="black"/>
</svg>
