<svg width="16" height="17" viewBox="0 0 16 17" fill="none" xmlns="http://www.w3.org/2000/svg">
<path d="M0 1.37671C0 0.743713 0.526 0.230713 1.175 0.230713H14.825C15.474 0.230713 16 0.743713 16 1.37671V15.0847C16 15.7177 15.474 16.2307 14.825 16.2307H1.175C0.526 16.2307 0 15.7177 0 15.0847V1.37671ZM4.943 13.6247V6.39971H2.542V13.6247H4.943ZM3.743 5.41271C4.58 5.41271 5.101 4.85871 5.101 4.16471C5.086 3.45571 4.581 2.91671 3.759 2.91671C2.937 2.91671 2.4 3.45671 2.4 4.16471C2.4 4.85871 2.921 5.41271 3.727 5.41271H3.743ZM8.651 13.6247V9.58971C8.651 9.37371 8.667 9.15771 8.731 9.00371C8.904 8.57271 9.299 8.12571 9.963 8.12571C10.832 8.12571 11.179 8.78771 11.179 9.75971V13.6247H13.58V9.48071C13.58 7.26071 12.396 6.22871 10.816 6.22871C9.542 6.22871 8.971 6.92871 8.651 7.42171V7.44671H8.635C8.64031 7.43837 8.64564 7.43003 8.651 7.42171V6.39971H6.251C6.281 7.07771 6.251 13.6247 6.251 13.6247H8.651Z" fill="black"/>
</svg>
