<svg width="72" height="66" viewBox="0 0 72 66" fill="none" xmlns="http://www.w3.org/2000/svg">
<g clip-path="url(#clip0_5136_8656)">
<path d="M4.7112 54.3129H10.2404V56.4522H4.7112V54.3129ZM4.90867 60.6484H2.2428V49.1292H10.948V51.2685H4.90867V60.6484ZM12.7528 60.6484V49.1292H15.4187V58.4762H21.1947V60.6484H12.7528ZM21.2346 60.6484L26.3688 49.1292H29.0018L34.1525 60.6484H31.355L27.1423 50.4786H28.1955L23.9663 60.6484H21.2346ZM23.8017 58.18L24.5093 56.1559H30.4335L31.1575 58.18H23.8017ZM40.2244 60.8459C38.5898 60.8459 37.3117 60.3906 36.3902 59.4801C35.4686 58.5695 35.0079 57.2695 35.0079 55.58V49.1292H37.6737V55.4813C37.6737 56.5783 37.8986 57.3682 38.3484 57.8509C38.7982 58.3336 39.429 58.575 40.2409 58.575C41.0527 58.575 41.6835 58.3336 42.1333 57.8509C42.5831 57.3682 42.808 56.5783 42.808 55.4813V49.1292H45.441V55.58C45.441 57.2695 44.9802 58.5695 44.0587 59.4801C43.1371 60.3906 41.859 60.8459 40.2244 60.8459ZM48.0753 60.6484V49.1292H53.0615C54.0927 49.1292 54.9814 49.2993 55.7274 49.6394C56.4734 49.9685 57.0493 50.4457 57.4553 51.071C57.8612 51.6964 58.0641 52.4424 58.0641 53.3091C58.0641 54.1648 57.8612 54.9053 57.4553 55.5306C57.0493 56.145 56.4734 56.6167 55.7274 56.9458C54.9814 57.275 54.0927 57.4395 53.0615 57.4395H49.5564L50.7412 56.2711V60.6484H48.0753ZM55.3983 60.6484L52.5185 56.4686H55.3653L58.2781 60.6484H55.3983ZM50.7412 56.5673L49.5564 55.3167H52.9134C53.7362 55.3167 54.3506 55.1412 54.7565 54.7901C55.1624 54.4281 55.3653 53.9344 55.3653 53.3091C55.3653 52.6728 55.1624 52.1791 54.7565 51.828C54.3506 51.477 53.7362 51.3014 52.9134 51.3014H49.5564L50.7412 50.0343V56.5673ZM62.8789 60.6484V55.942L63.4878 57.5547L58.4193 49.1292H61.2498L65.1334 55.5964H63.5043L67.4043 49.1292H70.0208L64.9524 57.5547L65.5448 55.942V60.6484H62.8789Z" fill="#8B3E00"/>
<path d="M50.637 0.613281L52.8827 0.681041C53.328 0.681041 53.7733 0.681041 54.2137 0.681041C54.2923 3.15669 53.4641 5.57583 51.8849 7.48396C50.3056 9.39208 48.0839 10.6579 45.6372 11.0435C42.7332 11.5517 39.8292 11.4065 36.901 11.3097C33.9728 11.2129 30.9962 11.0386 28.0487 11.4646C23.7411 12.0792 20.5564 14.1556 18.9785 18.3567C18.9118 18.4931 18.8375 18.6256 18.7559 18.7536C18.7123 18.0905 18.6736 17.5775 18.6446 17.0644C18.4897 13.8071 18.6446 10.5788 19.7916 7.4764C20.9581 4.28684 23.0199 1.97332 26.3886 1.01984C26.9355 0.864963 27.4921 0.748802 28.0438 0.618122L50.637 0.613281Z" fill="#8B3E00"/>
<path d="M31.5236 12.8193H42.6556V15.8347C42.6556 21.2103 42.6556 26.5875 42.6556 31.9664C42.6556 34.1202 41.8957 35.8771 39.95 36.9274C39.0441 37.4545 38.0117 37.725 36.9637 37.7096C35.9157 37.6943 34.8917 37.3937 34.0016 36.8403C33.2419 36.4184 32.6121 35.7967 32.1804 35.0425C31.7488 34.2883 31.5316 33.4304 31.5526 32.5617C31.5139 26.1293 31.5526 19.6921 31.5526 13.2598C31.4994 13.1194 31.5139 12.9791 31.5236 12.8193Z" fill="#8B3E00"/>
<path d="M30.2997 12.7959V13.3477C30.2997 19.6042 30.2997 25.8607 30.2997 32.1172C30.2997 35.1373 28.3637 37.2331 25.1935 37.6735C23.8666 37.8669 22.5148 37.5674 21.3937 36.8316C20.2727 36.0958 19.4601 34.9748 19.1096 33.6805C18.959 32.9802 18.8763 32.2671 18.8627 31.5509C18.6353 28.1629 18.6111 24.7459 19.4435 21.3869C20.7165 16.2759 24.2061 13.3089 29.4817 12.8685L30.2997 12.7959Z" fill="#8B3E00"/>
</g>
<defs>
<clipPath id="clip0_5136_8656">
<rect width="71.056" height="64.9334" fill="white" transform="translate(0.876953 0.613281)"/>
</clipPath>
</defs>
</svg>
