<svg width="50" height="50" viewBox="0 0 50 50" fill="none" xmlns="http://www.w3.org/2000/svg">
<circle cx="25" cy="25" r="25" fill="#C45111"/>
<path d="M33.3334 25.0002V29.1668C33.3334 31.6668 31.6667 33.3335 29.1667 33.3335H20.8334C18.3334 33.3335 16.6667 31.6668 16.6667 29.1668V25.0002C16.6667 22.7335 18.0334 21.1502 20.1584 20.8835C20.3751 20.8502 20.6001 20.8335 20.8334 20.8335H29.1667C29.3834 20.8335 29.5917 20.8418 29.7917 20.8752C31.9417 21.1252 33.3334 22.7168 33.3334 25.0002Z" stroke="white" stroke-width="1.5" stroke-linecap="round" stroke-linejoin="round"/>
<path d="M29.7928 20.8748C29.5928 20.8415 29.3844 20.8332 29.1678 20.8332H20.8344C20.6011 20.8332 20.3761 20.8498 20.1594 20.8832C20.2761 20.6498 20.4428 20.4332 20.6428 20.2332L23.3511 17.5165C24.4928 16.3832 26.3428 16.3832 27.4844 17.5165L28.9428 18.9915C29.4761 19.5165 29.7594 20.1832 29.7928 20.8748Z" stroke="white" stroke-width="1.5" stroke-linecap="round" stroke-linejoin="round"/>
<path d="M33.3334 25.4165H30.8334C29.9167 25.4165 29.1667 26.1665 29.1667 27.0832C29.1667 27.9998 29.9167 28.7498 30.8334 28.7498H33.3334" stroke="white" stroke-width="1.5" stroke-linecap="round" stroke-linejoin="round"/>
</svg>
