<svg width="26" height="27" viewBox="0 0 26 27" fill="none" xmlns="http://www.w3.org/2000/svg">
<path d="M1.68837 3.57701C1.35768 2.5492 2.42775 1.63108 3.39381 2.1137L23.7014 12.2659C24.6001 12.7152 24.6001 13.9965 23.7014 14.4466L3.39381 24.5988C2.42856 25.0815 1.35768 24.1633 1.68837 23.1355L4.83437 13.3563L1.68837 3.57701ZM6.279 14.1688L3.53193 22.713L22.2495 13.3563L3.53112 3.99951L6.28062 12.543H15.4375C15.653 12.543 15.8596 12.6286 16.012 12.7809C16.1644 12.9333 16.25 13.14 16.25 13.3555C16.25 13.5709 16.1644 13.7776 16.012 13.93C15.8596 14.0823 15.653 14.168 15.4375 14.168H6.28062L6.279 14.1688Z" fill="white"/>
</svg>
