<svg width="23" height="25" viewBox="0 0 23 25" fill="none" xmlns="http://www.w3.org/2000/svg">
<path fill-rule="evenodd" clip-rule="evenodd" d="M11.3623 8.31396C10.2521 8.31396 9.18737 8.75499 8.40233 9.54003C7.6173 10.3251 7.17627 11.3898 7.17627 12.5C7.17627 13.6102 7.6173 14.675 8.40233 15.46C9.18737 16.245 10.2521 16.6861 11.3623 16.6861C12.4725 16.6861 13.5373 16.245 14.3223 15.46C15.1073 14.675 15.5484 13.6102 15.5484 12.5C15.5484 11.3898 15.1073 10.3251 14.3223 9.54003C13.5373 8.75499 12.4725 8.31396 11.3623 8.31396ZM8.85069 12.5C8.85069 11.8339 9.11531 11.195 9.58633 10.724C10.0573 10.253 10.6962 9.98838 11.3623 9.98838C12.0284 9.98838 12.6673 10.253 13.1383 10.724C13.6093 11.195 13.8739 11.8339 13.8739 12.5C13.8739 13.1661 13.6093 13.805 13.1383 14.276C12.6673 14.747 12.0284 15.0116 11.3623 15.0116C10.6962 15.0116 10.0573 14.747 9.58633 14.276C9.11531 13.805 8.85069 13.1661 8.85069 12.5Z" fill="#8B3E00"/>
<path fill-rule="evenodd" clip-rule="evenodd" d="M11.3341 0.5C10.8374 0.5 10.4232 0.5 10.0839 0.522326C9.73702 0.53677 9.39493 0.608433 9.07143 0.734419C8.69887 0.888565 8.36033 1.11459 8.07513 1.39959C7.78994 1.6846 7.56368 2.02299 7.40929 2.39544C7.24743 2.78614 7.20389 3.19916 7.18603 3.64791C7.18424 3.81202 7.1408 3.973 7.05977 4.11573C6.97874 4.25845 6.86278 4.37826 6.72277 4.46391C6.57864 4.54261 6.41687 4.58339 6.25266 4.58241C6.08844 4.58143 5.92717 4.53873 5.78398 4.45833C5.38659 4.24847 5.00705 4.07991 4.58733 4.02409C4.18764 3.97152 3.78151 3.99819 3.39213 4.10257C3.00274 4.20696 2.63773 4.38701 2.31794 4.63247C2.04755 4.85001 1.81485 5.11061 1.62919 5.40381C1.43943 5.68735 1.2318 6.04567 0.983984 6.47544L0.956077 6.52456C0.707147 6.95433 0.500635 7.31265 0.351054 7.61851C0.194775 7.93777 0.0719841 8.25256 0.0273329 8.60084C-0.0791598 9.4079 0.139273 10.2242 0.634589 10.8702C0.892449 11.2062 1.22845 11.4507 1.60798 11.6896C1.74948 11.7732 1.86737 11.8915 1.95056 12.0333C2.03375 12.1751 2.07951 12.3357 2.08352 12.5C2.07951 12.6643 2.03375 12.8249 1.95056 12.9667C1.86737 13.1085 1.74948 13.2268 1.60798 13.3104C1.22845 13.5493 0.893566 13.7938 0.634589 14.1298C0.389138 14.4496 0.209079 14.8146 0.104694 15.204C0.000309697 15.5933 -0.026357 15.9995 0.0262167 16.3992C0.0719842 16.7474 0.193659 17.0622 0.349938 17.3815C0.500635 17.6873 0.707147 18.0457 0.956077 18.4754L0.983984 18.5246C1.2318 18.9543 1.43943 19.3127 1.62919 19.5962C1.82677 19.8898 2.03887 20.1543 2.31794 20.3664C2.63765 20.6121 3.00262 20.7923 3.39201 20.8969C3.7814 21.0015 4.18757 21.0283 4.58733 20.9759C5.00705 20.9201 5.38659 20.7527 5.78398 20.5417C5.927 20.4614 6.08808 20.4187 6.2521 20.4177C6.41612 20.4168 6.5777 20.4575 6.72166 20.5361C6.86244 20.6211 6.97913 20.7407 7.06061 20.8835C7.14209 21.0263 7.18565 21.1877 7.18715 21.3521C7.20389 21.8008 7.24743 22.2139 7.4104 22.6046C7.56455 22.9771 7.79058 23.3157 8.07558 23.6009C8.36058 23.886 8.69897 24.1123 9.07143 24.2667C9.39515 24.4007 9.73003 24.4531 10.0839 24.4766C10.4232 24.5 10.8374 24.5 11.3341 24.5H11.3899C11.8867 24.5 12.3008 24.5 12.6402 24.4777C12.9951 24.4531 13.3289 24.4007 13.6526 24.2656C14.0252 24.1114 14.3637 23.8854 14.6489 23.6004C14.9341 23.3154 15.1604 22.977 15.3148 22.6046C15.4766 22.2139 15.5202 21.8008 15.538 21.3521C15.5396 21.1878 15.583 21.0266 15.664 20.8836C15.7451 20.7407 15.8611 20.6207 16.0013 20.535C16.1455 20.4564 16.3073 20.4159 16.4715 20.417C16.6358 20.4182 16.797 20.4611 16.9401 20.5417C17.3375 20.7515 17.717 20.9201 18.1367 20.9748C18.9438 21.0813 19.7601 20.8629 20.4061 20.3675C20.6852 20.1532 20.8973 19.8898 21.0949 19.5962C21.2846 19.3127 21.4923 18.9543 21.7401 18.5246L21.768 18.4754C22.0169 18.0457 22.2234 17.6873 22.373 17.3815C22.5293 17.0622 22.6521 16.7463 22.6967 16.3992C22.8032 15.5921 22.5848 14.7758 22.0895 14.1298C21.8316 13.7938 21.4956 13.5493 21.1161 13.3104C20.9746 13.2268 20.8567 13.1085 20.7735 12.9667C20.6903 12.8249 20.6446 12.6643 20.6405 12.5C20.6405 12.1897 20.8102 11.8816 21.1161 11.6896C21.4956 11.4507 21.8305 11.2062 22.0895 10.8702C22.3349 10.5504 22.515 10.1854 22.6194 9.79604C22.7238 9.40666 22.7504 9.00053 22.6978 8.60084C22.6447 8.25782 22.5353 7.92591 22.3741 7.61851C22.1835 7.24763 21.9814 6.8828 21.768 6.52456L21.7401 6.47544C21.5362 6.11163 21.321 5.75425 21.0949 5.40381C20.9092 5.11092 20.6765 4.85068 20.4061 4.63358C20.0864 4.38794 19.7214 4.20768 19.3321 4.1031C18.9427 3.99852 18.5365 3.97168 18.1367 4.02409C17.717 4.07991 17.3375 4.24735 16.9401 4.45833C16.797 4.53854 16.636 4.58112 16.472 4.5821C16.308 4.58308 16.1464 4.54241 16.0024 4.46391C15.862 4.37853 15.7456 4.25884 15.6642 4.11609C15.5827 3.97335 15.5389 3.81223 15.5369 3.64791C15.5202 3.19916 15.4766 2.78614 15.3137 2.39544C15.1595 2.02288 14.9335 1.68434 14.6485 1.39915C14.3635 1.11395 14.0251 0.887699 13.6526 0.733302C13.3289 0.599349 12.994 0.546884 12.6402 0.523442C12.3008 0.5 11.8867 0.5 11.3899 0.5H11.3341ZM9.71217 2.28047C9.79812 2.24474 9.92873 2.21237 10.1978 2.1934C10.4735 2.17442 10.8307 2.17442 11.362 2.17442C11.8934 2.17442 12.2506 2.17442 12.5263 2.1934C12.7953 2.21237 12.9259 2.24474 13.0119 2.28047C13.3546 2.42223 13.6258 2.69349 13.7676 3.03619C13.8123 3.14335 13.8491 3.31191 13.8636 3.71042C13.8971 4.59451 14.3537 5.44623 15.1641 5.91395C15.9745 6.38279 16.9401 6.35154 17.7226 5.93851C18.0753 5.75209 18.2394 5.69963 18.3555 5.68512C18.7223 5.63665 19.0933 5.73583 19.387 5.96084C19.4606 6.01777 19.5544 6.11488 19.7051 6.33814C19.8603 6.56809 20.0389 6.8773 20.3045 7.33721C20.5702 7.79712 20.7477 8.10744 20.8694 8.35526C20.9888 8.59749 21.0257 8.72698 21.0368 8.81963C21.0853 9.1864 20.9861 9.5574 20.7611 9.85107C20.6897 9.94372 20.5624 10.0598 20.2253 10.2719C19.4751 10.743 18.9661 11.5646 18.9661 12.5C18.9661 13.4354 19.4751 14.257 20.2253 14.7281C20.5624 14.9402 20.6897 15.0563 20.7611 15.1489C20.9866 15.4425 21.0848 15.8131 21.0368 16.1804C21.0257 16.273 20.9877 16.4036 20.8694 16.6447C20.7477 16.8937 20.5702 17.2029 20.3045 17.6628C20.0389 18.1227 19.8591 18.4319 19.7051 18.6619C19.5544 18.8851 19.4606 18.9822 19.387 19.0392C19.0933 19.2642 18.7223 19.3633 18.3555 19.3149C18.2394 19.3004 18.0765 19.2479 17.7226 19.0615C16.9412 18.6485 15.9745 18.6172 15.1641 19.0849C14.3537 19.5538 13.8971 20.4055 13.8636 21.2896C13.8491 21.6881 13.8123 21.8567 13.7676 21.9638C13.6975 22.1333 13.5946 22.2872 13.465 22.4169C13.3353 22.5466 13.1813 22.6494 13.0119 22.7195C12.9259 22.7553 12.7953 22.7876 12.5263 22.8066C12.2506 22.8256 11.8934 22.8256 11.362 22.8256C10.8307 22.8256 10.4735 22.8256 10.1978 22.8066C9.92873 22.7876 9.79812 22.7553 9.71217 22.7195C9.54272 22.6494 9.38876 22.5466 9.25909 22.4169C9.12942 22.2872 9.02658 22.1333 8.95645 21.9638C8.9118 21.8567 8.87496 21.6881 8.86045 21.2896C8.82696 20.4055 8.3704 19.5538 7.55998 19.086C6.74957 18.6172 5.78398 18.6485 5.00147 19.0615C4.64873 19.2479 4.48464 19.3004 4.36854 19.3149C4.00177 19.3633 3.63077 19.2642 3.3371 19.0392C3.26343 18.9822 3.16966 18.8851 3.01896 18.6619C2.809 18.335 2.60909 18.0019 2.41952 17.6628C2.15384 17.2029 1.97636 16.8926 1.85468 16.6447C1.73524 16.4025 1.6984 16.273 1.68724 16.1804C1.63878 15.8136 1.73795 15.4426 1.96296 15.1489C2.0344 15.0563 2.16166 14.9402 2.49878 14.7281C3.24891 14.257 3.75794 13.4354 3.75794 12.5C3.75794 11.5646 3.24891 10.743 2.49878 10.2719C2.16166 10.0598 2.0344 9.94372 1.96296 9.85107C1.73795 9.5574 1.63878 9.1864 1.68724 8.81963C1.6984 8.72698 1.73636 8.59637 1.85468 8.35526C1.97636 8.10633 2.15384 7.79712 2.41952 7.33721C2.68519 6.8773 2.86491 6.56809 3.01896 6.33814C3.16966 6.11488 3.26343 6.01777 3.3371 5.96084C3.63077 5.73583 4.00177 5.63665 4.36854 5.68512C4.48464 5.69963 4.64761 5.75209 5.00147 5.93851C5.78287 6.35154 6.74957 6.38279 7.55998 5.91395C8.3704 5.44623 8.82696 4.59451 8.86045 3.71042C8.87496 3.31191 8.9118 3.14335 8.95645 3.03619C9.09822 2.69349 9.36947 2.42223 9.71217 2.28047Z" fill="#8B3E00"/>
</svg>
