<svg width="8" height="8" viewBox="0 0 8 8" fill="none" xmlns="http://www.w3.org/2000/svg">
<path d="M7.60344 4.25L4.5 1.14656C4.45374 1.09993 4.39867 1.06296 4.338 1.0378C4.27732 1.01264 4.21225 0.999793 4.14657 1H1.25C1.1837 1 1.12011 1.02634 1.07323 1.07323C1.02634 1.12011 1 1.1837 1 1.25V4.14657C0.999793 4.21225 1.01264 4.27732 1.0378 4.338C1.06296 4.39867 1.09993 4.45374 1.14656 4.5L4.25 7.60344C4.29643 7.64988 4.35156 7.68672 4.41223 7.71186C4.4729 7.73699 4.53793 7.74993 4.6036 7.74993C4.66927 7.74993 4.73429 7.73699 4.79496 7.71186C4.85563 7.68672 4.91076 7.64988 4.95719 7.60344L7.60344 4.95719C7.64988 4.91076 7.68672 4.85563 7.71186 4.79496C7.73699 4.73429 7.74993 4.66927 7.74993 4.6036C7.74993 4.53793 7.73699 4.4729 7.71186 4.41223C7.68672 4.35156 7.64988 4.29643 7.60344 4.25ZM4.60344 7.25L1.5 4.14657V1.5H4.14657L7.25 4.60344L4.60344 7.25ZM3 2.625C3 2.69917 2.97801 2.77167 2.9368 2.83334C2.8956 2.89501 2.83703 2.94307 2.76851 2.97146C2.69999 2.99984 2.62459 3.00727 2.55184 2.9928C2.4791 2.97833 2.41228 2.94261 2.35984 2.89017C2.30739 2.83772 2.27168 2.7709 2.25721 2.69816C2.24274 2.62542 2.25016 2.55002 2.27855 2.4815C2.30693 2.41297 2.355 2.35441 2.41666 2.3132C2.47833 2.272 2.55083 2.25 2.625 2.25C2.72446 2.25 2.81984 2.28951 2.89017 2.35984C2.96049 2.43016 3 2.52555 3 2.625Z" fill="#8B3E00"/>
</svg>
