<svg width="18" height="19" viewBox="0 0 18 19" fill="none" xmlns="http://www.w3.org/2000/svg">
<path d="M14.4879 12.8033C14.048 12.363 13.5338 12.0036 12.9692 11.7416C13.7655 11.0965 14.2735 10.1121 14.2735 9.00822C14.2735 7.06057 12.6493 5.46272 10.7016 5.4926C8.78383 5.52248 7.23872 7.08518 7.23872 9.00822C7.23872 10.1121 7.74848 11.0965 8.54301 11.7416C7.97824 12.0034 7.4641 12.3628 7.02426 12.8033C6.0645 13.7649 5.51958 15.034 5.48442 16.3875C5.48395 16.4063 5.48724 16.4249 5.4941 16.4424C5.50095 16.4599 5.51124 16.4758 5.52434 16.4892C5.53745 16.5027 5.55311 16.5133 5.5704 16.5206C5.5877 16.5279 5.60628 16.5317 5.62504 16.5317H6.60942C6.685 16.5317 6.74829 16.4719 6.75004 16.3963C6.78344 15.3768 7.19653 14.4223 7.92251 13.6981C8.294 13.3246 8.73588 13.0285 9.22257 12.827C9.70926 12.6254 10.2311 12.5224 10.7579 12.5238C11.8284 12.5238 12.8356 12.9405 13.5932 13.6981C14.3174 14.4223 14.7305 15.3768 14.7657 16.3963C14.7674 16.4719 14.8307 16.5317 14.9063 16.5317H15.8907C15.9094 16.5317 15.928 16.5279 15.9453 16.5206C15.9626 16.5133 15.9783 16.5027 15.9914 16.4892C16.0045 16.4758 16.0148 16.4599 16.0216 16.4424C16.0285 16.4249 16.0318 16.4063 16.0313 16.3875C15.9961 15.034 15.4512 13.7649 14.4879 12.8033ZM10.7579 11.2582C10.1567 11.2582 9.59067 11.0244 9.16704 10.599C8.95443 10.3881 8.7865 10.1365 8.67324 9.85929C8.55999 9.58204 8.50374 9.28483 8.50786 8.98537C8.51313 8.40881 8.7434 7.85158 9.14594 7.4385C9.56782 7.00608 10.1321 6.76526 10.735 6.75822C11.3309 6.75295 11.9092 6.98498 12.3346 7.40158C12.7706 7.82873 13.0096 8.40002 13.0096 9.00822C13.0096 9.6094 12.7758 10.1737 12.3504 10.599C12.1417 10.8087 11.8935 10.975 11.6202 11.0881C11.3468 11.2013 11.0537 11.2591 10.7579 11.2582ZM6.35454 9.47229C6.33872 9.31936 6.32993 9.16467 6.32993 9.00822C6.32993 8.72873 6.35629 8.45627 6.40551 8.19084C6.41782 8.12756 6.38442 8.06252 6.32641 8.03615C6.08735 7.92893 5.86762 7.78127 5.67778 7.59494C5.45408 7.37804 5.27805 7.11689 5.16092 6.82816C5.04379 6.53942 4.98814 6.22944 4.9975 5.91799C5.01332 5.35373 5.24008 4.8176 5.63559 4.4133C6.06977 3.96858 6.65336 3.726 7.27387 3.73303C7.83461 3.7383 8.37602 3.95451 8.78559 4.33772C8.92446 4.4678 9.04399 4.61194 9.14419 4.76662C9.17934 4.82112 9.2479 4.84397 9.30766 4.82287C9.61704 4.71565 9.94399 4.64006 10.2797 4.6049C10.3782 4.59436 10.4344 4.48889 10.3905 4.401C9.81918 3.27072 8.652 2.49026 7.302 2.46916C5.35258 2.43928 3.72836 4.03713 3.72836 5.98303C3.72836 7.08694 4.23637 8.07131 5.03266 8.71643C4.47368 8.97483 3.95864 9.33166 3.51215 9.77815C2.54887 10.7397 2.00395 12.0088 1.96879 13.3641C1.96832 13.3828 1.97162 13.4015 1.97847 13.419C1.98533 13.4364 1.99561 13.4524 2.00872 13.4658C2.02182 13.4792 2.03748 13.4899 2.05478 13.4972C2.07207 13.5045 2.09065 13.5082 2.10942 13.5082H3.09555C3.17114 13.5082 3.23442 13.4485 3.23618 13.3729C3.26958 12.3533 3.68266 11.3988 4.40864 10.6746C4.92543 10.1578 5.55825 9.79924 6.24907 9.62522C6.31762 9.60764 6.36333 9.5426 6.35454 9.47229Z" fill="black"/>
</svg>
