<svg width="16" height="19" viewBox="0 0 16 19" fill="none" xmlns="http://www.w3.org/2000/svg">
<path d="M14.008 3.94795C13.8834 3.8835 13.7621 3.81286 13.6445 3.73628C13.3029 3.51043 12.9897 3.24434 12.7117 2.94373C12.0151 2.14709 11.755 1.33896 11.6599 0.773674H11.6632C11.5836 0.303562 11.6164 0 11.6221 0H8.45114V12.2598C8.45114 12.4239 8.45114 12.5872 8.44458 12.748C8.44458 12.7677 8.44212 12.7857 8.4413 12.8079C8.4413 12.8161 8.4413 12.8259 8.43884 12.8349V12.8423C8.40554 13.2821 8.26466 13.7069 8.0286 14.0795C7.79255 14.452 7.46855 14.7608 7.08511 14.9788C6.68509 15.2063 6.23264 15.3257 5.77241 15.325C4.29562 15.325 3.09778 14.1206 3.09778 12.6331C3.09778 11.1448 4.29562 9.94044 5.77241 9.94044C6.05218 9.94044 6.33031 9.98474 6.59613 10.0717L6.60023 6.84246C5.79293 6.73831 4.9728 6.80264 4.19162 7.0314C3.41043 7.26017 2.68516 7.64839 2.06157 8.17157C1.51503 8.64623 1.05553 9.21262 0.703739 9.84527C0.570007 10.0758 0.0646172 11.0037 0.00390475 12.5084C-0.0346559 13.3617 0.222141 14.2477 0.344387 14.6128V14.621C0.420688 14.836 0.719327 15.5711 1.20503 16.1905C1.5967 16.6877 2.05947 17.1245 2.57844 17.4868V17.4786L2.58583 17.4868C4.12005 18.5288 5.82246 18.4607 5.82246 18.4607C6.11699 18.4484 7.10398 18.4607 8.2247 17.9299C9.46767 17.3408 10.1749 16.4637 10.1749 16.4637C10.627 15.9396 10.9866 15.3422 11.2382 14.6973C11.5253 13.9425 11.6205 13.0384 11.6205 12.6774V6.17216C11.6591 6.19513 12.1718 6.53397 12.1718 6.53397C12.1718 6.53397 12.9102 7.00737 14.0613 7.31503C14.8867 7.53409 16 7.58085 16 7.58085V4.43283C15.6103 4.47549 14.8186 4.35243 14.0072 3.94877L14.008 3.94795Z" fill="black"/>
</svg>
