<svg width="18" height="18" viewBox="0 0 18 18" fill="none" xmlns="http://www.w3.org/2000/svg">
<path d="M5.04591 0.464844C4.39747 0.640625 3.92482 1.13281 3.7881 1.76562C3.76076 1.90234 3.74513 2.66406 3.74513 4.0625C3.74513 5.69922 3.73341 6.15234 3.69826 6.16406C2.64747 6.48047 2.0381 6.82812 1.40138 7.47656C-0.473619 9.37109 -0.465807 12.4102 1.41701 14.2969C2.04982 14.9258 2.6631 15.2734 3.69826 15.5859C3.72951 15.5938 3.74513 15.6758 3.74513 15.8125C3.74513 16.6523 4.26076 17.3281 5.06154 17.5352C5.25294 17.5859 5.99904 17.5938 10.4522 17.5938C14.1279 17.5938 15.6748 17.582 15.8233 17.5508C16.2881 17.4492 16.7647 17.0938 16.9678 16.6953C17.1904 16.2539 17.1826 16.5352 17.1826 10.5039C17.1826 4.52344 17.1904 4.75391 16.9834 4.33984C16.8701 4.11328 13.5264 0.761719 13.2764 0.625C12.8662 0.402344 12.96 0.40625 8.94044 0.410156C5.89357 0.410156 5.21388 0.421875 5.04591 0.464844ZM11.8701 2.75C11.8701 3.64062 11.8858 4.22656 11.9131 4.35938C12.0498 5 12.5889 5.53906 13.2295 5.67578C13.3623 5.70312 13.9483 5.71875 14.8428 5.71875H16.2451L16.2373 10.9219L16.2256 16.1289L16.1318 16.2773C16.0811 16.3594 15.9678 16.4727 15.8818 16.5312L15.7217 16.6367H10.4639H5.20607L5.04591 16.5312C4.83497 16.3945 4.72169 16.1992 4.69435 15.9336L4.67091 15.7188H4.92091C5.23732 15.7188 5.82716 15.6289 6.20607 15.5234C6.90919 15.3242 7.70216 14.8516 8.25685 14.293C9.70607 12.8438 10.0889 10.6523 9.21388 8.81641C8.95607 8.27344 8.67872 7.87891 8.25685 7.45703C7.50294 6.70312 6.60841 6.25391 5.54201 6.08984C5.33888 6.05859 5.06154 6.03125 4.92872 6.03125H4.68263V4.02734C4.68263 2.74219 4.69826 1.97266 4.7256 1.87891C4.77638 1.69531 5.02638 1.4375 5.19826 1.38672C5.27638 1.36719 6.6631 1.34766 8.6006 1.34766L11.8701 1.34375V2.75ZM14.5147 3.07422C15.4014 3.96094 16.1279 4.70703 16.1279 4.73438C16.1279 4.77344 15.835 4.78125 14.7334 4.77344C13.3389 4.76172 13.335 4.76172 13.1865 4.66797C13.1045 4.61719 12.9912 4.50391 12.9326 4.41797L12.8272 4.26172L12.8154 2.85938C12.8076 1.75391 12.8154 1.46094 12.8545 1.46094C12.8818 1.46094 13.6279 2.1875 14.5147 3.07422ZM5.48341 7.02734C7.04591 7.30078 8.24513 8.42188 8.63966 9.97656C8.73732 10.375 8.75685 11.2539 8.67091 11.6367C8.40529 12.8477 7.65138 13.8242 6.56935 14.3672C5.55763 14.875 4.33107 14.9062 3.29591 14.457C1.24513 13.5625 0.3506 11.1289 1.34669 9.14453C2.12013 7.59766 3.80372 6.73438 5.48341 7.02734Z" fill="black" fill-opacity="0.8"/>
<path d="M7.78809 4.81641C7.61621 4.89063 7.51465 5.05078 7.51465 5.25391C7.51465 5.41797 7.53418 5.46094 7.64355 5.57031L7.76855 5.69922H8.90137H10.0342L10.1592 5.57031C10.2686 5.46094 10.2881 5.41797 10.2881 5.25C10.2881 5.08203 10.2686 5.03906 10.1592 4.92969L10.0342 4.80078L8.94824 4.79297C8.35449 4.78906 7.83105 4.80078 7.78809 4.81641Z" fill="black" fill-opacity="0.8"/>
<path d="M10.9131 7.31641C10.7412 7.39063 10.6396 7.55078 10.6396 7.75391C10.6396 7.91797 10.6592 7.96094 10.7686 8.07031L10.8936 8.19922H12.6514H14.4092L14.5342 8.07031C14.6436 7.96094 14.6631 7.91797 14.6631 7.75C14.6631 7.58203 14.6436 7.53906 14.5342 7.42969L14.4092 7.30078L12.6982 7.29297C11.7607 7.28906 10.9561 7.30078 10.9131 7.31641Z" fill="black" fill-opacity="0.8"/>
<path d="M11.5381 9.81641C11.3662 9.89063 11.2646 10.0508 11.2646 10.2539C11.2646 10.418 11.2842 10.4609 11.3936 10.5703L11.5186 10.6992H12.9639H14.4092L14.5342 10.5703C14.6436 10.4609 14.6631 10.418 14.6631 10.25C14.6631 10.082 14.6436 10.0391 14.5342 9.92969L14.4092 9.80078L13.0107 9.79297C12.2451 9.78906 11.5811 9.80078 11.5381 9.81641Z" fill="black" fill-opacity="0.8"/>
<path d="M10.9131 12.3164C10.7412 12.3906 10.6396 12.5508 10.6396 12.7539C10.6396 12.918 10.6592 12.9609 10.7686 13.0703L10.8936 13.1992H12.6514H14.4092L14.5342 13.0703C14.6436 12.9609 14.6631 12.918 14.6631 12.75C14.6631 12.582 14.6436 12.5391 14.5342 12.4297L14.4092 12.3008L12.6982 12.293C11.7607 12.2891 10.9561 12.3008 10.9131 12.3164Z" fill="black" fill-opacity="0.8"/>
<path d="M4.61646 8.60937C4.39771 8.73828 4.3899 8.78125 4.37818 9.78125L4.36255 10.6992L3.94068 11.1289C3.50318 11.5781 3.44068 11.6914 3.49146 11.9297C3.52661 12.082 3.75318 12.2812 3.89771 12.2812C4.03443 12.2812 4.22193 12.1328 4.85083 11.5312L5.30786 11.0898V9.95703C5.30786 8.71484 5.30786 8.71094 5.07349 8.58984C4.92115 8.51172 4.7649 8.51562 4.61646 8.60937Z" fill="black" fill-opacity="0.8"/>
</svg>
