<svg width="16" height="14" viewBox="0 0 16 14" fill="none" xmlns="http://www.w3.org/2000/svg">
<path d="M5.026 13.2307C11.064 13.2307 14.367 8.22767 14.367 3.89667C14.367 3.75667 14.367 3.61467 14.361 3.47467C15.0041 3.00916 15.5591 2.43283 16 1.77267C15.3993 2.03752 14.7628 2.21208 14.111 2.29067C14.7975 1.88031 15.3117 1.23464 15.558 0.473674C14.913 0.855798 14.207 1.12405 13.471 1.26667C12.9762 0.739697 12.3214 0.390591 11.6081 0.273431C10.8948 0.156271 10.1627 0.277595 9.52534 0.618611C8.88796 0.959627 8.38081 1.5013 8.08245 2.15973C7.78409 2.81817 7.71118 3.55661 7.875 4.26067C6.56974 4.19523 5.29282 3.85614 4.12704 3.26542C2.96127 2.67469 1.93268 1.84552 1.108 0.831674C0.68934 1.55476 0.561574 2.41007 0.750646 3.22394C0.939718 4.03781 1.43145 4.7492 2.126 5.21367C1.60554 5.19599 1.09652 5.05623 0.64 4.80567V4.85067C0.640897 5.60815 0.903307 6.34209 1.38287 6.92843C1.86244 7.51477 2.52975 7.91755 3.272 8.06867C2.99026 8.14629 2.69923 8.18498 2.407 8.18367C2.20098 8.1843 1.99538 8.16521 1.793 8.12667C2.00279 8.77873 2.41127 9.34884 2.96125 9.75715C3.51122 10.1655 4.17513 10.3915 4.86 10.4037C3.69656 11.3175 2.2594 11.8131 0.78 11.8107C0.519321 11.8118 0.258823 11.7967 0 11.7657C1.50151 12.7229 3.2453 13.2312 5.026 13.2307Z" fill="black"/>
</svg>
