<svg width="451" height="450" viewBox="0 0 451 450" fill="none" xmlns="http://www.w3.org/2000/svg">
<path fill-rule="evenodd" clip-rule="evenodd" d="M257.169 133.168L257.188 134.409L257.243 135.65L257.335 136.895L257.462 138.143L257.624 139.396L257.817 140.656L258.04 141.924L258.29 143.2L258.564 144.485L258.859 145.78L259.171 147.085L259.495 148.401L259.827 149.727L260.161 151.064L260.492 152.411L260.815 153.768L261.124 155.133L261.412 156.505L261.672 157.882L261.899 159.263L262.085 160.646L262.225 162.028L262.311 163.406L262.338 164.778L262.3 166.141L262.191 167.491L262.007 168.825L261.743 170.14L261.395 171.433L260.962 172.699L260.441 173.937L259.831 175.143L259.132 176.314L258.345 177.448L257.472 178.543L256.517 179.597L255.482 180.609L254.372 181.579L253.194 182.505L251.951 183.389L250.653 184.23L249.304 185.031L247.913 185.793L246.488 186.517L245.035 187.206L243.564 187.863L242.08 188.492L240.593 189.095L239.109 189.676L237.636 190.239L236.18 190.789L234.748 191.329L233.345 191.863L231.978 192.398L230.652 192.936L229.371 193.482L228.14 194.042L226.964 194.62L225.847 195.221L224.792 195.851L223.802 196.514L222.881 197.215L222.033 197.96L221.26 198.756L220.565 199.607L219.952 200.521L219.423 201.503L218.982 202.562L218.633 203.705L218.379 204.94L218.224 206.276L218.174 207.723L218.232 209.293L218.406 210.998L218.702 212.851L219.127 214.867L219.69 217.065L220.401 219.464L219.665 220.464L217.249 219.74L215.036 219.166L213.006 218.73L211.14 218.425L209.424 218.241L207.844 218.174L206.387 218.216L205.043 218.362L203.8 218.608L202.651 218.95L201.586 219.384L200.597 219.906L199.678 220.513L198.822 221.201L198.023 221.968L197.273 222.811L196.569 223.725L195.903 224.71L195.271 225.76L194.668 226.873L194.088 228.044L193.527 229.27L192.979 230.547L192.441 231.87L191.907 233.234L191.372 234.634L190.833 236.065L190.284 237.519L189.722 238.991L189.142 240.474L188.541 241.961L187.915 243.445L187.26 244.918L186.573 246.372L185.852 247.8L185.094 249.194L184.296 250.546L183.458 251.849L182.578 253.096L181.655 254.28L180.689 255.396L179.68 256.437L178.629 257.399L177.537 258.278L176.406 259.072L175.238 259.778L174.035 260.395L172.8 260.923L171.535 261.363L170.245 261.718L168.931 261.988L167.599 262.179L166.25 262.293L164.888 262.337L163.516 262.315L162.138 262.233L160.757 262.098L159.374 261.915L157.993 261.691L156.615 261.433L155.242 261.147L153.877 260.84L152.52 260.518L151.172 260.187L149.834 259.852L148.507 259.52L147.19 259.196L145.884 258.883L144.588 258.586L143.302 258.31L142.026 258.058L140.758 257.833L139.497 257.637L138.243 257.473L136.994 257.343L135.75 257.249L134.508 257.19L133.268 257.169L132.028 257.184L130.786 257.237L129.542 257.326L128.294 257.45L127.041 257.609L125.782 257.8L124.515 258.02L123.24 258.269L121.956 258.541L120.662 258.834L119.357 259.145L118.042 259.468L116.716 259.799L115.38 260.134L114.034 260.466L112.678 260.789L111.314 261.099L109.942 261.389L108.565 261.652L107.184 261.881L105.802 262.071L104.42 262.215L103.041 262.306L101.668 262.338L100.305 262.305L98.9534 262.202L97.6178 262.024L96.3011 261.766L95.0068 261.425L93.738 260.999L92.498 260.485L91.2896 259.882L90.1157 259.19L88.9787 258.41L87.8806 257.544L86.8231 256.595L85.8075 255.566L84.8346 254.463L83.9047 253.289L83.0176 252.052L82.1726 250.757L81.3687 249.413L80.6042 248.025L79.8772 246.602L79.1853 245.151L78.5256 243.681L77.895 242.198L77.2901 240.711L76.7074 239.227L76.1428 237.752L75.5923 236.295L75.0518 234.86L74.5167 233.455L73.9827 232.085L73.4451 230.755L72.8994 229.47L72.3407 228.236L71.7642 227.055L71.165 225.933L70.538 224.873L69.8782 223.878L69.1801 222.951L68.4383 222.097L67.647 221.318L66.8003 220.617L65.8919 219.997L64.9151 219.461L63.8627 219.013L62.7271 218.657L61.4999 218.395L60.1722 218.232L58.7339 218.173L57.1742 218.223L55.4808 218.388L53.6403 218.673L51.6373 219.088L49.4547 219.639L47.0729 220.338L45.8096 219.866L46.5453 217.433L47.1311 215.205L47.5774 213.16L47.8931 211.283L48.0859 209.555L48.1626 207.965L48.1291 206.499L47.9908 205.145L47.7523 203.895L47.4179 202.738L46.9914 201.667L46.4765 200.673L45.8764 199.748L45.1944 198.888L44.4335 198.084L43.5969 197.331L42.6875 196.622L41.7087 195.954L40.6636 195.32L39.5558 194.714L38.3889 194.133L37.1668 193.57L35.8937 193.022L34.5742 192.483L33.2132 191.948L31.8159 191.414L30.3879 190.875L28.9353 190.327L27.4643 189.767L25.9818 189.189L24.4947 188.589L23.0103 187.965L21.5362 187.313L20.0802 186.629L18.6498 185.91L17.253 185.155L15.8972 184.361L14.59 183.526L13.3384 182.649L12.1491 181.729L11.0282 180.766L9.98108 179.761L9.01256 178.713L8.12652 177.625L7.32597 176.497L6.61301 175.332L5.98876 174.131L5.45338 172.899L5.00608 171.636L4.64515 170.348L4.36799 169.036L4.17119 167.705L4.05062 166.357L4.00149 164.996L4.01849 163.625L4.09584 162.248L4.22742 160.866L4.40686 159.483L4.62765 158.102L4.88322 156.724L5.16702 155.351L5.47261 153.985L5.79371 152.627L6.12427 151.278L6.45851 149.94L6.79095 148.611L7.11649 147.294L7.43035 145.987L7.72818 144.69L8.00602 143.404L8.26029 142.126L8.48787 140.858L8.68601 139.597L8.8524 138.342L8.98515 137.093L9.08276 135.848L9.14415 134.606L9.16864 133.366L9.15597 132.126L9.10628 130.885L9.02011 129.641L8.89842 128.393L8.74255 127.141L8.55429 125.882L8.33582 124.616L8.08973 123.341L7.81903 122.058L7.52716 120.764L7.21794 119.461L6.89563 118.146L6.56485 116.822L6.2306 115.486L5.89826 114.141L5.5735 112.786L5.2623 111.422L4.97086 110.051L4.70559 108.674L4.47301 107.294L4.27969 105.911L4.13217 104.529L4.03687 103.15L4 101.777L4.02746 100.412L4.12472 99.0598L4.29676 97.7229L4.54792 96.4046L4.88185 95.1083L5.30141 93.8374L5.80859 92.5949L6.40451 91.384L7.08929 90.2072L7.86212 89.0672L8.72122 87.9659L9.66384 86.9052L10.6864 85.8862L11.7843 84.9099L12.9525 83.9765L14.185 83.086L15.4752 82.2377L16.8163 81.4306L18.2009 80.6631L19.6214 79.9332L21.0701 79.2385L22.5393 78.5763L24.0212 77.9436L25.5082 77.3368L26.993 76.7524L28.4684 76.1865L29.9276 75.6351L31.3641 75.0939L32.7718 74.5585L34.145 74.0246L35.4782 73.4875L36.7666 72.9426L38.0054 72.3851L39.1903 71.8102L40.3174 71.213L41.3828 70.5885L42.3831 69.9314L43.3149 69.2366L44.1751 68.4984L44.9604 67.7113L45.6679 66.8693L46.2944 65.966L46.8368 64.9949L47.2919 63.9488L47.656 62.8201L47.9255 61.6005L48.0962 60.2811L48.1636 58.8521L48.1226 57.3025L47.9675 55.6202L47.6918 53.792L47.288 51.8025L46.7476 49.6349L46.0609 47.2697L46.2688 45.7436L48.7187 46.4917L50.9625 47.089L53.0207 47.5461L54.9112 47.8719L56.6499 48.0742L58.2508 48.1599L59.7265 48.1351L61.0883 48.0049L62.3465 47.7742L63.5104 47.4473L64.5884 47.028L65.5885 46.52L66.518 45.9266L67.3836 45.2509L68.1919 44.4962L68.9488 43.6655L69.6602 42.7619L70.3317 41.7885L70.9686 40.7485L71.576 39.6456L72.1592 38.4832L72.7231 37.2653L73.2724 35.9962L73.8121 34.6802L74.3467 33.3223L74.8809 31.9277L75.4193 30.502L75.9661 29.051L76.5257 27.5813L77.1023 26.0994L77.6997 24.6124L78.3217 23.1276L78.9718 21.6524L79.6531 20.1946L80.3687 18.7619L81.121 17.3621L81.9121 16.0028L82.7439 14.6915L83.6175 13.4352L84.5337 12.2407L85.493 11.1141L86.495 10.061L87.5393 9.08606L88.6246 8.19332L89.7494 7.38588L90.9118 6.66589L92.1095 6.03455L93.3397 5.49211L94.5997 5.03786L95.8863 4.67013L97.1962 4.38641L98.5261 4.18335L99.8728 4.05688L101.233 4.00226L102.603 4.0142L103.98 4.08696L105.361 4.21445L106.744 4.39031L108.126 4.60805L109.504 4.86109L110.878 5.14288L112.244 5.44697L113.603 5.76706L114.952 6.09708L116.292 6.43123L117.621 6.76401L118.939 7.09028L120.247 7.40524L121.545 7.70449L122.832 7.98406L124.11 8.24033L125.379 8.47013L126.641 8.67071L127.896 8.83971L129.145 8.9752L130.39 9.07565L131.632 9.13995L132.873 9.1674L134.113 9.15769L135.354 9.11093L136.598 9.02764L137.845 8.90873L139.097 8.75553L140.355 8.56977L141.621 8.35361L142.895 8.10961L144.177 7.84076L145.47 7.55043L146.773 7.24245L148.086 6.92102L149.41 6.59073L150.745 6.25657L152.089 5.92387L153.444 5.59829L154.807 5.28578L156.177 4.99254L157.553 4.72495L158.934 4.48952L160.316 4.29283L161.699 4.14143L163.078 4.04174L164.452 4L165.817 4.02213L167.171 4.11365L168.509 4.27956L169.829 4.52428L171.127 4.8515L172.4 5.26415L173.645 5.76431L174.858 6.35314L176.038 7.03086L177.181 7.79674L178.285 8.64905L179.349 9.58514L180.372 10.6015L181.352 11.6936L182.288 12.8564L183.182 14.084L184.034 15.3699L184.844 16.7071L185.615 18.0885L186.348 19.5065L187.045 20.9532L187.71 22.4211L188.345 23.9022L188.953 25.3891L189.539 26.8744L190.107 28.3508L190.659 29.8115L191.201 31.25L191.736 32.6602L192.27 34.0363L192.807 35.373L193.351 36.6651L193.908 37.908L194.481 39.0974L195.076 40.2292L195.698 41.2997L196.353 42.3053L197.044 43.2427L197.779 44.1086L198.562 44.9L199.399 45.6138L200.297 46.2469L201.263 46.7962L202.303 47.2583L203.424 47.6298L204.636 47.907L205.947 48.0857L207.367 48.1615L208.907 48.1293L210.578 47.9835L212.394 47.7176L214.37 47.3243L216.523 46.7952L218.872 46.1205L220.66 46.0635L219.9 48.5308L219.291 50.7902L218.823 52.8625L218.487 54.7658L218.275 56.516L218.18 58.1274L218.197 59.6127L218.319 60.9832L218.541 62.2493L218.861 63.4203L219.273 64.5049L219.774 65.5109L220.361 66.4457L221.03 67.3162L221.778 68.1288L222.603 68.8896L223.501 69.6045L224.469 70.2789L225.504 70.9183L226.602 71.528L227.76 72.1129L228.973 72.6781L230.239 73.2284L231.551 73.7687L232.906 74.3035L234.298 74.8376L235.721 75.3755L237.17 75.9215L238.639 76.48L240.12 77.055L241.607 77.6506L243.092 78.2705L244.568 78.9182L246.028 79.597L247.463 80.3098L248.865 81.059L250.228 81.847L251.544 82.6755L252.804 83.5457L254.004 84.4585L255.136 85.4144L256.196 86.413L257.177 87.4539L258.076 88.536L258.891 89.6578L259.618 90.8173L260.256 92.0122L260.806 93.24L261.267 94.4977L261.641 95.7823L261.932 97.0904L262.141 98.4189L262.273 99.7643L262.333 101.123L262.327 102.493L262.258 103.87L262.135 105.251L261.963 106.633L261.748 108.015L261.498 109.394L261.218 110.768L260.915 112.135L260.596 113.494L260.267 114.845L259.933 116.185L259.6 117.515L259.273 118.834L258.957 120.143L258.656 121.441L258.375 122.729L258.117 124.008L257.885 125.278L257.682 126.54L257.51 127.795L257.372 129.045L257.269 130.291L257.201 131.533L257.171 132.773L257.169 133.168Z" fill="#FF7701"/>
<path fill-rule="evenodd" clip-rule="evenodd" d="M444.169 129.168L444.188 130.409L444.243 131.65L444.335 132.895L444.462 134.143L444.624 135.396L444.817 136.656L445.04 137.924L445.29 139.2L445.564 140.485L445.859 141.78L446.171 143.085L446.495 144.401L446.827 145.727L447.161 147.064L447.492 148.411L447.815 149.768L448.124 151.133L448.412 152.505L448.672 153.882L448.899 155.263L449.085 156.646L449.225 158.028L449.311 159.406L449.338 160.778L449.3 162.141L449.191 163.491L449.007 164.825L448.743 166.14L448.395 167.433L447.962 168.699L447.441 169.937L446.831 171.143L446.132 172.314L445.345 173.448L444.472 174.543L443.517 175.597L442.482 176.609L441.372 177.579L440.194 178.505L438.951 179.389L437.653 180.23L436.304 181.031L434.913 181.793L433.488 182.517L432.035 183.206L430.564 183.863L429.08 184.492L427.593 185.095L426.109 185.676L424.636 186.239L423.18 186.789L421.748 187.329L420.345 187.863L418.978 188.398L417.652 188.936L416.371 189.482L415.14 190.042L413.964 190.62L412.847 191.221L411.792 191.851L410.802 192.514L409.881 193.215L409.033 193.96L408.26 194.756L407.565 195.607L406.952 196.521L406.423 197.503L405.982 198.562L405.633 199.705L405.379 200.94L405.224 202.276L405.174 203.723L405.232 205.293L405.406 206.998L405.702 208.851L406.127 210.867L406.69 213.065L407.401 215.464L406.665 216.464L404.249 215.74L402.036 215.166L400.006 214.73L398.14 214.425L396.424 214.241L394.844 214.174L393.387 214.216L392.043 214.362L390.8 214.608L389.651 214.95L388.586 215.384L387.597 215.906L386.678 216.513L385.822 217.201L385.023 217.968L384.273 218.811L383.569 219.725L382.903 220.71L382.271 221.76L381.668 222.873L381.088 224.044L380.527 225.27L379.979 226.547L379.441 227.87L378.907 229.234L378.372 230.634L377.833 232.065L377.284 233.519L376.722 234.991L376.142 236.474L375.541 237.961L374.915 239.445L374.26 240.918L373.573 242.372L372.852 243.8L372.094 245.194L371.296 246.546L370.458 247.849L369.578 249.096L368.655 250.28L367.689 251.396L366.68 252.437L365.629 253.399L364.537 254.278L363.406 255.072L362.238 255.778L361.035 256.395L359.8 256.923L358.535 257.363L357.245 257.718L355.931 257.988L354.599 258.179L353.25 258.293L351.888 258.337L350.516 258.315L349.138 258.233L347.757 258.098L346.374 257.915L344.993 257.691L343.615 257.433L342.242 257.147L340.877 256.84L339.52 256.518L338.172 256.187L336.834 255.852L335.507 255.52L334.19 255.196L332.884 254.883L331.588 254.586L330.302 254.31L329.026 254.058L327.758 253.833L326.497 253.637L325.243 253.473L323.994 253.343L322.75 253.249L321.508 253.19L320.268 253.169L319.028 253.184L317.786 253.237L316.542 253.326L315.294 253.45L314.041 253.609L312.782 253.8L311.515 254.02L310.24 254.269L308.956 254.541L307.662 254.834L306.357 255.145L305.042 255.468L303.716 255.799L302.38 256.134L301.034 256.466L299.678 256.789L298.314 257.099L296.942 257.389L295.565 257.652L294.184 257.881L292.802 258.071L291.42 258.215L290.041 258.306L288.668 258.338L287.305 258.305L285.953 258.202L284.618 258.024L283.301 257.766L282.007 257.425L280.738 256.999L279.498 256.485L278.29 255.882L277.116 255.19L275.979 254.41L274.881 253.544L273.823 252.595L272.808 251.566L271.835 250.463L270.905 249.289L270.018 248.052L269.173 246.757L268.369 245.413L267.604 244.025L266.877 242.602L266.185 241.151L265.526 239.681L264.895 238.198L264.29 236.711L263.707 235.227L263.143 233.752L262.592 232.295L262.052 230.86L261.517 229.455L260.983 228.085L260.445 226.755L259.899 225.47L259.341 224.236L258.764 223.055L258.165 221.933L257.538 220.873L256.878 219.878L256.18 218.951L255.438 218.097L254.647 217.318L253.8 216.617L252.892 215.997L251.915 215.461L250.863 215.013L249.727 214.657L248.5 214.395L247.172 214.232L245.734 214.173L244.174 214.223L242.481 214.388L240.64 214.673L238.637 215.088L236.455 215.639L234.073 216.338L232.81 215.866L233.545 213.433L234.131 211.205L234.577 209.16L234.893 207.283L235.086 205.555L235.163 203.965L235.129 202.499L234.991 201.145L234.752 199.895L234.418 198.738L233.991 197.667L233.476 196.673L232.876 195.748L232.194 194.888L231.433 194.084L230.597 193.331L229.688 192.622L228.709 191.954L227.664 191.32L226.556 190.714L225.389 190.133L224.167 189.57L222.894 189.022L221.574 188.483L220.213 187.948L218.816 187.414L217.388 186.875L215.935 186.327L214.464 185.767L212.982 185.189L211.495 184.589L210.01 183.965L208.536 183.313L207.08 182.629L205.65 181.91L204.253 181.155L202.897 180.361L201.59 179.526L200.338 178.649L199.149 177.729L198.028 176.766L196.981 175.761L196.013 174.713L195.127 173.625L194.326 172.497L193.613 171.332L192.989 170.131L192.453 168.899L192.006 167.636L191.645 166.348L191.368 165.036L191.171 163.705L191.051 162.357L191.001 160.996L191.018 159.625L191.096 158.248L191.227 156.866L191.407 155.483L191.628 154.102L191.883 152.724L192.167 151.351L192.473 149.985L192.794 148.627L193.124 147.278L193.459 145.94L193.791 144.611L194.116 143.294L194.43 141.987L194.728 140.69L195.006 139.404L195.26 138.126L195.488 136.858L195.686 135.597L195.852 134.342L195.985 133.093L196.083 131.848L196.144 130.606L196.169 129.366L196.156 128.126L196.106 126.885L196.02 125.641L195.898 124.393L195.743 123.141L195.554 121.882L195.336 120.616L195.09 119.341L194.819 118.058L194.527 116.764L194.218 115.461L193.896 114.146L193.565 112.822L193.231 111.486L192.898 110.141L192.574 108.786L192.262 107.422L191.971 106.051L191.706 104.674L191.473 103.294L191.28 101.911L191.132 100.529L191.037 99.1499L191 97.7766L191.027 96.4122L191.125 95.0598L191.297 93.7229L191.548 92.4046L191.882 91.1083L192.301 89.8374L192.809 88.5949L193.405 87.384L194.089 86.2072L194.862 85.0672L195.721 83.9659L196.664 82.9052L197.686 81.8862L198.784 80.9099L199.953 79.9765L201.185 79.086L202.475 78.2377L203.816 77.4306L205.201 76.6631L206.621 75.9332L208.07 75.2385L209.539 74.5763L211.021 73.9436L212.508 73.3368L213.993 72.7524L215.468 72.1865L216.928 71.6351L218.364 71.0939L219.772 70.5585L221.145 70.0246L222.478 69.4875L223.767 68.9426L225.005 68.3851L226.19 67.8102L227.317 67.213L228.383 66.5885L229.383 65.9314L230.315 65.2366L231.175 64.4984L231.96 63.7113L232.668 62.8693L233.294 61.966L233.837 60.9949L234.292 59.9488L234.656 58.8201L234.926 57.6005L235.096 56.2811L235.164 54.8521L235.123 53.3025L234.968 51.6202L234.692 49.792L234.288 47.8025L233.748 45.6349L233.061 43.2697L233.269 41.7436L235.719 42.4917L237.962 43.089L240.021 43.5461L241.911 43.8719L243.65 44.0742L245.251 44.1599L246.727 44.1351L248.088 44.0049L249.347 43.7742L250.51 43.4473L251.588 43.028L252.589 42.52L253.518 41.9266L254.384 41.2509L255.192 40.4962L255.949 39.6655L256.66 38.7619L257.332 37.7885L257.969 36.7485L258.576 35.6456L259.159 34.4832L259.723 33.2653L260.272 31.9962L260.812 30.6802L261.347 29.3223L261.881 27.9277L262.419 26.502L262.966 25.051L263.526 23.5813L264.102 22.0994L264.7 20.6124L265.322 19.1276L265.972 17.6524L266.653 16.1946L267.369 14.7619L268.121 13.3621L268.912 12.0028L269.744 10.6915L270.617 9.43522L271.534 8.24072L272.493 7.11413L273.495 6.06098L274.539 5.08606L275.625 4.19332L276.749 3.38588L277.912 2.66589L279.109 2.03455L280.34 1.49211L281.6 1.03786L282.886 0.67013L284.196 0.38641L285.526 0.183353L286.873 0.0568792L288.233 0.00225572L289.603 0.0141958L290.98 0.0869574L292.361 0.214445L293.744 0.39031L295.126 0.608048L296.504 0.861089L297.878 1.14288L299.244 1.44697L300.603 1.76706L301.952 2.09708L303.292 2.43123L304.621 2.76401L305.939 3.09028L307.247 3.40524L308.545 3.70449L309.832 3.98406L311.11 4.24033L312.379 4.47013L313.641 4.67071L314.896 4.83971L316.145 4.9752L317.39 5.07565L318.632 5.13995L319.873 5.1674L321.113 5.15769L322.354 5.11093L323.598 5.02764L324.845 4.90873L326.097 4.75553L327.355 4.56977L328.621 4.35361L329.895 4.10961L331.177 3.84076L332.47 3.55043L333.773 3.24245L335.086 2.92102L336.41 2.59073L337.745 2.25657L339.089 1.92387L340.444 1.59829L341.807 1.28578L343.177 0.992541L344.553 0.72495L345.934 0.489524L347.316 0.292835L348.699 0.141429L350.078 0.0417408L351.452 0L352.817 0.0221298L354.171 0.113647L355.509 0.279562L356.829 0.524276L358.127 0.851498L359.4 1.26415L360.645 1.76431L361.858 2.35314L363.038 3.03086L364.181 3.79674L365.285 4.64905L366.349 5.58514L367.372 6.60147L368.352 7.69361L369.288 8.85639L370.182 10.084L371.034 11.3699L371.844 12.7071L372.615 14.0885L373.348 15.5065L374.045 16.9532L374.71 18.4211L375.345 19.9022L375.953 21.3891L376.539 22.8744L377.107 24.3508L377.659 25.8115L378.201 27.25L378.736 28.6602L379.27 30.0363L379.807 31.373L380.351 32.6651L380.908 33.908L381.481 35.0974L382.076 36.2292L382.698 37.2997L383.353 38.3053L384.044 39.2427L384.779 40.1086L385.562 40.9L386.399 41.6138L387.297 42.2469L388.263 42.7962L389.303 43.2583L390.424 43.6298L391.636 43.907L392.947 44.0857L394.367 44.1615L395.907 44.1293L397.578 43.9835L399.394 43.7176L401.37 43.3243L403.523 42.7952L405.872 42.1205L407.66 42.0635L406.9 44.5308L406.291 46.7902L405.823 48.8625L405.487 50.7658L405.275 52.516L405.18 54.1274L405.197 55.6127L405.319 56.9832L405.541 58.2493L405.861 59.4203L406.273 60.5049L406.774 61.5109L407.361 62.4457L408.03 63.3162L408.778 64.1288L409.603 64.8896L410.501 65.6045L411.469 66.2789L412.504 66.9183L413.602 67.528L414.76 68.1129L415.973 68.6781L417.239 69.2284L418.551 69.7687L419.906 70.3035L421.298 70.8376L422.721 71.3755L424.17 71.9215L425.639 72.48L427.12 73.055L428.607 73.6506L430.092 74.2705L431.568 74.9182L433.028 75.597L434.463 76.3098L435.865 77.059L437.228 77.847L438.544 78.6755L439.804 79.5457L441.004 80.4585L442.136 81.4144L443.196 82.413L444.177 83.4539L445.076 84.536L445.891 85.6578L446.618 86.8173L447.256 88.0122L447.806 89.24L448.267 90.4977L448.641 91.7823L448.932 93.0904L449.141 94.4189L449.273 95.7643L449.333 97.1234L449.327 98.4928L449.258 99.8695L449.135 101.251L448.963 102.633L448.748 104.015L448.498 105.394L448.218 106.768L447.915 108.135L447.596 109.494L447.267 110.845L446.933 112.185L446.6 113.515L446.273 114.834L445.957 116.143L445.656 117.441L445.375 118.729L445.117 120.008L444.885 121.278L444.682 122.54L444.51 123.795L444.372 125.045L444.269 126.291L444.201 127.533L444.171 128.773L444.169 129.168Z" fill="#FF7701"/>
<path fill-rule="evenodd" clip-rule="evenodd" d="M253.169 313.168L253.188 314.409L253.243 315.65L253.335 316.895L253.462 318.143L253.624 319.396L253.817 320.656L254.04 321.924L254.29 323.2L254.564 324.485L254.859 325.78L255.171 327.085L255.495 328.401L255.827 329.727L256.161 331.064L256.492 332.411L256.815 333.768L257.124 335.133L257.412 336.505L257.672 337.882L257.899 339.263L258.085 340.646L258.225 342.028L258.311 343.406L258.338 344.778L258.3 346.141L258.191 347.491L258.007 348.825L257.743 350.14L257.395 351.433L256.962 352.699L256.441 353.937L255.831 355.143L255.132 356.314L254.345 357.448L253.472 358.543L252.517 359.597L251.482 360.609L250.372 361.579L249.194 362.505L247.951 363.389L246.653 364.23L245.304 365.031L243.913 365.793L242.488 366.517L241.035 367.206L239.564 367.863L238.08 368.492L236.593 369.095L235.109 369.676L233.636 370.239L232.18 370.789L230.748 371.329L229.345 371.863L227.978 372.398L226.652 372.936L225.371 373.482L224.14 374.042L222.964 374.62L221.847 375.221L220.792 375.851L219.802 376.514L218.881 377.215L218.033 377.96L217.26 378.756L216.565 379.607L215.952 380.521L215.423 381.503L214.982 382.562L214.633 383.705L214.379 384.94L214.224 386.276L214.174 387.723L214.232 389.293L214.406 390.998L214.702 392.851L215.127 394.867L215.69 397.065L216.401 399.464L215.665 400.464L213.249 399.74L211.036 399.166L209.006 398.73L207.14 398.425L205.424 398.241L203.844 398.174L202.387 398.216L201.043 398.362L199.8 398.608L198.651 398.95L197.586 399.384L196.597 399.906L195.678 400.513L194.822 401.201L194.023 401.968L193.273 402.811L192.569 403.725L191.903 404.71L191.271 405.76L190.668 406.873L190.088 408.044L189.527 409.27L188.979 410.547L188.441 411.87L187.907 413.234L187.372 414.634L186.833 416.065L186.284 417.519L185.722 418.991L185.142 420.474L184.541 421.961L183.915 423.445L183.26 424.918L182.573 426.372L181.852 427.8L181.094 429.194L180.296 430.546L179.458 431.849L178.578 433.096L177.655 434.28L176.689 435.396L175.68 436.437L174.629 437.399L173.537 438.278L172.406 439.072L171.238 439.778L170.035 440.395L168.8 440.923L167.535 441.363L166.245 441.718L164.931 441.988L163.599 442.179L162.25 442.293L160.888 442.337L159.516 442.315L158.138 442.233L156.757 442.098L155.374 441.915L153.993 441.691L152.615 441.433L151.242 441.147L149.877 440.84L148.52 440.518L147.172 440.187L145.834 439.852L144.507 439.52L143.19 439.196L141.884 438.883L140.588 438.586L139.302 438.31L138.026 438.058L136.758 437.833L135.497 437.637L134.243 437.473L132.994 437.343L131.75 437.249L130.508 437.19L129.268 437.169L128.028 437.184L126.786 437.237L125.542 437.326L124.294 437.45L123.041 437.609L121.782 437.8L120.515 438.02L119.24 438.269L117.956 438.541L116.662 438.834L115.357 439.145L114.042 439.468L112.716 439.799L111.38 440.134L110.034 440.466L108.678 440.789L107.314 441.099L105.942 441.389L104.565 441.652L103.184 441.881L101.802 442.071L100.42 442.215L99.0409 442.306L97.6682 442.338L96.3047 442.305L94.9534 442.202L93.6178 442.024L92.3011 441.766L91.0068 441.425L89.738 440.999L88.498 440.485L87.2896 439.882L86.1157 439.19L84.9787 438.41L83.8806 437.544L82.8231 436.595L81.8075 435.566L80.8346 434.463L79.9047 433.289L79.0176 432.052L78.1726 430.757L77.3687 429.413L76.6042 428.025L75.8772 426.602L75.1853 425.151L74.5256 423.681L73.895 422.198L73.2901 420.711L72.7074 419.227L72.1428 417.752L71.5923 416.295L71.0518 414.86L70.5167 413.455L69.9827 412.085L69.4451 410.755L68.8994 409.47L68.3407 408.236L67.7642 407.055L67.165 405.933L66.538 404.873L65.8782 403.878L65.1801 402.951L64.4383 402.097L63.647 401.318L62.8003 400.617L61.8919 399.997L60.9151 399.461L59.8627 399.013L58.7271 398.657L57.4999 398.395L56.1722 398.232L54.7339 398.173L53.1742 398.223L51.4808 398.388L49.6403 398.673L47.6373 399.088L45.4547 399.639L43.0729 400.338L41.8096 399.866L42.5453 397.433L43.1311 395.205L43.5774 393.16L43.8931 391.283L44.0859 389.555L44.1626 387.965L44.1291 386.499L43.9908 385.145L43.7523 383.895L43.4179 382.738L42.9914 381.667L42.4765 380.673L41.8764 379.748L41.1944 378.888L40.4335 378.084L39.5969 377.331L38.6875 376.622L37.7087 375.954L36.6636 375.32L35.5558 374.714L34.3889 374.133L33.1668 373.57L31.8937 373.022L30.5742 372.483L29.2132 371.948L27.8159 371.414L26.3879 370.875L24.9353 370.327L23.4643 369.767L21.9818 369.189L20.4947 368.589L19.0103 367.965L17.5362 367.313L16.0802 366.629L14.6498 365.91L13.253 365.155L11.8972 364.361L10.59 363.526L9.33841 362.649L8.14909 361.729L7.02816 360.766L5.98108 359.761L5.01256 358.713L4.12652 357.625L3.32597 356.497L2.61301 355.332L1.98876 354.131L1.45338 352.899L1.00608 351.636L0.645151 350.348L0.367987 349.036L0.171188 347.705L0.0506168 346.357L0.00149431 344.996L0.0184935 343.625L0.0958404 342.248L0.227416 340.866L0.406855 339.483L0.627646 338.102L0.883215 336.724L1.16702 335.351L1.47261 333.985L1.79371 332.627L2.12427 331.278L2.45851 329.94L2.79095 328.611L3.11649 327.294L3.43035 325.987L3.72818 324.69L4.00602 323.404L4.26029 322.126L4.48787 320.858L4.68601 319.597L4.8524 318.342L4.98515 317.093L5.08276 315.848L5.14415 314.606L5.16864 313.366L5.15597 312.126L5.10628 310.885L5.02011 309.641L4.89842 308.393L4.74255 307.141L4.55429 305.882L4.33582 304.616L4.08973 303.341L3.81903 302.058L3.52716 300.764L3.21794 299.461L2.89563 298.146L2.56485 296.822L2.2306 295.486L1.89826 294.141L1.5735 292.786L1.2623 291.422L0.970861 290.051L0.705591 288.674L0.473009 287.294L0.279687 285.911L0.132165 284.529L0.036867 283.15L0 281.777L0.0274592 280.412L0.124725 279.06L0.296762 277.723L0.547921 276.405L0.881849 275.108L1.30141 273.837L1.80859 272.595L2.40451 271.384L3.08929 270.207L3.86212 269.067L4.72122 267.966L5.66384 266.905L6.68638 265.886L7.78435 264.91L8.95251 263.977L10.185 263.086L11.4752 262.238L12.8163 261.431L14.2009 260.663L15.6214 259.933L17.0701 259.238L18.5393 258.576L20.0212 257.944L21.5082 257.337L22.993 256.752L24.4684 256.187L25.9276 255.635L27.3641 255.094L28.7718 254.559L30.145 254.025L31.4782 253.488L32.7666 252.943L34.0054 252.385L35.1903 251.81L36.3174 251.213L37.3828 250.588L38.3831 249.931L39.3149 249.237L40.1751 248.498L40.9604 247.711L41.6679 246.869L42.2944 245.966L42.8368 244.995L43.2919 243.949L43.656 242.82L43.9255 241.601L44.0962 240.281L44.1636 238.852L44.1226 237.302L43.9675 235.62L43.6918 233.792L43.288 231.803L42.7476 229.635L42.0609 227.27L42.2688 225.744L44.7187 226.492L46.9625 227.089L49.0207 227.546L50.9112 227.872L52.6499 228.074L54.2508 228.16L55.7265 228.135L57.0883 228.005L58.3465 227.774L59.5104 227.447L60.5884 227.028L61.5885 226.52L62.518 225.927L63.3836 225.251L64.1919 224.496L64.9488 223.666L65.6602 222.762L66.3317 221.788L66.9686 220.749L67.576 219.646L68.1592 218.483L68.7231 217.265L69.2724 215.996L69.8121 214.68L70.3467 213.322L70.8809 211.928L71.4193 210.502L71.9661 209.051L72.5257 207.581L73.1023 206.099L73.6997 204.612L74.3217 203.128L74.9718 201.652L75.6531 200.195L76.3687 198.762L77.121 197.362L77.9121 196.003L78.7439 194.691L79.6175 193.435L80.5337 192.241L81.493 191.114L82.495 190.061L83.5393 189.086L84.6246 188.193L85.7494 187.386L86.9118 186.666L88.1095 186.035L89.3397 185.492L90.5997 185.038L91.8863 184.67L93.1962 184.386L94.5261 184.183L95.8728 184.057L97.2327 184.002L98.6029 184.014L99.98 184.087L101.361 184.214L102.744 184.39L104.126 184.608L105.504 184.861L106.878 185.143L108.244 185.447L109.603 185.767L110.952 186.097L112.292 186.431L113.621 186.764L114.939 187.09L116.247 187.405L117.545 187.704L118.832 187.984L120.11 188.24L121.379 188.47L122.641 188.671L123.896 188.84L125.145 188.975L126.39 189.076L127.632 189.14L128.873 189.167L130.113 189.158L131.354 189.111L132.598 189.028L133.845 188.909L135.097 188.756L136.355 188.57L137.621 188.354L138.895 188.11L140.177 187.841L141.47 187.55L142.773 187.242L144.086 186.921L145.41 186.591L146.745 186.257L148.089 185.924L149.444 185.598L150.807 185.286L152.177 184.993L153.553 184.725L154.934 184.49L156.316 184.293L157.699 184.141L159.078 184.042L160.452 184L161.817 184.022L163.171 184.114L164.509 184.28L165.829 184.524L167.127 184.851L168.4 185.264L169.645 185.764L170.858 186.353L172.038 187.031L173.181 187.797L174.285 188.649L175.349 189.585L176.372 190.601L177.352 191.694L178.288 192.856L179.182 194.084L180.034 195.37L180.844 196.707L181.615 198.089L182.348 199.506L183.045 200.953L183.71 202.421L184.345 203.902L184.953 205.389L185.539 206.874L186.107 208.351L186.659 209.811L187.201 211.25L187.736 212.66L188.27 214.036L188.807 215.373L189.351 216.665L189.908 217.908L190.481 219.097L191.076 220.229L191.698 221.3L192.353 222.305L193.044 223.243L193.779 224.109L194.562 224.9L195.399 225.614L196.297 226.247L197.263 226.796L198.303 227.258L199.424 227.63L200.636 227.907L201.947 228.086L203.367 228.162L204.907 228.129L206.578 227.984L208.394 227.718L210.37 227.324L212.523 226.795L214.872 226.121L216.66 226.064L215.9 228.531L215.291 230.79L214.823 232.863L214.487 234.766L214.275 236.516L214.18 238.127L214.197 239.613L214.319 240.983L214.541 242.249L214.861 243.42L215.273 244.505L215.774 245.511L216.361 246.446L217.03 247.316L217.778 248.129L218.603 248.89L219.501 249.604L220.469 250.279L221.504 250.918L222.602 251.528L223.76 252.113L224.973 252.678L226.239 253.228L227.551 253.769L228.906 254.304L230.298 254.838L231.721 255.375L233.17 255.922L234.639 256.48L236.12 257.055L237.607 257.651L239.092 258.271L240.568 258.918L242.028 259.597L243.463 260.31L244.865 261.059L246.228 261.847L247.544 262.675L248.804 263.546L250.004 264.459L251.136 265.414L252.196 266.413L253.177 267.454L254.076 268.536L254.891 269.658L255.618 270.817L256.256 272.012L256.806 273.24L257.267 274.498L257.641 275.782L257.932 277.09L258.141 278.419L258.273 279.764L258.333 281.123L258.327 282.493L258.258 283.87L258.135 285.251L257.963 286.633L257.748 288.015L257.498 289.394L257.218 290.768L256.915 292.135L256.596 293.494L256.267 294.845L255.933 296.185L255.6 297.515L255.273 298.834L254.957 300.143L254.656 301.441L254.375 302.729L254.117 304.008L253.885 305.278L253.682 306.54L253.51 307.795L253.372 309.045L253.269 310.291L253.201 311.533L253.171 312.773L253.169 313.168Z" fill="#FF7701"/>
<path fill-rule="evenodd" clip-rule="evenodd" d="M445.169 320.168L445.188 321.409L445.243 322.65L445.335 323.895L445.462 325.143L445.624 326.396L445.817 327.656L446.04 328.924L446.29 330.2L446.564 331.485L446.859 332.78L447.171 334.085L447.495 335.401L447.827 336.727L448.161 338.064L448.492 339.411L448.815 340.768L449.124 342.133L449.412 343.505L449.672 344.882L449.899 346.263L450.085 347.646L450.225 349.028L450.311 350.406L450.338 351.778L450.3 353.141L450.191 354.491L450.007 355.825L449.743 357.14L449.395 358.433L448.962 359.699L448.441 360.937L447.831 362.143L447.132 363.314L446.345 364.448L445.472 365.543L444.517 366.597L443.482 367.609L442.372 368.579L441.194 369.505L439.951 370.389L438.653 371.23L437.304 372.031L435.913 372.793L434.488 373.517L433.035 374.206L431.564 374.863L430.08 375.492L428.593 376.095L427.109 376.676L425.636 377.239L424.18 377.789L422.748 378.329L421.345 378.863L419.978 379.398L418.652 379.936L417.371 380.482L416.14 381.042L414.964 381.62L413.847 382.221L412.792 382.851L411.802 383.514L410.881 384.215L410.033 384.96L409.26 385.756L408.565 386.607L407.952 387.521L407.423 388.503L406.982 389.562L406.633 390.705L406.379 391.94L406.224 393.276L406.174 394.723L406.232 396.293L406.406 397.998L406.702 399.851L407.127 401.867L407.69 404.065L408.401 406.464L407.665 407.464L405.249 406.74L403.036 406.166L401.006 405.73L399.14 405.425L397.424 405.241L395.844 405.174L394.387 405.216L393.043 405.362L391.8 405.608L390.651 405.95L389.586 406.384L388.597 406.906L387.678 407.513L386.822 408.201L386.023 408.968L385.273 409.811L384.569 410.725L383.903 411.71L383.271 412.76L382.668 413.873L382.088 415.044L381.527 416.27L380.979 417.547L380.441 418.87L379.907 420.234L379.372 421.634L378.833 423.065L378.284 424.519L377.722 425.991L377.142 427.474L376.541 428.961L375.915 430.445L375.26 431.918L374.573 433.372L373.852 434.8L373.094 436.194L372.296 437.546L371.458 438.849L370.578 440.096L369.655 441.28L368.689 442.396L367.68 443.437L366.629 444.399L365.537 445.278L364.406 446.072L363.238 446.778L362.035 447.395L360.8 447.923L359.535 448.363L358.245 448.718L356.931 448.988L355.599 449.179L354.25 449.293L352.888 449.337L351.516 449.315L350.138 449.233L348.757 449.098L347.374 448.915L345.993 448.691L344.615 448.433L343.242 448.147L341.877 447.84L340.52 447.518L339.172 447.187L337.834 446.852L336.507 446.52L335.19 446.196L333.884 445.883L332.588 445.586L331.302 445.31L330.026 445.058L328.758 444.833L327.497 444.637L326.243 444.473L324.994 444.343L323.75 444.249L322.508 444.19L321.268 444.169L320.028 444.184L318.786 444.237L317.542 444.326L316.294 444.45L315.041 444.609L313.782 444.8L312.515 445.02L311.24 445.269L309.956 445.541L308.662 445.834L307.357 446.145L306.042 446.468L304.716 446.799L303.38 447.134L302.034 447.466L300.678 447.789L299.314 448.099L297.942 448.389L296.565 448.652L295.184 448.881L293.802 449.071L292.42 449.215L291.041 449.306L289.668 449.338L288.305 449.305L286.953 449.202L285.618 449.024L284.301 448.766L283.007 448.425L281.738 447.999L280.498 447.485L279.29 446.882L278.116 446.19L276.979 445.41L275.881 444.544L274.823 443.595L273.808 442.566L272.835 441.463L271.905 440.289L271.018 439.052L270.173 437.757L269.369 436.413L268.604 435.025L267.877 433.602L267.185 432.151L266.526 430.681L265.895 429.198L265.29 427.711L264.707 426.227L264.143 424.752L263.592 423.295L263.052 421.86L262.517 420.455L261.983 419.085L261.445 417.755L260.899 416.47L260.341 415.236L259.764 414.055L259.165 412.933L258.538 411.873L257.878 410.878L257.18 409.951L256.438 409.097L255.647 408.318L254.8 407.617L253.892 406.997L252.915 406.461L251.863 406.013L250.727 405.657L249.5 405.395L248.172 405.232L246.734 405.173L245.174 405.223L243.481 405.388L241.64 405.673L239.637 406.088L237.455 406.639L235.073 407.338L233.81 406.866L234.545 404.433L235.131 402.205L235.577 400.16L235.893 398.283L236.086 396.555L236.163 394.965L236.129 393.499L235.991 392.145L235.752 390.895L235.418 389.738L234.991 388.667L234.476 387.673L233.876 386.748L233.194 385.888L232.433 385.084L231.597 384.331L230.688 383.622L229.709 382.954L228.664 382.32L227.556 381.714L226.389 381.133L225.167 380.57L223.894 380.022L222.574 379.483L221.213 378.948L219.816 378.414L218.388 377.875L216.935 377.327L215.464 376.767L213.982 376.189L212.495 375.589L211.01 374.965L209.536 374.313L208.08 373.629L206.65 372.91L205.253 372.155L203.897 371.361L202.59 370.526L201.338 369.649L200.149 368.729L199.028 367.766L197.981 366.761L197.013 365.713L196.127 364.625L195.326 363.497L194.613 362.332L193.989 361.131L193.453 359.899L193.006 358.636L192.645 357.348L192.368 356.036L192.171 354.705L192.051 353.357L192.001 351.996L192.018 350.625L192.096 349.248L192.227 347.866L192.407 346.483L192.628 345.102L192.883 343.724L193.167 342.351L193.473 340.985L193.794 339.627L194.124 338.278L194.459 336.94L194.791 335.611L195.116 334.294L195.43 332.987L195.728 331.69L196.006 330.404L196.26 329.126L196.488 327.858L196.686 326.597L196.852 325.342L196.985 324.093L197.083 322.848L197.144 321.606L197.169 320.366L197.156 319.126L197.106 317.885L197.02 316.641L196.898 315.393L196.743 314.141L196.554 312.882L196.336 311.616L196.09 310.341L195.819 309.058L195.527 307.764L195.218 306.461L194.896 305.146L194.565 303.822L194.231 302.486L193.898 301.141L193.574 299.786L193.262 298.422L192.971 297.051L192.706 295.674L192.473 294.294L192.28 292.911L192.132 291.529L192.037 290.15L192 288.777L192.027 287.412L192.125 286.06L192.297 284.723L192.548 283.405L192.882 282.108L193.301 280.837L193.809 279.595L194.405 278.384L195.089 277.207L195.862 276.067L196.721 274.966L197.664 273.905L198.686 272.886L199.784 271.91L200.953 270.977L202.185 270.086L203.475 269.238L204.816 268.431L206.201 267.663L207.621 266.933L209.07 266.238L210.539 265.576L212.021 264.944L213.508 264.337L214.993 263.752L216.468 263.187L217.928 262.635L219.364 262.094L220.772 261.559L222.145 261.025L223.478 260.488L224.767 259.943L226.005 259.385L227.19 258.81L228.317 258.213L229.383 257.588L230.383 256.931L231.315 256.237L232.175 255.498L232.96 254.711L233.668 253.869L234.294 252.966L234.837 251.995L235.292 250.949L235.656 249.82L235.926 248.601L236.096 247.281L236.164 245.852L236.123 244.302L235.968 242.62L235.692 240.792L235.288 238.803L234.748 236.635L234.061 234.27L234.269 232.744L236.719 233.492L238.962 234.089L241.021 234.546L242.911 234.872L244.65 235.074L246.251 235.16L247.727 235.135L249.088 235.005L250.347 234.774L251.51 234.447L252.588 234.028L253.589 233.52L254.518 232.927L255.384 232.251L256.192 231.496L256.949 230.666L257.66 229.762L258.332 228.788L258.969 227.749L259.576 226.646L260.159 225.483L260.723 224.265L261.272 222.996L261.812 221.68L262.347 220.322L262.881 218.928L263.419 217.502L263.966 216.051L264.526 214.581L265.102 213.099L265.7 211.612L266.322 210.128L266.972 208.652L267.653 207.195L268.369 205.762L269.121 204.362L269.912 203.003L270.744 201.691L271.617 200.435L272.534 199.241L273.493 198.114L274.495 197.061L275.539 196.086L276.625 195.193L277.749 194.386L278.912 193.666L280.109 193.035L281.34 192.492L282.6 192.038L283.886 191.67L285.196 191.386L286.526 191.183L287.873 191.057L289.233 191.002L290.603 191.014L291.98 191.087L293.361 191.214L294.744 191.39L296.126 191.608L297.504 191.861L298.878 192.143L300.244 192.447L301.603 192.767L302.952 193.097L304.292 193.431L305.621 193.764L306.939 194.09L308.247 194.405L309.545 194.704L310.832 194.984L312.11 195.24L313.379 195.47L314.641 195.671L315.896 195.84L317.145 195.975L318.39 196.076L319.632 196.14L320.873 196.167L322.113 196.158L323.354 196.111L324.598 196.028L325.845 195.909L327.097 195.756L328.355 195.57L329.621 195.354L330.895 195.11L332.177 194.841L333.47 194.55L334.773 194.242L336.086 193.921L337.41 193.591L338.745 193.257L340.089 192.924L341.444 192.598L342.807 192.286L344.177 191.993L345.553 191.725L346.934 191.49L348.316 191.293L349.699 191.141L351.078 191.042L352.452 191L353.817 191.022L355.171 191.114L356.509 191.28L357.829 191.524L359.127 191.851L360.4 192.264L361.645 192.764L362.858 193.353L364.038 194.031L365.181 194.797L366.285 195.649L367.349 196.585L368.372 197.601L369.352 198.694L370.288 199.856L371.182 201.084L372.034 202.37L372.844 203.707L373.615 205.089L374.348 206.506L375.045 207.953L375.71 209.421L376.345 210.902L376.953 212.389L377.539 213.874L378.107 215.351L378.659 216.811L379.201 218.25L379.736 219.66L380.27 221.036L380.807 222.373L381.351 223.665L381.908 224.908L382.481 226.097L383.076 227.229L383.698 228.3L384.353 229.305L385.044 230.243L385.779 231.109L386.562 231.9L387.399 232.614L388.297 233.247L389.263 233.796L390.303 234.258L391.424 234.63L392.636 234.907L393.947 235.086L395.367 235.162L396.907 235.129L398.578 234.984L400.394 234.718L402.37 234.324L404.523 233.795L406.872 233.121L408.66 233.064L407.9 235.531L407.291 237.79L406.823 239.863L406.487 241.766L406.275 243.516L406.18 245.127L406.197 246.613L406.319 247.983L406.541 249.249L406.861 250.42L407.273 251.505L407.774 252.511L408.361 253.446L409.03 254.316L409.778 255.129L410.603 255.89L411.501 256.604L412.469 257.279L413.504 257.918L414.602 258.528L415.76 259.113L416.973 259.678L418.239 260.228L419.551 260.769L420.906 261.304L422.298 261.838L423.721 262.375L425.17 262.922L426.639 263.48L428.12 264.055L429.607 264.651L431.092 265.271L432.568 265.918L434.028 266.597L435.463 267.31L436.865 268.059L438.228 268.847L439.544 269.675L440.804 270.546L442.004 271.459L443.136 272.414L444.196 273.413L445.177 274.454L446.076 275.536L446.891 276.658L447.618 277.817L448.256 279.012L448.806 280.24L449.267 281.498L449.641 282.782L449.932 284.09L450.141 285.419L450.273 286.764L450.333 288.123L450.327 289.493L450.258 290.87L450.135 292.251L449.963 293.633L449.748 295.015L449.498 296.394L449.218 297.768L448.915 299.135L448.596 300.494L448.267 301.845L447.933 303.185L447.6 304.515L447.273 305.834L446.957 307.143L446.656 308.441L446.375 309.729L446.117 311.008L445.885 312.278L445.682 313.54L445.51 314.795L445.372 316.045L445.269 317.291L445.201 318.533L445.171 319.773L445.169 320.168Z" fill="#FF7701"/>
</svg>
