<svg width="16" height="12" viewBox="0 0 16 12" fill="none" xmlns="http://www.w3.org/2000/svg">
<path d="M14.75 0.65625H1.25C1.02622 0.65625 0.811612 0.745145 0.653379 0.903379C0.495145 1.06161 0.40625 1.27622 0.40625 1.5V10.5C0.40625 10.7238 0.495145 10.9384 0.653379 11.0966C0.811612 11.2549 1.02622 11.3438 1.25 11.3438H14.75C14.9738 11.3438 15.1884 11.2549 15.3466 11.0966C15.5049 10.9384 15.5938 10.7238 15.5938 10.5V1.5C15.5938 1.27622 15.5049 1.06161 15.3466 0.903379C15.1884 0.745145 14.9738 0.65625 14.75 0.65625ZM1.25 1.21875H14.75C14.8246 1.21875 14.8961 1.24838 14.9489 1.30113C15.0016 1.35387 15.0312 1.42541 15.0312 1.5V3.46875H0.96875V1.5C0.96875 1.42541 0.998382 1.35387 1.05113 1.30113C1.10387 1.24838 1.17541 1.21875 1.25 1.21875ZM14.75 10.7812H1.25C1.17541 10.7812 1.10387 10.7516 1.05113 10.6989C0.998382 10.6461 0.96875 10.5746 0.96875 10.5V4.03125H15.0312V10.5C15.0312 10.5746 15.0016 10.6461 14.9489 10.6989C14.8961 10.7516 14.8246 10.7812 14.75 10.7812ZM13.3438 8.8125C13.3438 8.88709 13.3141 8.95863 13.2614 9.01137C13.2086 9.06412 13.1371 9.09375 13.0625 9.09375H10.8125C10.7379 9.09375 10.6664 9.06412 10.6136 9.01137C10.5609 8.95863 10.5312 8.88709 10.5312 8.8125C10.5312 8.73791 10.5609 8.66637 10.6136 8.61363C10.6664 8.56088 10.7379 8.53125 10.8125 8.53125H13.0625C13.1371 8.53125 13.2086 8.56088 13.2614 8.61363C13.3141 8.66637 13.3438 8.73791 13.3438 8.8125ZM8.84375 8.8125C8.84375 8.88709 8.81412 8.95863 8.76137 9.01137C8.70863 9.06412 8.63709 9.09375 8.5625 9.09375H7.4375C7.36291 9.09375 7.29137 9.06412 7.23863 9.01137C7.18588 8.95863 7.15625 8.88709 7.15625 8.8125C7.15625 8.73791 7.18588 8.66637 7.23863 8.61363C7.29137 8.56088 7.36291 8.53125 7.4375 8.53125H8.5625C8.63709 8.53125 8.70863 8.56088 8.76137 8.61363C8.81412 8.66637 8.84375 8.73791 8.84375 8.8125Z" fill="black"/>
</svg>
