<svg width="20" height="16" viewBox="0 0 20 16" fill="none" xmlns="http://www.w3.org/2000/svg">
<path d="M10.5793 15.4238C10.4744 15.3193 10.3912 15.1951 10.3344 15.0584C10.2776 14.9216 10.2484 14.775 10.2484 14.627C10.2484 14.4789 10.2776 14.3323 10.3344 14.1955C10.3912 14.0588 10.4744 13.9346 10.5793 13.8301L15.4065 9.00289L1.62521 9.00289C1.32684 9.00289 1.04069 8.88436 0.82971 8.67338C0.618732 8.46241 0.500206 8.17626 0.500206 7.87789C0.500206 7.57952 0.618732 7.29337 0.82971 7.08239C1.04069 6.87142 1.32684 6.75289 1.62521 6.75289L15.4065 6.75289L12.9929 4.33836L10.5793 1.92383C10.3679 1.71248 10.2492 1.42584 10.2492 1.12695C10.2492 0.828065 10.3679 0.541421 10.5793 0.330077C10.7906 0.118732 11.0773 3.14928e-09 11.3761 0C11.675 -3.14928e-09 11.9617 0.118732 12.173 0.330077L18.923 7.08008C19.0279 7.18459 19.1111 7.30878 19.1679 7.44553C19.2247 7.58228 19.2539 7.72889 19.2539 7.87695C19.2539 8.02502 19.2247 8.17163 19.1679 8.30837C19.1111 8.44512 19.0279 8.56931 18.923 8.67383L12.173 15.4238C12.0685 15.5287 11.9443 15.6119 11.8076 15.6687C11.6708 15.7255 11.5242 15.7547 11.3761 15.7547C11.2281 15.7547 11.0815 15.7255 10.9447 15.6687C10.808 15.6119 10.6838 15.5287 10.5793 15.4238Z" fill="#8B3E00"/>
</svg>
