<svg width="9" height="11" viewBox="0 0 9 11" fill="none" xmlns="http://www.w3.org/2000/svg">
<path d="M4.35507 0.649226L8.85507 5.14923C8.94881 5.24299 9.00146 5.37014 9.00146 5.50273C9.00146 5.63531 8.94881 5.76246 8.85507 5.85623L4.35507 10.3562C4.26077 10.4473 4.13447 10.4977 4.00337 10.4966C3.87227 10.4954 3.74687 10.4428 3.65416 10.3501C3.56146 10.2574 3.50887 10.132 3.50773 10.0009C3.5066 9.86983 3.55699 9.74353 3.64807 9.64923L7.79507 5.50323L3.64807 1.35723C3.60142 1.31093 3.56439 1.25586 3.53912 1.19519C3.51385 1.13452 3.50084 1.06945 3.50084 1.00373C3.50084 0.938004 3.51385 0.87293 3.53912 0.812259C3.56439 0.751588 3.60142 0.696518 3.64807 0.650226C3.74184 0.55649 3.86899 0.503833 4.00157 0.503833C4.13415 0.503833 4.26131 0.55549 4.35507 0.649226Z" fill="#8B3E00"/>
<path d="M0.854583 0.649226L5.35458 5.14923C5.44832 5.24299 5.50098 5.37014 5.50098 5.50273C5.50098 5.63531 5.44832 5.76246 5.35458 5.85623L0.854583 10.3562C0.760282 10.4473 0.633981 10.4977 0.502883 10.4966C0.371785 10.4954 0.246378 10.4428 0.153674 10.3501C0.0609703 10.2574 0.00838518 10.132 0.00724602 10.0009C0.00610685 9.86983 0.0565038 9.74353 0.147583 9.64923L4.29458 5.50323L0.147583 1.35723C0.10093 1.31093 0.0639029 1.25586 0.0386343 1.19519C0.0133657 1.13452 0.000355721 1.06945 0.000355721 1.00373C0.000355721 0.938004 0.0133657 0.87293 0.0386343 0.812259C0.0639029 0.751588 0.10093 0.696518 0.147583 0.650226C0.241347 0.55649 0.368501 0.503833 0.501083 0.503833C0.633666 0.503833 0.760819 0.55549 0.854583 0.649226Z" fill="#8B3E00"/>
</svg>
