<svg width="28" height="25" viewBox="0 0 28 25" fill="none" xmlns="http://www.w3.org/2000/svg">
<path d="M14.092 24.5C13.7065 24.5 13.3334 24.4503 13.0225 24.3383C8.27229 22.7093 0.724121 16.927 0.724121 8.38398C0.724121 4.03167 4.24328 0.500068 8.57073 0.500068C10.6723 0.500068 12.637 1.32079 14.092 2.78814C14.8142 2.05927 15.6745 1.48155 16.6224 1.08871C17.5704 0.695862 18.5871 0.495756 19.6132 0.500068C23.9406 0.500068 27.4598 4.0441 27.4598 8.38398C27.4598 16.9394 19.9116 22.7093 15.1614 24.3383C14.8505 24.4503 14.4775 24.5 14.092 24.5ZM8.57073 2.36535C5.2754 2.36535 2.5894 5.06379 2.5894 8.38398C2.5894 16.8772 10.7593 21.6026 13.6319 22.585C13.8557 22.6596 14.3407 22.6596 14.5645 22.585C17.4246 21.6026 25.607 16.8897 25.607 8.38398C25.607 5.06379 22.9209 2.36535 19.6256 2.36535C17.7355 2.36535 15.9821 3.24825 14.8505 4.77778C14.5023 5.25031 13.7065 5.25031 13.3583 4.77778C12.8057 4.02803 12.0843 3.41894 11.2526 2.99983C10.4209 2.58072 9.5021 2.36336 8.57073 2.36535Z" fill="#8B3E00"/>
</svg>
