<svg width="263" height="263" viewBox="0 0 263 263" fill="none" xmlns="http://www.w3.org/2000/svg">
<path d="M131.5 251.391C199.939 251.391 255.42 219.359 255.42 179.845C255.42 140.332 199.939 108.3 131.5 108.3C63.0606 108.3 7.57959 140.332 7.57959 179.845C7.57959 219.359 63.0606 251.391 131.5 251.391Z" fill="#F0F0F0"/>
<path d="M105.856 234.064C129.456 234.064 148.589 223.018 148.589 209.392C148.589 195.767 129.456 184.721 105.856 184.721C82.2552 184.721 63.123 195.767 63.123 209.392C63.123 223.018 82.2552 234.064 105.856 234.064Z" fill="#E0E0E0"/>
<path d="M227.377 178.526L222.366 175.633C222.366 175.633 221.138 164.901 221.955 156.591C223.102 144.912 230.645 130.86 239.643 134.16C248.64 137.46 235.517 149.354 232.596 159.26C229.675 169.165 227.377 178.526 227.377 178.526Z" fill="#8B3E00"/>
<path opacity="0.15" d="M227.377 178.526L222.366 175.633C222.366 175.633 221.138 164.901 221.955 156.591C223.102 144.912 230.645 130.86 239.643 134.16C248.64 137.46 235.517 149.354 232.596 159.26C229.675 169.165 227.377 178.526 227.377 178.526Z" fill="black"/>
<path d="M224.741 177.308C224.744 177.308 224.748 177.308 224.752 177.308C224.919 177.302 225.051 177.162 225.045 176.995C224.165 151.046 237.082 137.992 237.213 137.864C237.332 137.746 237.334 137.554 237.216 137.435C237.097 137.316 236.905 137.314 236.787 137.432C236.654 137.563 223.549 150.804 224.438 177.016C224.444 177.179 224.578 177.308 224.741 177.308Z" fill="white"/>
<path d="M230.527 180.33L226.961 178.271C226.961 178.271 226.355 170.907 229.965 161.962C233.108 154.174 240.907 147.713 244.829 149.07C248.752 150.428 248.655 153.21 246.742 156.127C244.83 159.045 233.195 165.999 230.527 180.33Z" fill="#8B3E00"/>
<path d="M228.647 179.547H228.648C228.815 179.546 228.951 179.411 228.95 179.243C228.88 162.836 244.285 151.747 244.441 151.637C244.577 151.54 244.61 151.351 244.513 151.214C244.417 151.078 244.228 151.043 244.09 151.142C243.932 151.253 228.271 162.527 228.343 179.246C228.344 179.413 228.479 179.547 228.647 179.547Z" fill="white"/>
<path d="M41.9008 172.079L46.5275 168.956C46.5275 168.956 48.5642 156.834 46.6721 146.186C44.0116 131.216 33.6873 126.234 30.0032 127.798C26.3191 129.363 25.5317 133.828 32.4054 142.375C36.4609 147.417 41.7588 158.141 41.9008 172.079Z" fill="#8B3E00"/>
<g opacity="0.15">
<path d="M41.9008 172.079L46.5275 168.956C46.5275 168.956 48.5642 156.834 46.6721 146.186C44.0116 131.216 33.6873 126.234 30.0032 127.798C26.3191 129.363 25.5317 133.828 32.4054 142.375C36.4609 147.417 41.7588 158.141 41.9008 172.079Z" fill="black"/>
</g>
<path d="M43.4897 166.082C43.4739 166.082 43.4587 166.082 43.4434 166.08C43.2598 166.058 43.1278 165.891 43.1499 165.707C44.821 151.612 38.8704 136.319 32.3985 130.234C32.2638 130.108 32.257 129.895 32.3843 129.76C32.5115 129.626 32.7235 129.618 32.8582 129.746C39.4479 135.941 45.5122 151.483 43.8158 165.786C43.7953 165.954 43.6538 166.079 43.4897 166.082Z" fill="white"/>
<path d="M29.7819 180.254C29.0476 180.695 26.901 179.102 26.3071 178.72C25.2904 178.066 24.4588 177.128 23.8975 176.059C23.2448 174.816 23.0602 173.474 23.2301 172.081C23.3184 171.359 23.5062 170.653 23.6935 169.951C23.8776 169.26 24.0617 168.57 24.2458 167.88C24.4272 167.198 24.6108 166.494 24.5077 165.797C24.3005 164.392 23.0312 163.43 21.8782 162.601C20.6032 161.684 19.2708 160.467 19.2451 158.771C19.2251 157.463 19.8794 156.235 20.67 155.193C21.4611 154.151 22.4053 153.225 23.117 152.127C23.6293 151.336 24.0233 150.412 23.9191 149.476C23.8544 148.894 23.6025 148.35 23.3137 147.841C22.6935 146.749 21.8845 145.753 21.4485 144.575C21.0124 143.397 21.0429 141.92 21.9524 141.054C22.6988 140.343 23.826 140.224 24.8554 140.272C25.808 140.317 26.7458 140.728 27.5869 141.175C30.3074 142.619 31.9054 145.777 34.7836 146.874C35.894 147.297 37.1028 147.371 38.2568 147.652C39.4109 147.934 40.5933 148.498 41.1456 149.55C42.2344 151.624 40.3387 154.242 41.1188 156.451C41.8089 158.405 43.7351 159.121 44.8429 160.873C45.3273 161.64 45.453 162.534 45.3946 163.439C45.2957 164.971 45.0938 166.097 44.3931 167.812C43.814 169.229 42.094 171.951 42.094 171.951C42.094 171.951 29.8939 180.186 29.7819 180.254Z" fill="#8B3E00"/>
<path d="M36.8924 175.892C36.8877 175.892 36.8835 175.892 36.8835 175.892C36.6936 175.888 36.5474 175.734 36.5511 175.55C36.8477 162.233 30.2948 147.664 25.6529 143.484C25.5156 143.361 25.504 143.149 25.6281 143.011C25.7523 142.874 25.9637 142.863 26.1015 142.986C30.8366 147.25 37.522 162.06 37.2217 175.564C37.217 175.745 37.0713 175.888 36.8924 175.892Z" fill="white"/>
<path d="M34.4392 159.669C34.4065 159.67 34.3729 159.666 34.3403 159.656C30.0397 158.418 24.7071 158.287 24.654 158.286C24.4688 158.282 24.3221 158.128 24.3258 157.943C24.33 157.758 24.4672 157.61 24.6687 157.615C24.7229 157.616 30.1402 157.748 34.5259 159.012C34.7037 159.063 34.8068 159.249 34.7553 159.426C34.7127 159.572 34.5822 159.667 34.4392 159.669Z" fill="white"/>
<path d="M158.41 162.926L156.414 161.772C155.786 161.409 155.276 160.526 155.276 159.799L155.275 76.9453C155.275 76.2188 155.785 75.3357 156.414 74.9728L211.826 42.9814C212.455 42.6185 213.474 42.6185 214.103 42.9814L216.099 44.1334C216.728 44.4963 217.238 45.3795 217.238 46.1059V128.959C217.238 129.686 216.728 130.569 216.099 130.932L160.687 162.926C160.058 163.289 159.038 163.289 158.41 162.926Z" fill="#78695C" fill-opacity="0.5"/>
<path d="M217.229 45.9208C217.15 45.3317 216.671 45.116 216.098 45.4474L160.689 77.444C160.373 77.6281 160.095 77.9332 159.884 78.2908L155.608 75.8239C155.813 75.4662 156.097 75.1559 156.413 74.9718L211.827 42.9805C212.453 42.6175 213.473 42.6175 214.104 42.9805L216.098 44.1324C216.677 44.4638 217.155 45.237 217.229 45.9208Z" fill="#78695C" fill-opacity="0.5"/>
<path d="M160.494 163.017C159.863 163.286 158.979 163.254 158.411 162.928L156.413 161.771C155.787 161.408 155.276 160.524 155.276 159.798V76.9444C155.276 76.5814 155.403 76.1817 155.608 75.824L159.884 78.2909C159.674 78.6486 159.547 79.0536 159.547 79.4166V162.271C159.547 162.923 159.958 163.223 160.494 163.017Z" fill="#2C1B0D"/>
<path d="M159.548 79.4155V162.269C159.548 162.995 160.058 163.289 160.687 162.926L216.1 130.932C216.729 130.569 217.238 129.686 217.238 128.96V46.1055C217.238 45.3791 216.729 45.085 216.1 45.448L160.687 77.443C160.059 77.8059 159.548 78.6891 159.548 79.4155Z" fill="#899094"/>
<path d="M146.608 110.997C145.893 110.571 142.574 108.683 142.4 108.583C141.874 108.262 141.685 107.484 142.174 106.958L155.276 92.9031L159.548 95.3542L146.45 109.414C145.977 109.919 146.129 110.65 146.608 110.997Z" fill="#78695C" fill-opacity="0.5"/>
<path d="M159.549 95.3564L146.449 109.413C145.792 110.117 146.347 111.26 147.306 111.181L159.549 110.173V95.3564Z" fill="#899094"/>
<path d="M188.393 70.0642C194.851 66.3354 200.086 69.3583 200.086 76.8154C200.086 84.2725 194.851 93.3402 188.393 97.069C181.935 100.798 176.699 97.7749 176.699 90.3178C176.7 82.8602 181.935 73.7925 188.393 70.0642Z" fill="#8B3E00"/>
<path d="M188.311 75.9328C190.406 74.723 192.105 75.7035 192.105 78.1226C192.105 80.5422 190.406 83.4841 188.311 84.6933C186.216 85.9026 184.517 84.9227 184.517 82.5031C184.517 80.084 186.216 77.1421 188.311 75.9328Z" fill="white"/>
<path d="M195.787 88.8329C195.787 84.8579 192.996 83.2468 189.555 85.2345L187.403 86.4769C183.961 88.4642 181.17 93.2976 181.17 97.272V98.3561C181.792 98.5623 182.466 98.6644 183.18 98.6659C184.75 98.6691 186.517 98.152 188.393 97.069C191.199 95.4489 193.773 92.82 195.787 89.755V88.8329Z" fill="white"/>
<path d="M180.986 133.988L195.801 125.434C196.43 125.071 196.94 125.365 196.94 126.092V130.863C196.94 131.589 196.43 132.472 195.801 132.835L180.986 141.389C180.357 141.752 179.847 141.458 179.847 140.732V135.96C179.847 135.234 180.357 134.351 180.986 133.988Z" fill="#8B3E00"/>
<path d="M173.735 123.329L203.051 106.403C203.806 105.968 204.418 106.321 204.418 107.192V108.968C204.418 109.84 203.806 110.9 203.051 111.335L173.735 128.261C172.98 128.696 172.369 128.343 172.369 127.472V125.696C172.368 124.824 172.98 123.765 173.735 123.329Z" fill="#FAFAFA"/>
<path d="M177.163 111.08C177.562 110.849 177.872 110.814 178.093 110.977C178.314 111.139 178.425 111.499 178.425 112.057C178.425 112.617 178.314 113.106 178.093 113.528C177.872 113.95 177.562 114.277 177.163 114.507L176.372 114.964V116.662C176.372 116.718 176.359 116.774 176.332 116.829C176.305 116.886 176.274 116.924 176.238 116.944L175.837 117.176C175.801 117.198 175.769 117.195 175.743 117.17C175.716 117.144 175.703 117.104 175.703 117.048V112.127C175.703 112.072 175.716 112.015 175.743 111.96C175.769 111.904 175.8 111.865 175.837 111.844L177.163 111.08ZM176.372 114.012L177.138 113.569C177.326 113.46 177.476 113.317 177.588 113.137C177.7 112.958 177.756 112.728 177.756 112.443C177.756 112.158 177.7 111.994 177.588 111.95C177.476 111.905 177.326 111.938 177.138 112.046L176.372 112.489V114.012Z" fill="#FAFAFA"/>
<path d="M180.63 109.077C180.683 109.047 180.723 109.045 180.749 109.073C180.776 109.101 180.799 109.152 180.819 109.227L182.031 113.341C182.034 113.354 182.036 113.371 182.036 113.392C182.036 113.448 182.023 113.503 181.996 113.559C181.97 113.615 181.939 113.654 181.902 113.674L181.546 113.88C181.48 113.918 181.434 113.923 181.407 113.895C181.381 113.867 181.363 113.836 181.353 113.801L181.14 113.078L179.577 113.981L179.364 114.949C179.354 114.996 179.336 115.048 179.31 115.107C179.283 115.165 179.238 115.213 179.171 115.251L178.815 115.457C178.779 115.477 178.747 115.475 178.721 115.45C178.694 115.424 178.682 115.384 178.682 115.329C178.682 115.308 178.683 115.29 178.687 115.272L179.899 109.759C179.919 109.661 179.941 109.584 179.968 109.525C179.995 109.467 180.034 109.423 180.087 109.392L180.63 109.077ZM180.902 112.264L180.359 110.408L179.815 112.892L180.902 112.264Z" fill="#FAFAFA"/>
<path d="M183.876 107.127C184.097 107 184.291 106.933 184.459 106.928C184.628 106.921 184.768 106.955 184.88 107.027C184.992 107.1 185.077 107.202 185.135 107.333C185.192 107.465 185.225 107.603 185.231 107.746C185.235 107.805 185.222 107.861 185.195 107.916C185.166 107.969 185.134 108.007 185.098 108.028L184.751 108.228C184.695 108.261 184.654 108.268 184.625 108.252C184.598 108.235 184.571 108.205 184.549 108.163C184.499 108.064 184.425 107.998 184.324 107.961C184.223 107.926 184.074 107.964 183.876 108.079C183.79 108.129 183.709 108.19 183.631 108.262C183.554 108.335 183.486 108.415 183.428 108.502C183.37 108.588 183.325 108.679 183.292 108.774C183.259 108.87 183.243 108.965 183.243 109.062C183.243 109.179 183.258 109.265 183.289 109.321C183.321 109.376 183.373 109.409 183.448 109.419C183.522 109.43 183.62 109.423 183.742 109.398C183.864 109.373 184.016 109.339 184.197 109.295C184.395 109.247 184.566 109.226 184.71 109.233C184.853 109.239 184.969 109.277 185.06 109.349C185.151 109.422 185.219 109.526 185.264 109.663C185.308 109.8 185.33 109.972 185.33 110.18C185.33 110.409 185.297 110.64 185.231 110.873C185.166 111.106 185.071 111.328 184.95 111.539C184.827 111.749 184.678 111.946 184.499 112.13C184.321 112.314 184.121 112.47 183.9 112.598C183.715 112.704 183.539 112.772 183.371 112.8C183.203 112.829 183.053 112.816 182.923 112.762C182.793 112.707 182.688 112.612 182.608 112.475C182.53 112.338 182.485 112.16 182.475 111.943C182.472 111.884 182.485 111.827 182.512 111.773C182.54 111.719 182.572 111.681 182.608 111.66L182.955 111.46C183.011 111.427 183.054 111.418 183.083 111.431C183.113 111.445 183.137 111.476 183.158 111.525C183.181 111.579 183.209 111.628 183.242 111.675C183.275 111.722 183.319 111.754 183.375 111.773C183.431 111.791 183.501 111.792 183.586 111.777C183.67 111.762 183.774 111.718 183.9 111.645C183.999 111.589 184.094 111.522 184.187 111.445C184.279 111.369 184.36 111.284 184.429 111.191C184.498 111.098 184.554 111 184.597 110.896C184.64 110.792 184.661 110.682 184.661 110.565C184.661 110.454 184.638 110.376 184.592 110.331C184.546 110.287 184.476 110.267 184.382 110.27C184.288 110.274 184.172 110.293 184.033 110.327C183.895 110.36 183.735 110.395 183.554 110.428C183.388 110.462 183.244 110.474 183.121 110.461C182.997 110.449 182.894 110.405 182.814 110.33C182.733 110.255 182.673 110.146 182.634 110.004C182.594 109.861 182.575 109.677 182.575 109.447C182.575 109.219 182.608 108.989 182.674 108.759C182.739 108.528 182.83 108.31 182.946 108.107C183.061 107.902 183.198 107.715 183.359 107.545C183.519 107.373 183.692 107.234 183.876 107.127Z" fill="#FAFAFA"/>
<path d="M187.329 105.134C187.55 105.007 187.744 104.94 187.912 104.934C188.081 104.928 188.221 104.962 188.334 105.034C188.445 105.106 188.53 105.208 188.588 105.34C188.645 105.472 188.678 105.61 188.684 105.752C188.688 105.812 188.675 105.868 188.648 105.922C188.619 105.976 188.587 106.014 188.551 106.035L188.204 106.235C188.148 106.268 188.106 106.275 188.078 106.259C188.051 106.242 188.025 106.212 188.002 106.17C187.952 106.072 187.878 106.004 187.777 105.968C187.677 105.933 187.527 105.971 187.329 106.086C187.243 106.136 187.162 106.197 187.084 106.269C187.006 106.342 186.939 106.421 186.881 106.508C186.823 106.595 186.778 106.686 186.745 106.781C186.712 106.876 186.696 106.972 186.696 107.069C186.696 107.186 186.711 107.272 186.742 107.327C186.774 107.383 186.826 107.416 186.901 107.426C186.975 107.437 187.073 107.43 187.195 107.405C187.317 107.38 187.469 107.346 187.65 107.302C187.849 107.254 188.018 107.233 188.163 107.239C188.306 107.245 188.423 107.284 188.513 107.356C188.604 107.429 188.672 107.533 188.716 107.669C188.761 107.807 188.783 107.979 188.783 108.187C188.783 108.415 188.75 108.646 188.684 108.88C188.619 109.113 188.524 109.335 188.402 109.545C188.281 109.756 188.131 109.952 187.952 110.137C187.774 110.321 187.575 110.477 187.354 110.604C187.168 110.711 186.992 110.779 186.824 110.807C186.657 110.836 186.507 110.823 186.377 110.769C186.246 110.714 186.142 110.619 186.062 110.481C185.983 110.344 185.939 110.167 185.929 109.949C185.926 109.89 185.938 109.833 185.966 109.78C185.993 109.725 186.025 109.688 186.062 109.667L186.408 109.467C186.464 109.434 186.507 109.425 186.537 109.438C186.567 109.452 186.591 109.483 186.611 109.532C186.635 109.585 186.663 109.635 186.696 109.682C186.729 109.728 186.773 109.761 186.829 109.78C186.885 109.798 186.955 109.799 187.039 109.784C187.123 109.769 187.227 109.725 187.354 109.652C187.453 109.596 187.548 109.529 187.64 109.452C187.732 109.377 187.813 109.292 187.883 109.199C187.952 109.105 188.008 109.008 188.051 108.903C188.094 108.8 188.115 108.69 188.115 108.573C188.115 108.462 188.092 108.384 188.046 108.339C188 108.295 187.929 108.274 187.835 108.278C187.742 108.282 187.626 108.3 187.487 108.334C187.348 108.368 187.188 108.403 187.007 108.436C186.842 108.47 186.698 108.482 186.574 108.469C186.451 108.457 186.348 108.413 186.268 108.338C186.187 108.263 186.126 108.154 186.087 108.011C186.048 107.869 186.028 107.684 186.028 107.455C186.028 107.227 186.061 106.997 186.127 106.766C186.193 106.535 186.284 106.318 186.399 106.114C186.515 105.91 186.652 105.723 186.812 105.552C186.972 105.38 187.144 105.241 187.329 105.134Z" fill="#FAFAFA"/>
<path d="M191.163 105.792L190.737 108.315C190.721 108.4 190.7 108.475 190.675 108.537C190.65 108.6 190.613 108.645 190.564 108.674L190.163 108.905C190.113 108.934 190.074 108.933 190.046 108.899C190.018 108.867 190 108.816 189.99 108.746L189.356 104.306C189.353 104.283 189.352 104.263 189.352 104.248C189.352 104.193 189.365 104.136 189.391 104.081C189.417 104.025 189.448 103.986 189.485 103.965L189.851 103.754C189.884 103.736 189.915 103.732 189.945 103.746C189.975 103.759 189.995 103.8 190.004 103.871L190.42 106.861L190.786 104.616C190.793 104.576 190.808 104.521 190.833 104.451C190.857 104.381 190.9 104.329 190.959 104.294L191.365 104.06C191.424 104.026 191.466 104.03 191.491 104.071C191.516 104.113 191.531 104.149 191.538 104.181L191.904 106.003L192.319 102.534C192.329 102.452 192.349 102.388 192.379 102.34C192.408 102.292 192.44 102.259 192.473 102.24L192.838 102.029C192.875 102.008 192.906 102.01 192.933 102.036C192.959 102.061 192.972 102.102 192.972 102.158C192.972 102.172 192.97 102.194 192.967 102.221L192.334 107.392C192.323 107.474 192.305 107.548 192.278 107.612C192.249 107.676 192.211 107.723 192.161 107.752L191.76 107.983C191.71 108.011 191.673 108.009 191.649 107.975C191.624 107.94 191.603 107.891 191.587 107.824L191.163 105.792Z" fill="#FAFAFA"/>
<path d="M193.626 103.563C193.637 103.273 193.671 102.984 193.732 102.697C193.793 102.411 193.883 102.14 194.002 101.887C194.121 101.633 194.269 101.4 194.447 101.188C194.626 100.976 194.837 100.8 195.081 100.659C195.322 100.519 195.531 100.452 195.709 100.455C195.887 100.46 196.035 100.521 196.154 100.641C196.273 100.76 196.363 100.926 196.426 101.138C196.489 101.351 196.526 101.599 196.536 101.883C196.539 101.978 196.541 102.083 196.543 102.198C196.544 102.314 196.546 102.434 196.546 102.558C196.546 102.683 196.544 102.804 196.543 102.921C196.541 103.04 196.539 103.148 196.536 103.245C196.525 103.536 196.49 103.824 196.429 104.111C196.368 104.397 196.278 104.668 196.159 104.921C196.041 105.175 195.891 105.407 195.712 105.618C195.531 105.828 195.322 106.003 195.081 106.142C194.837 106.282 194.626 106.351 194.447 106.348C194.269 106.344 194.121 106.284 194.002 106.166C193.883 106.05 193.793 105.884 193.732 105.667C193.671 105.451 193.636 105.204 193.626 104.925C193.623 104.831 193.62 104.726 193.619 104.609C193.617 104.494 193.616 104.374 193.616 104.25C193.616 104.125 193.617 104.004 193.619 103.886C193.62 103.769 193.623 103.661 193.626 103.563ZM195.867 102.306C195.854 101.948 195.778 101.71 195.637 101.59C195.497 101.471 195.312 101.477 195.081 101.611C194.85 101.744 194.664 101.951 194.524 102.233C194.383 102.515 194.306 102.841 194.293 103.215C194.286 103.412 194.283 103.628 194.283 103.864C194.283 104.101 194.286 104.313 194.293 104.502C194.306 104.86 194.383 105.097 194.524 105.214C194.664 105.331 194.849 105.323 195.081 105.19C195.312 105.057 195.497 104.851 195.637 104.572C195.778 104.293 195.854 103.967 195.867 103.594C195.874 103.397 195.877 103.181 195.877 102.945C195.877 102.708 195.874 102.496 195.867 102.306Z" fill="#FAFAFA"/>
<path d="M198.845 98.5614C199.257 98.3236 199.57 98.29 199.784 98.4609C199.998 98.6319 200.106 98.9785 200.106 99.5019C200.106 99.8727 200.051 100.22 199.94 100.545C199.829 100.871 199.667 101.159 199.453 101.41L200.136 102.897C200.146 102.921 200.15 102.947 200.15 102.972C200.15 103.018 200.139 103.063 200.118 103.109C200.097 103.154 200.07 103.185 200.041 103.203L199.62 103.445C199.554 103.483 199.505 103.487 199.474 103.457C199.443 103.426 199.421 103.396 199.408 103.363L198.76 101.961L198.102 102.342V104.116C198.102 104.172 198.089 104.228 198.063 104.283C198.036 104.339 198.005 104.378 197.968 104.399L197.568 104.63C197.531 104.651 197.5 104.649 197.474 104.623C197.447 104.598 197.434 104.558 197.434 104.502V99.5818C197.434 99.5255 197.447 99.4698 197.474 99.4146C197.5 99.3583 197.531 99.3199 197.568 99.2983L198.845 98.5614ZM198.103 101.389L198.82 100.975C199.008 100.867 199.158 100.729 199.27 100.563C199.382 100.397 199.438 100.171 199.438 99.8869C199.438 99.6029 199.381 99.4445 199.27 99.413C199.157 99.3814 199.008 99.4198 198.82 99.5287L198.103 99.9427V101.389Z" fill="#FAFAFA"/>
<path d="M202.353 96.5362C202.597 96.3952 202.808 96.3226 202.988 96.3174C203.168 96.3132 203.318 96.3673 203.439 96.4809C203.559 96.594 203.651 96.7613 203.715 96.9833C203.78 97.2052 203.818 97.4725 203.832 97.7844C203.845 98.152 203.845 98.5281 203.832 98.9116C203.819 99.2393 203.78 99.5512 203.715 99.8468C203.651 100.143 203.56 100.416 203.441 100.668C203.322 100.92 203.174 101.146 202.997 101.346C202.821 101.548 202.615 101.716 202.377 101.854L201.13 102.573C201.094 102.594 201.063 102.592 201.036 102.566C201.01 102.541 200.997 102.501 200.997 102.445V97.5245C200.997 97.4693 201.01 97.4125 201.036 97.3573C201.063 97.3015 201.093 97.2626 201.13 97.2415L202.353 96.5362ZM203.164 98.1699C203.157 98.0116 203.136 97.8722 203.102 97.7528C203.067 97.6334 203.016 97.5408 202.949 97.4761C202.881 97.4109 202.796 97.3794 202.695 97.3794C202.592 97.3804 202.469 97.4214 202.328 97.5035L201.666 97.8859V101.313L202.353 100.917C202.488 100.839 202.605 100.742 202.704 100.626C202.803 100.511 202.885 100.383 202.952 100.243C203.017 100.103 203.068 99.9526 203.103 99.7905C203.137 99.628 203.158 99.4639 203.164 99.2982C203.176 98.9137 203.176 98.5387 203.164 98.1699Z" fill="#FAFAFA"/>
<path d="M130.12 20.1958C131.04 20.3993 131.906 20.7249 132.72 21.1715C133.534 21.6186 134.223 22.1662 134.788 22.8142C135.352 23.4617 135.759 24.1981 136.006 25.0229C136.255 25.8466 136.273 26.7387 136.061 27.6965C135.887 28.4787 135.614 29.132 135.243 29.6543C134.87 30.1771 134.442 30.6263 133.959 31.0009C133.476 31.3759 132.967 31.7046 132.433 31.9861C131.898 32.268 131.392 32.5357 130.917 32.7882C130.44 33.0417 130.008 33.3216 129.623 33.6256C129.238 33.9301 128.968 34.2915 128.814 34.7086C128.727 34.9153 128.598 35.081 128.427 35.2067C128.255 35.3335 128.062 35.3719 127.847 35.3251L125.617 34.8312C125.402 34.7838 125.229 34.6639 125.098 34.4698C124.966 34.2768 124.934 34.0753 125.001 33.8644C125.209 33.1101 125.518 32.4758 125.93 31.9619C126.341 31.448 126.798 31.0056 127.301 30.6342C127.803 30.2634 128.326 29.9436 128.867 29.6738C129.409 29.4034 129.913 29.1409 130.381 28.8853C130.847 28.6302 131.246 28.3588 131.575 28.0731C131.906 27.7875 132.116 27.4388 132.207 27.028C132.372 26.2853 132.194 25.6046 131.674 24.9866C131.155 24.369 130.376 23.9456 129.34 23.7158C127.678 23.3476 126.271 23.9083 125.121 25.3974C124.976 25.5909 124.837 25.7293 124.706 25.8129C124.574 25.8971 124.381 25.9108 124.127 25.8539L121.751 25.3279C121.575 25.289 121.436 25.1964 121.335 25.0513C121.234 24.9061 121.205 24.7351 121.248 24.5395C121.419 23.8594 121.785 23.2071 122.343 22.5817C122.902 21.9568 123.583 21.4308 124.385 21.0026C125.188 20.5755 126.085 20.2762 127.077 20.1063C128.07 19.937 129.084 19.9659 130.12 20.1958ZM127.605 37.1182C127.819 37.1656 127.988 37.285 128.109 37.4764C128.231 37.6674 128.268 37.8704 128.22 38.0855L127.649 40.6666C127.601 40.8823 127.482 41.0506 127.291 41.1721C127.1 41.2947 126.897 41.3315 126.682 41.2836L124.159 40.725C123.944 40.6766 123.775 40.5583 123.653 40.3663C123.531 40.1753 123.494 39.9728 123.542 39.7572L124.113 37.1756C124.161 36.961 124.28 36.7921 124.472 36.6701C124.663 36.5491 124.866 36.5112 125.081 36.5591L127.605 37.1182Z" fill="#8B3E00"/>
<path d="M132.929 44.8704C133.57 44.7657 134.209 44.7515 134.845 44.8304C135.481 44.9082 136.063 45.0823 136.591 45.3532C137.119 45.6252 137.568 45.9928 137.938 46.4578C138.309 46.9233 138.548 47.4904 138.657 48.1579C138.746 48.7038 138.738 49.193 138.634 49.6228C138.529 50.053 138.37 50.4507 138.156 50.8152C137.942 51.1792 137.7 51.5201 137.43 51.8372C137.159 52.1549 136.904 52.4553 136.663 52.7398C136.422 53.0244 136.217 53.3142 136.048 53.6077C135.879 53.9013 135.798 54.2016 135.807 54.5083C135.804 54.6634 135.763 54.8028 135.686 54.9275C135.609 55.0521 135.494 55.1268 135.345 55.1516L133.789 55.4056C133.639 55.4303 133.497 55.3972 133.363 55.3067C133.229 55.2168 133.156 55.0958 133.146 54.9433C133.086 54.4062 133.122 53.9212 133.255 53.4857C133.386 53.0512 133.566 52.6499 133.793 52.2838C134.021 51.9177 134.274 51.5784 134.552 51.2665C134.83 50.9551 135.086 50.6574 135.32 50.3734C135.554 50.0909 135.74 49.8148 135.878 49.5475C136.017 49.2793 136.063 49.0026 136.016 48.7154C135.932 48.1978 135.643 47.8065 135.151 47.543C134.66 47.28 134.053 47.2074 133.329 47.3257C132.17 47.5151 131.412 48.2352 131.055 49.4844C131.011 49.6454 130.958 49.7695 130.895 49.8568C130.832 49.9447 130.712 50.0025 130.535 50.0315L128.877 50.3029C128.754 50.3229 128.642 50.2992 128.539 50.2319C128.437 50.164 128.375 50.0625 128.352 49.9257C128.288 49.4466 128.355 48.9342 128.554 48.3903C128.752 47.8465 129.054 47.3347 129.459 46.8555C129.864 46.3758 130.363 45.955 130.955 45.592C131.548 45.2291 132.205 44.9887 132.929 44.8704ZM135.647 56.3629C135.797 56.3387 135.936 56.3724 136.063 56.4629C136.19 56.5549 136.266 56.6754 136.29 56.8248L136.585 58.6268C136.61 58.7767 136.576 58.9156 136.485 59.0424C136.393 59.1697 136.273 59.2449 136.122 59.2696L134.362 59.5573C134.212 59.5821 134.073 59.5489 133.946 59.4579C133.819 59.3664 133.743 59.2459 133.719 59.096L133.424 57.294C133.4 57.1446 133.433 57.0057 133.524 56.8784C133.616 56.7516 133.736 56.6754 133.886 56.6507L135.647 56.3629Z" fill="#8B3E00"/>
<g opacity="0.2">
<path d="M132.929 44.8704C133.57 44.7657 134.209 44.7515 134.845 44.8304C135.481 44.9082 136.063 45.0823 136.591 45.3532C137.119 45.6252 137.568 45.9928 137.938 46.4578C138.309 46.9233 138.548 47.4904 138.657 48.1579C138.746 48.7038 138.738 49.193 138.634 49.6228C138.529 50.053 138.37 50.4507 138.156 50.8152C137.942 51.1792 137.7 51.5201 137.43 51.8372C137.159 52.1549 136.904 52.4553 136.663 52.7398C136.422 53.0244 136.217 53.3142 136.048 53.6077C135.879 53.9013 135.798 54.2016 135.807 54.5083C135.804 54.6634 135.763 54.8028 135.686 54.9275C135.609 55.0521 135.494 55.1268 135.345 55.1516L133.789 55.4056C133.639 55.4303 133.497 55.3972 133.363 55.3067C133.229 55.2168 133.156 55.0958 133.146 54.9433C133.086 54.4062 133.122 53.9212 133.255 53.4857C133.386 53.0512 133.566 52.6499 133.793 52.2838C134.021 51.9177 134.274 51.5784 134.552 51.2665C134.83 50.9551 135.086 50.6574 135.32 50.3734C135.554 50.0909 135.74 49.8148 135.878 49.5475C136.017 49.2793 136.063 49.0026 136.016 48.7154C135.932 48.1978 135.643 47.8065 135.151 47.543C134.66 47.28 134.053 47.2074 133.329 47.3257C132.17 47.5151 131.412 48.2352 131.055 49.4844C131.011 49.6454 130.958 49.7695 130.895 49.8568C130.832 49.9447 130.712 50.0025 130.535 50.0315L128.877 50.3029C128.754 50.3229 128.642 50.2992 128.539 50.2319C128.437 50.164 128.375 50.0625 128.352 49.9257C128.288 49.4466 128.355 48.9342 128.554 48.3903C128.752 47.8465 129.054 47.3347 129.459 46.8555C129.864 46.3758 130.363 45.955 130.955 45.592C131.548 45.2291 132.205 44.9887 132.929 44.8704ZM135.647 56.3629C135.797 56.3387 135.936 56.3724 136.063 56.4629C136.19 56.5549 136.266 56.6754 136.29 56.8248L136.585 58.6268C136.61 58.7767 136.576 58.9156 136.485 59.0424C136.393 59.1697 136.273 59.2449 136.122 59.2696L134.362 59.5573C134.212 59.5821 134.073 59.5489 133.946 59.4579C133.819 59.3664 133.743 59.2459 133.719 59.096L133.424 57.294C133.4 57.1446 133.433 57.0057 133.524 56.8784C133.616 56.7516 133.736 56.6754 133.886 56.6507L135.647 56.3629Z" fill="black"/>
</g>
<path d="M147.801 47.7025C147.948 47.8072 148.037 47.9508 148.069 48.1333C148.099 48.3163 148.062 48.481 147.958 48.6277L146.705 50.3904C146.601 50.5376 146.457 50.6265 146.274 50.657C146.091 50.6886 145.927 50.6513 145.78 50.5471L144.058 49.3226C143.911 49.2179 143.822 49.0748 143.791 48.8923C143.76 48.7087 143.797 48.5446 143.902 48.3979L145.155 46.6347C145.259 46.488 145.402 46.3991 145.585 46.368C145.768 46.337 145.932 46.3738 146.079 46.4785L147.801 47.7025ZM155.089 35.756C155.716 36.2015 156.265 36.7228 156.736 37.3187C157.207 37.9152 157.552 38.5469 157.77 39.2144C157.989 39.883 158.06 40.5663 157.985 41.2664C157.909 41.967 157.639 42.644 157.174 43.2983C156.794 43.8327 156.38 44.2372 155.934 44.5123C155.487 44.7879 155.022 44.9899 154.539 45.1183C154.055 45.2471 153.567 45.3323 153.076 45.375C152.582 45.4165 152.117 45.457 151.677 45.4959C151.237 45.5349 150.823 45.608 150.437 45.7148C150.049 45.821 149.731 46.0077 149.482 46.2728C149.351 46.4007 149.201 46.4843 149.032 46.5248C148.862 46.5653 148.704 46.5332 148.558 46.4285L147.035 45.346C146.888 45.2419 146.796 45.0962 146.758 44.9084C146.721 44.7211 146.76 44.5586 146.878 44.4208C147.276 43.919 147.71 43.5397 148.184 43.2836C148.658 43.0279 149.143 42.8396 149.64 42.7202C150.136 42.6008 150.632 42.5261 151.127 42.4956C151.62 42.4646 152.084 42.4273 152.518 42.3836C152.951 42.3399 153.337 42.2631 153.677 42.1527C154.017 42.0422 154.286 41.8471 154.486 41.5667C154.847 41.0591 154.929 40.4905 154.735 39.8593C154.54 39.2286 154.089 38.6616 153.382 38.1588C152.246 37.3519 151.007 37.3261 149.667 38.0814C149.495 38.1809 149.347 38.2419 149.222 38.2629C149.095 38.2839 148.946 38.2329 148.773 38.1098L147.15 36.9563C147.03 36.8711 146.955 36.7575 146.925 36.616C146.895 36.4735 146.928 36.3367 147.022 36.2031C147.367 35.7449 147.85 35.3694 148.471 35.0764C149.092 34.7834 149.772 34.6041 150.513 34.5378C151.253 34.4715 152.024 34.5315 152.825 34.7198C153.625 34.907 154.38 35.2526 155.089 35.756Z" fill="#8B3E00"/>
<g opacity="0.6">
<path d="M147.801 47.7025C147.948 47.8072 148.037 47.9508 148.069 48.1333C148.099 48.3163 148.062 48.481 147.958 48.6277L146.705 50.3904C146.601 50.5376 146.457 50.6265 146.274 50.657C146.091 50.6886 145.927 50.6513 145.78 50.5471L144.058 49.3226C143.911 49.2179 143.822 49.0748 143.791 48.8923C143.76 48.7087 143.797 48.5446 143.902 48.3979L145.155 46.6347C145.259 46.488 145.402 46.3991 145.585 46.368C145.768 46.337 145.932 46.3738 146.079 46.4785L147.801 47.7025ZM155.089 35.756C155.716 36.2015 156.265 36.7228 156.736 37.3187C157.207 37.9152 157.552 38.5469 157.77 39.2144C157.989 39.883 158.06 40.5663 157.985 41.2664C157.909 41.967 157.639 42.644 157.174 43.2983C156.794 43.8327 156.38 44.2372 155.934 44.5123C155.487 44.7879 155.022 44.9899 154.539 45.1183C154.055 45.2471 153.567 45.3323 153.076 45.375C152.582 45.4165 152.117 45.457 151.677 45.4959C151.237 45.5349 150.823 45.608 150.437 45.7148C150.049 45.821 149.731 46.0077 149.482 46.2728C149.351 46.4007 149.201 46.4843 149.032 46.5248C148.862 46.5653 148.704 46.5332 148.558 46.4285L147.035 45.346C146.888 45.2419 146.796 45.0962 146.758 44.9084C146.721 44.7211 146.76 44.5586 146.878 44.4208C147.276 43.919 147.71 43.5397 148.184 43.2836C148.658 43.0279 149.143 42.8396 149.64 42.7202C150.136 42.6008 150.632 42.5261 151.127 42.4956C151.62 42.4646 152.084 42.4273 152.518 42.3836C152.951 42.3399 153.337 42.2631 153.677 42.1527C154.017 42.0422 154.286 41.8471 154.486 41.5667C154.847 41.0591 154.929 40.4905 154.735 39.8593C154.54 39.2286 154.089 38.6616 153.382 38.1588C152.246 37.3519 151.007 37.3261 149.667 38.0814C149.495 38.1809 149.347 38.2419 149.222 38.2629C149.095 38.2839 148.946 38.2329 148.773 38.1098L147.15 36.9563C147.03 36.8711 146.955 36.7575 146.925 36.616C146.895 36.4735 146.928 36.3367 147.022 36.2031C147.367 35.7449 147.85 35.3694 148.471 35.0764C149.092 34.7834 149.772 34.6041 150.513 34.5378C151.253 34.4715 152.024 34.5315 152.825 34.7198C153.625 34.907 154.38 35.2526 155.089 35.756Z" fill="white"/>
</g>
<path d="M108.633 94.2656H89.9458V48.9848C89.9458 40.7966 96.5839 34.158 104.773 34.158H106.5C114.688 34.158 121.326 40.7961 121.326 48.9848V81.5732C121.326 88.5832 115.643 94.2656 108.633 94.2656Z" fill="#2C1B0D"/>
<path d="M88.1289 203.267C87.9753 204.405 87.6486 205.732 87.5876 208.95C87.5224 212.4 86.8886 213.624 86.8044 216.456C86.7087 219.691 87.2673 220.901 88.5802 222.719C89.8931 224.538 93.3384 226.188 94.7944 223.114C96.2682 220.004 96.0631 218.027 95.5976 214.854C95.1163 211.573 95.0553 209.761 94.7759 207.259C94.5303 205.053 94.2357 203.378 94.2357 203.378L88.1289 203.267Z" fill="#2C1B0D"/>
<path d="M97.9213 180.35L86.5576 180.143C86.7265 187.729 87.9321 196.149 88.1288 203.267C88.1656 204.607 88.0951 213.678 88.6006 216.435C89.3596 220.576 94.2761 220.017 94.537 217.538C94.7979 215.06 94.2204 204.47 94.2362 203.377C94.193 198.813 96.3323 191.107 97.4542 182.913C97.5089 182.511 97.8692 180.742 97.9213 180.35Z" fill="#FFA8A7"/>
<path d="M112.519 197.364C112.519 197.364 112.07 197.123 111.978 197.602C111.868 198.171 111.704 199.346 111.467 200.281C111.138 201.58 110.865 203.721 111.062 204.78C111.259 205.839 113.728 207.202 115.331 207.695C117.696 208.421 119.319 209.607 120.614 210.826C122.202 212.32 125.628 213.732 127.96 213.715C130.721 213.695 132.645 212.795 133.555 211.317C134.505 209.773 132.726 209.66 129.571 207.613C128.855 207.148 128.039 206.623 127.122 206.024C122.124 202.759 120.294 201.009 118.88 197.744L112.519 197.364Z" fill="#2C1B0D"/>
<path d="M118.919 195.343C118.835 192.994 120.446 173.069 120.446 173.069L109.654 177.989C111.966 191.782 112.458 195.035 112.499 197.292C112.481 197.345 112.435 197.536 112.438 197.87C112.448 200.55 115.472 201.995 117.831 203.782C118.763 204.487 121.473 206.571 124.211 207.947C125.926 208.809 129.406 208.887 129.837 207.784C126.967 205.592 122.791 202.311 120.508 199.807C119.417 198.611 119.003 197.692 118.919 195.343Z" fill="#FFA8A7"/>
<path d="M91.2141 106.334C87.0714 115.433 87.0714 122.469 87.7562 134.078C88.3843 144.727 89.3858 154.101 89.3858 154.101C89.2253 155.991 86.599 159.678 86.2592 168.028C85.9415 175.835 86.7968 185.759 86.7968 185.759C86.7968 185.759 92.6922 189.027 97.0517 185.731C97.0517 185.731 101.258 165.644 102.491 155.872C103.567 147.344 105.436 136.447 105.436 136.447L109.396 155.825C109.396 155.825 107.889 160.603 107.537 164.242C106.98 169.99 110.195 181.277 110.195 181.277C110.195 181.277 116.286 183.095 120.007 179.796C120.007 179.796 121.398 161.445 121.917 154.52C122.613 145.248 121.15 120.146 120.006 106.857L91.2141 106.334Z" fill="#78695C" fill-opacity="0.5"/>
<path d="M105.436 136.447L107.073 121.86C107.073 121.86 114.406 120.88 117.728 117.757C117.728 117.757 115.232 122.33 109.088 123.217L106.721 136.791L109.396 155.825L105.436 136.447Z" fill="#2C1B0D"/>
<path d="M135.127 102.751C135.584 98.2796 135.567 95.3008 135.527 94.728C135.367 92.4131 134.953 92.0365 131.717 87.9347C127.348 82.397 123.619 77.42 119.674 72.4682C116.859 68.933 113.899 68.3891 111.008 68.549C108.987 68.661 112.93 78.3757 114.917 84.1244L126.253 96.3171C126.601 96.7984 126.762 97.3912 126.703 97.9824L126.008 108.362L129.402 112.903C129.402 112.903 134.543 108.471 135.127 102.751Z" fill="#FFA8A7"/>
<path d="M100.088 68.8636C97.8954 69.0145 93.9083 69.3654 93.9083 69.3654C91.6076 70.6493 91.0264 71.7019 90.5982 74.7574C90.4162 76.0571 91.4756 79.5256 92.3855 84.4532L94.1124 93.5919L93.9251 98.1239C93.0288 100.889 91.0011 104.326 89.2153 109.393C97.9974 114.294 105.363 114.476 112.043 113.618C117.136 112.964 119.832 111.732 120.73 110.514C120.543 105.509 120.189 102.419 120.102 97.1892C120.066 94.9926 120.198 92.7766 120.283 90.2486C123.7 87.4414 123.739 82.7731 121.875 79.7555C117.545 72.7444 113.334 68.3302 110.545 68.5564L100.088 68.8636Z" fill="#8B3E00"/>
<path opacity="0.6" d="M100.088 68.8636C97.8954 69.0145 93.9083 69.3654 93.9083 69.3654C91.6076 70.6493 91.0264 71.7019 90.5982 74.7574C90.4162 76.0571 91.4756 79.5256 92.3855 84.4532L94.1124 93.5919L93.9251 98.1239C93.0288 100.889 91.0011 104.326 89.2153 109.393C97.9974 114.294 105.363 114.476 112.043 113.618C117.136 112.964 119.832 111.732 120.73 110.514C120.543 105.509 120.189 102.419 120.102 97.1892C120.066 94.9926 120.198 92.7766 120.283 90.2486C123.7 87.4414 123.739 82.7731 121.875 79.7555C117.545 72.7444 113.334 68.3302 110.545 68.5564L100.088 68.8636Z" fill="white"/>
<path opacity="0.1" d="M113.485 90.3249C113.485 90.3249 109.474 93.4377 104.896 91.8145C100.319 90.1913 99.6502 86.1895 99.6502 86.1895C99.6502 86.1895 99.1642 91.4226 104.939 93.2073C110.512 94.9289 113.485 90.3249 113.485 90.3249Z" fill="black"/>
<path d="M118.924 54.4989C118.751 62.0928 116.287 63.9701 115.052 64.5092C113.817 65.0484 111.432 64.7196 109.119 64.3367V68.894C109.119 68.894 111.789 71.6933 111.589 73.7805C111.384 75.8729 107.393 76.1049 104.394 74.0609C102.206 72.5702 100.642 70.8659 99.9601 70.0575C99.7118 69.7634 99.5777 69.3942 99.5777 69.0092V58.2851C99.5777 58.2851 98.3101 59.628 96.0667 58.091C93.8285 56.5593 93.6344 53.7005 95.0041 52.0825C95.9804 50.9337 98.4615 50.8527 99.6535 52.6379C100.322 53.9487 100.414 55.2648 101.164 54.7198C103.165 53.2797 102.091 50.0058 104.507 48.3879C104.513 48.3879 104.513 48.3826 104.518 48.3826C105.241 47.9944 106.061 47.6273 106.977 47.309C111.287 45.8205 115.02 44.5691 115.92 41.624C117.618 42.6329 119.134 45.5401 118.924 54.4989Z" fill="#FFA8A7"/>
<path d="M110.43 61.2838C110.981 61.2838 111.427 60.8376 111.427 60.2871C111.427 59.7366 110.981 59.2903 110.43 59.2903C109.88 59.2903 109.434 59.7366 109.434 60.2871C109.434 60.8376 109.88 61.2838 110.43 61.2838Z" fill="#B16668"/>
<path d="M109.763 53.3474C109.794 53.9497 109.348 54.4594 108.769 54.4873C108.189 54.5146 107.696 54.0491 107.665 53.4469C107.635 52.8451 108.08 52.3349 108.66 52.307C109.239 52.2802 109.733 52.7457 109.763 53.3474Z" fill="#2C1B0D"/>
<path d="M117.735 53.4512C117.763 53.9982 117.358 54.4621 116.831 54.4869C116.251 54.5142 115.858 54.1434 115.827 53.5416C115.8 52.9946 116.204 52.5307 116.731 52.5054C117.258 52.4807 117.707 52.9041 117.735 53.4512Z" fill="#2C1B0D"/>
<path d="M108.412 56.0518C106.526 56.0518 104.991 54.5169 104.991 52.6307C104.991 50.3047 107.388 50.3047 108.412 50.3047C109.436 50.3047 111.833 50.3047 111.833 52.6307C111.833 54.5174 110.299 56.0518 108.412 56.0518ZM108.412 50.8444C106.339 50.8444 105.531 51.3451 105.531 52.6312C105.531 54.2202 106.823 55.5126 108.412 55.5126C110.001 55.5126 111.294 54.2202 111.294 52.6312C111.294 51.3451 110.486 50.8444 108.412 50.8444Z" fill="#78695C" fill-opacity="0.5"/>
<path d="M117.097 56.0518C115.211 56.0518 113.676 54.5169 113.676 52.6307C113.676 50.3047 116.073 50.3047 117.097 50.3047C118.121 50.3047 120.518 50.3047 120.518 52.6307C120.518 54.5174 118.984 56.0518 117.097 56.0518ZM117.097 50.8444C115.024 50.8444 114.216 51.3451 114.216 52.6312C114.216 54.2202 115.508 55.5126 117.097 55.5126C118.686 55.5126 119.979 54.2202 119.979 52.6312C119.979 51.3451 119.171 50.8444 117.097 50.8444Z" fill="#78695C" fill-opacity="0.5"/>
<path d="M112.365 51.5281L112.533 57.9169L115.896 56.8749L112.365 51.5281Z" fill="#F28F8F"/>
<path d="M109.116 64.3351C106.674 64.0147 101.649 62.5714 100.867 60.5852C100.867 60.5852 101.128 61.8334 102.628 63.12C104.129 64.4061 109.116 65.8557 109.116 65.8557V64.3351Z" fill="#F28F8F"/>
<path d="M109.232 48.4258L107.004 49.784C106.639 49.1428 106.842 48.3191 107.457 47.944C108.073 47.569 108.867 47.7846 109.232 48.4258Z" fill="#2C1B0D"/>
<path d="M118.308 49.94L115.826 49.0732C116.042 48.373 116.772 48.0001 117.457 48.2394C118.143 48.4782 118.524 49.2399 118.308 49.94Z" fill="#2C1B0D"/>
<path d="M111.563 52.903C111.414 52.903 111.294 52.7799 111.294 52.6305C111.294 52.1929 112.16 51.9099 112.937 51.9099C113.714 51.9099 114.215 52.1929 114.215 52.6305C114.215 52.7794 114.095 52.9004 113.946 52.9004C113.797 52.9004 113.676 52.7799 113.676 52.6305C113.651 52.5811 113.403 52.4496 112.936 52.4496C112.47 52.4496 111.857 52.5811 111.832 52.6353C111.833 52.7846 111.712 52.903 111.563 52.903Z" fill="#78695C" fill-opacity="0.5"/>
<path d="M105.27 52.6753C105.26 52.6753 105.25 52.6748 105.24 52.6738L99.2269 52.1262C99.1191 52.0262 98.8345 51.7322 98.2417 51.4866L105.3 52.1378C105.447 52.1541 105.554 52.2877 105.538 52.436C105.522 52.5733 105.405 52.6753 105.27 52.6753Z" fill="#78695C" fill-opacity="0.5"/>
<path d="M80.5849 58.9414C82.5511 56.3146 83.8919 54.3295 85.6866 52.0777C86.7054 50.799 87.3572 49.8864 88.3376 48.5745C89.0125 47.6714 89.408 46.9097 90.156 46.6299C90.9976 46.3148 91.8092 45.692 92.3505 45.1234C92.7371 44.7168 93.0537 44.2503 93.3883 43.7995C94.5118 42.2851 95.8542 40.9333 97.3601 39.7987C98.9428 38.6063 100.701 37.6968 102.325 36.5607C103.294 35.8827 104.333 34.7565 103.153 33.7055C102.802 33.3915 102.354 33.2043 101.894 33.1038C99.0317 32.4784 96.5343 33.4652 93.7349 34.181C92.5183 34.4919 91.3211 34.8817 90.1702 35.3851C89.6116 35.6291 89.0546 35.8948 88.5917 36.2908C87.87 36.9084 87.4382 37.7873 86.9695 38.6126C85.7108 40.8302 83.1034 42.7869 81.2682 44.5133C79.1153 46.5384 77.1912 48.3951 74.7353 50.6296C72.525 52.6405 70.3626 54.4946 68.3354 56.6907C66.6585 58.5075 67.2687 59.9287 67.5075 60.4195C68.874 63.2304 70.4042 64.2383 72.232 65.9793C75.398 68.9954 86.303 77.6712 89.9209 80.5348C90.6951 81.1476 91.3032 81.9424 91.694 82.8492L92.3847 84.4535C96.5085 85.2125 99.26 79.021 95.8447 71.566C95.2908 70.3567 94.4119 69.3273 93.3373 68.5436C89.033 65.4034 80.5849 58.9414 80.5849 58.9414Z" fill="#FFA8A7"/>
<path d="M80.5851 58.9414C80.5851 58.9414 78.7204 61.4341 75.5449 62.4104C75.5449 62.4104 78.1754 63.0816 81.7759 59.8503L80.5851 58.9414Z" fill="#F28F8F"/>
<path d="M134.057 97.2617L134.071 97.2633L133.396 96.682L133.396 96.6905C133.244 96.5684 133.008 96.53 132.703 96.6131L125.399 98.5998C124.722 98.7839 123.987 99.4704 123.758 100.133L118.502 115.297C118.381 115.649 118.429 115.919 118.599 116.072L118.593 116.074L119.289 116.673L119.288 116.664C119.439 116.79 119.678 116.831 119.988 116.747L127.292 114.761C127.969 114.577 128.703 113.89 128.933 113.227C129.965 110.246 133.157 101.043 134.189 98.0623C134.318 97.6883 134.254 97.4074 134.057 97.2617Z" fill="#78695C" fill-opacity="0.5"/>
<path d="M119.178 115.879L124.434 100.715C124.663 100.053 125.398 99.3662 126.075 99.1821L133.379 97.1959C134.056 97.0118 134.418 97.4 134.189 98.0627C133.157 101.043 129.965 110.246 128.933 113.227C128.704 113.89 127.968 114.577 127.292 114.761L119.988 116.747C119.311 116.93 118.949 116.542 119.178 115.879Z" fill="#8B3E00"/>
<path d="M125.281 99.603C124.9 99.9034 124.573 100.317 124.433 100.717L119.176 115.876C119.062 116.217 119.096 116.483 119.249 116.637L118.595 116.076L118.602 116.069C118.429 115.916 118.382 115.649 118.502 115.296L123.76 100.13C123.886 99.7561 124.187 99.3758 124.54 99.0754L125.281 99.603Z" fill="#899094"/>
<path d="M132.05 104.172C131.536 105.717 129.7 106.747 126.684 107.462C123.667 108.177 121.996 111.38 122.483 112.355C122.971 113.329 127.845 114.235 129.795 113.956C131.745 113.678 133.706 110.859 134.296 109.987C134.887 109.115 135.575 103.023 134.948 102.188C134.321 101.352 133.005 101.481 133.005 101.481L132.05 104.172Z" fill="#F28F8F"/>
</svg>
