<svg width="24" height="24" viewBox="0 0 24 24" fill="none" xmlns="http://www.w3.org/2000/svg">
<path opacity="0.988" fill-rule="evenodd" clip-rule="evenodd" d="M3.25781 1.47559C5.211 1.46777 7.16414 1.47559 9.11719 1.49902C10.0469 1.74121 10.6328 2.32715 10.875 3.25684C10.9063 5.20998 10.9063 7.16307 10.875 9.11621C10.6328 10.0459 10.0469 10.6318 9.11719 10.874C7.16405 10.9053 5.21095 10.9053 3.25781 10.874C2.32813 10.6318 1.74219 10.0459 1.5 9.11621C1.46875 7.16307 1.46875 5.20998 1.5 3.25684C1.75073 2.32645 2.33666 1.73271 3.25781 1.47559ZM3.72656 2.97559C5.36728 2.96777 7.00791 2.97559 8.64844 2.99902C9.07814 3.05371 9.3203 3.2959 9.375 3.72559C9.40627 5.36621 9.40627 7.00684 9.375 8.64746C9.3203 9.07716 9.07814 9.31932 8.64844 9.37402C7.00781 9.40529 5.36719 9.40529 3.72656 9.37402C3.29687 9.31932 3.05469 9.07716 3 8.64746C2.96875 7.00684 2.96875 5.36621 3 3.72559C3.06309 3.29539 3.30527 3.04539 3.72656 2.97559Z" fill="#8B3E00"/>
<path opacity="0.968" fill-rule="evenodd" clip-rule="evenodd" d="M17.5079 1.47759C18.0158 1.37237 18.3517 1.55987 18.5157 2.04009C18.5391 3.16498 18.547 4.28998 18.5391 5.41509C19.6642 5.40726 20.7892 5.41509 21.9141 5.43852C22.4493 5.65152 22.6134 6.03435 22.4063 6.58696C22.2815 6.75857 22.1174 6.87576 21.9141 6.93852C20.7892 6.96196 19.6642 6.96979 18.5391 6.96196C18.547 8.08705 18.5391 9.21205 18.5157 10.337C18.3027 10.8721 17.9199 11.0362 17.3673 10.8291C17.1956 10.7043 17.0785 10.5403 17.0157 10.337C16.9923 9.21205 16.9844 8.08705 16.9923 6.96196C15.8672 6.96979 14.7422 6.96196 13.6173 6.93852C13.1295 6.7746 12.9499 6.43865 13.0782 5.93071C13.1618 5.66554 13.3414 5.50148 13.6173 5.43852C14.7422 5.41509 15.8672 5.40726 16.9923 5.41509C16.9844 4.28998 16.9923 3.16498 17.0157 2.04009C17.0837 1.76038 17.2478 1.57288 17.5079 1.47759Z" fill="#8B3E00"/>
<path opacity="0.988" fill-rule="evenodd" clip-rule="evenodd" d="M3.25781 13.0537C5.211 13.0459 7.16414 13.0537 9.11719 13.0772C10.0469 13.3194 10.6328 13.9053 10.875 14.835C10.9063 16.7881 10.9063 18.7412 10.875 20.6943C10.6328 21.624 10.0469 22.21 9.11719 22.4522C7.16405 22.4834 5.21095 22.4834 3.25781 22.4522C2.32813 22.21 1.74219 21.624 1.5 20.6943C1.46875 18.7412 1.46875 16.7881 1.5 14.835C1.75073 13.9046 2.33666 13.3108 3.25781 13.0537ZM3.72656 14.5537C5.36728 14.5459 7.00791 14.5537 8.64844 14.5772C9.07814 14.6319 9.3203 14.874 9.375 15.3037C9.40627 16.9443 9.40627 18.585 9.375 20.2256C9.3203 20.6553 9.07814 20.8975 8.64844 20.9522C7.00781 20.9834 5.36719 20.9834 3.72656 20.9522C3.29687 20.8975 3.05469 20.6553 3 20.2256C2.96875 18.585 2.96875 16.9443 3 15.3037C3.06309 14.8735 3.30527 14.6235 3.72656 14.5537Z" fill="#8B3E00"/>
<path opacity="0.988" fill-rule="evenodd" clip-rule="evenodd" d="M14.8359 13.0537C16.7891 13.0459 18.7423 13.0537 20.6953 13.0772C21.625 13.3194 22.2109 13.9053 22.4531 14.835C22.4844 16.7881 22.4844 18.7412 22.4531 20.6943C22.2109 21.624 21.625 22.21 20.6953 22.4522C18.7422 22.4834 16.7891 22.4834 14.8359 22.4522C13.9063 22.21 13.3203 21.624 13.0781 20.6943C13.0469 18.7412 13.0469 16.7881 13.0781 14.835C13.3289 13.9046 13.9148 13.3108 14.8359 13.0537ZM15.3047 14.5537C16.9454 14.5459 18.586 14.5537 20.2266 14.5772C20.6563 14.6319 20.8984 14.874 20.9531 15.3037C20.9844 16.9443 20.9844 18.585 20.9531 20.2256C20.8984 20.6553 20.6563 20.8975 20.2266 20.9522C18.5859 20.9834 16.9453 20.9834 15.3047 20.9522C14.875 20.8975 14.6328 20.6553 14.5781 20.2256C14.5469 18.585 14.5469 16.9443 14.5781 15.3037C14.6412 14.8735 14.8834 14.6235 15.3047 14.5537Z" fill="#8B3E00"/>
</svg>
