<svg width="18" height="18" viewBox="0 0 18 18" fill="none" xmlns="http://www.w3.org/2000/svg">
<path d="M15.75 3.65625H2.25C2.02622 3.65625 1.81161 3.74514 1.65338 3.90338C1.49514 4.06161 1.40625 4.27622 1.40625 4.5V13.5C1.40625 13.7238 1.49514 13.9384 1.65338 14.0966C1.81161 14.2549 2.02622 14.3438 2.25 14.3438H15.75C15.9738 14.3438 16.1884 14.2549 16.3466 14.0966C16.5049 13.9384 16.5938 13.7238 16.5938 13.5V4.5C16.5938 4.27622 16.5049 4.06161 16.3466 3.90338C16.1884 3.74514 15.9738 3.65625 15.75 3.65625ZM2.25 4.21875H15.75C15.8246 4.21875 15.8961 4.24838 15.9489 4.30113C16.0016 4.35387 16.0312 4.42541 16.0312 4.5V6.46875H1.96875V4.5C1.96875 4.42541 1.99838 4.35387 2.05113 4.30113C2.10387 4.24838 2.17541 4.21875 2.25 4.21875ZM15.75 13.7812H2.25C2.17541 13.7812 2.10387 13.7516 2.05113 13.6989C1.99838 13.6461 1.96875 13.5746 1.96875 13.5V7.03125H16.0312V13.5C16.0312 13.5746 16.0016 13.6461 15.9489 13.6989C15.8961 13.7516 15.8246 13.7812 15.75 13.7812ZM14.3438 11.8125C14.3438 11.8871 14.3141 11.9586 14.2614 12.0114C14.2086 12.0641 14.1371 12.0938 14.0625 12.0938H11.8125C11.7379 12.0938 11.6664 12.0641 11.6136 12.0114C11.5609 11.9586 11.5312 11.8871 11.5312 11.8125C11.5312 11.7379 11.5609 11.6664 11.6136 11.6136C11.6664 11.5609 11.7379 11.5312 11.8125 11.5312H14.0625C14.1371 11.5312 14.2086 11.5609 14.2614 11.6136C14.3141 11.6664 14.3438 11.7379 14.3438 11.8125ZM9.84375 11.8125C9.84375 11.8871 9.81412 11.9586 9.76137 12.0114C9.70863 12.0641 9.63709 12.0938 9.5625 12.0938H8.4375C8.36291 12.0938 8.29137 12.0641 8.23863 12.0114C8.18588 11.9586 8.15625 11.8871 8.15625 11.8125C8.15625 11.7379 8.18588 11.6664 8.23863 11.6136C8.29137 11.5609 8.36291 11.5312 8.4375 11.5312H9.5625C9.63709 11.5312 9.70863 11.5609 9.76137 11.6136C9.81412 11.6664 9.84375 11.7379 9.84375 11.8125Z" fill="black"/>
</svg>
