<svg width="20" height="20" viewBox="0 0 20 20" fill="none" xmlns="http://www.w3.org/2000/svg">
<path d="M18.878 13.4128L14.156 11.2998C13.9729 11.2206 13.773 11.1882 13.5743 11.2057C13.3756 11.2232 13.1844 11.2899 13.018 11.3998C13.0047 11.4082 12.992 11.4176 12.98 11.4278L10.5 13.5418C10.4448 13.5755 10.3821 13.595 10.3176 13.5987C10.253 13.6023 10.1886 13.59 10.13 13.5628C8.50594 12.7788 6.82494 11.1108 6.04094 9.50581C6.0132 9.44761 6.00033 9.38344 6.00347 9.31904C6.00661 9.25465 6.02567 9.19203 6.05893 9.13681L8.17894 6.6158C8.18894 6.6038 8.19794 6.5908 8.20694 6.5778C8.31653 6.4116 8.38305 6.22075 8.40051 6.02243C8.41797 5.82412 8.38581 5.62458 8.30694 5.44179L6.18994 0.727775C6.08773 0.489021 5.91083 0.289866 5.6858 0.160219C5.46076 0.0305716 5.19974 -0.0225706 4.94193 0.00877262C3.6835 0.174693 2.52849 0.793039 1.69265 1.74832C0.856803 2.70359 0.397282 3.93047 0.399914 5.19979C0.399914 12.9198 6.67994 19.1998 14.4 19.1998C15.6693 19.2025 16.8962 18.743 17.8514 17.9071C18.8067 17.0713 19.4251 15.9163 19.591 14.6578C19.6221 14.4012 19.5695 14.1414 19.441 13.917C19.3126 13.6927 19.1151 13.5159 18.878 13.4128ZM18.8 14.5578C18.6588 15.6236 18.1342 16.6014 17.3244 17.3085C16.5146 18.0156 15.475 18.4036 14.4 18.3998C7.12194 18.3998 1.19992 12.4778 1.19992 5.19979C1.19619 4.12473 1.58415 3.08512 2.29125 2.27533C2.99835 1.46553 3.97618 0.940988 5.04193 0.799776C5.05792 0.798782 5.07395 0.798782 5.08993 0.799776C5.16884 0.800448 5.2458 0.824448 5.3111 0.868756C5.3764 0.913063 5.42714 0.975698 5.45693 1.04878L7.56794 5.76279C7.59257 5.82041 7.60332 5.883 7.59933 5.94553C7.59533 6.00807 7.5767 6.06878 7.54494 6.1228L5.42593 8.64281C5.41593 8.6558 5.40593 8.6678 5.39693 8.6818C5.28404 8.85444 5.21755 9.05326 5.20389 9.25908C5.19023 9.4649 5.22985 9.67077 5.31893 9.85681C6.18794 11.6358 7.97994 13.4148 9.77895 14.2838C9.96626 14.3723 10.1733 14.4108 10.3799 14.3956C10.5865 14.3803 10.7857 14.3119 10.958 14.1968L10.995 14.1688L13.478 12.0568C13.5311 12.0244 13.5911 12.005 13.6532 12.0003C13.7153 11.9956 13.7776 12.0057 13.835 12.0298L18.556 14.1458C18.6357 14.179 18.7025 14.237 18.7464 14.3113C18.7904 14.3855 18.8092 14.472 18.8 14.5578Z" fill="black"/>
</svg>
