<svg width="18" height="19" viewBox="0 0 18 19" fill="none" xmlns="http://www.w3.org/2000/svg">
<path d="M5 11H13C14.1935 11 15.3377 11.4744 16.1816 12.3184C17.0256 13.1623 17.5 14.3065 17.5 15.5C17.5 16.163 17.2364 16.7987 16.7676 17.2676C16.2987 17.7364 15.663 18 15 18H3C2.33696 18 1.70126 17.7364 1.23242 17.2676C0.763581 16.7987 0.5 16.163 0.5 15.5C0.5 14.3065 0.974446 13.1623 1.81836 12.3184C2.66227 11.4744 3.80653 11 5 11ZM9 1C9.92826 1 10.8182 1.36901 11.4746 2.02539C12.131 2.68177 12.5 3.57174 12.5 4.5C12.5 5.42826 12.131 6.31823 11.4746 6.97461C10.8182 7.63099 9.92826 8 9 8C8.07174 8 7.18177 7.63099 6.52539 6.97461C5.86901 6.31823 5.5 5.42826 5.5 4.5C5.5 3.57174 5.86901 2.68177 6.52539 2.02539C7.18177 1.36901 8.07174 1 9 1Z" stroke="black"/>
</svg>
