<svg width="24" height="24" viewBox="0 0 24 24" fill="none" xmlns="http://www.w3.org/2000/svg">
<g clip-path="url(#clip0_5012_8988)">
<path opacity="0.95" fill-rule="evenodd" clip-rule="evenodd" d="M11.1797 -0.0234375C11.4922 -0.0234375 11.8047 -0.0234375 12.1172 -0.0234375C13.3272 0.225294 14.1162 0.944044 14.4844 2.13281C15.6094 3.25781 16.7344 4.38281 17.8594 5.50781C18.7003 6.97481 18.4737 8.24827 17.1797 9.32812C17.017 9.42525 16.8451 9.49556 16.6641 9.53906C16.6719 10.258 16.6641 10.9767 16.6406 11.6953C16.5354 12.2575 16.2776 12.7341 15.8672 13.125C15.3164 13.4668 14.7617 13.8028 14.2031 14.1328C14.1719 14.6328 14.1719 15.1328 14.2031 15.6328C14.2578 15.6875 14.3125 15.7422 14.3672 15.7969C15.6943 16.26 17.0068 16.7601 18.3047 17.2969C19.489 18.0161 20.2312 19.0552 20.5312 20.4141C20.597 21.2717 20.6204 22.131 20.6016 22.9922C21.5704 22.9844 22.5392 22.9922 23.5078 23.0156C23.7202 23.0331 23.8765 23.1347 23.9766 23.3203C23.9766 23.4453 23.9766 23.5703 23.9766 23.6953C23.8984 23.8047 23.8047 23.8984 23.6953 23.9766C15.8828 23.9766 8.07033 23.9766 0.257812 23.9766C0.148438 23.8984 0.0546877 23.8047 -0.0234375 23.6953C-0.0234375 23.5547 -0.0234375 23.4141 -0.0234375 23.2734C0.0864492 23.1402 0.227074 23.0543 0.398438 23.0156C1.38269 22.9922 2.36707 22.9844 3.35156 22.9922C3.34375 22.2264 3.35157 21.4608 3.375 20.6953C3.66877 19.0116 4.58283 17.8006 6.11719 17.0625C7.22297 16.647 8.33236 16.2408 9.44531 15.8438C9.56728 15.8024 9.66886 15.732 9.75 15.6328C9.78127 15.1328 9.78127 14.6328 9.75 14.1328C9.21094 13.8125 8.67188 13.4922 8.13281 13.1719C7.69514 12.7732 7.42167 12.2811 7.3125 11.6953C7.29689 11.211 7.28123 10.7265 7.26562 10.2422C6.95311 9.92967 6.64064 9.6172 6.32812 9.30469C5.34773 7.95722 5.16023 6.50409 5.76562 4.94531C5.93353 4.59361 6.13664 4.26549 6.375 3.96094C7.49217 2.84375 8.60939 1.72656 9.72656 0.609375C10.169 0.294211 10.6534 0.0832739 11.1797 -0.0234375ZM11.2266 0.960938C11.5411 0.950953 11.8536 0.966581 12.1641 1.00781C12.249 1.54445 12.1475 2.04445 11.8594 2.50781C11.325 3.01076 10.825 3.54201 10.3594 4.10156C10.3377 4.71998 10.6111 4.89966 11.1797 4.64062C11.6733 4.16269 12.1499 3.6705 12.6094 3.16406C12.9259 2.71471 13.1134 2.21471 13.1719 1.66406C13.74 2.54095 13.6775 3.36908 12.9844 4.14844C11.25 5.88281 9.51562 7.61719 7.78125 9.35156C6.52992 8.33203 6.13931 7.05075 6.60938 5.50781C6.74573 5.18794 6.91762 4.89103 7.125 4.61719C8.24348 3.48304 9.37631 2.36586 10.5234 1.26562C10.7567 1.14924 10.9911 1.04768 11.2266 0.960938ZM14.4141 3.53906C15.3163 4.37092 16.1992 5.23031 17.0625 6.11719C17.6119 7.11056 17.4165 7.93087 16.4766 8.57812C16.1945 8.68936 15.9288 8.65809 15.6797 8.48438C14.7422 7.54688 13.8047 6.60938 12.8672 5.67188C13.2515 5.3033 13.6186 4.92047 13.9688 4.52344C14.194 4.22931 14.3424 3.90118 14.4141 3.53906ZM12.1172 6.39844C13.121 7.33186 14.1054 8.2928 15.0703 9.28125C15.256 9.40144 15.4514 9.50302 15.6562 9.58594C15.6641 9.90623 15.6719 10.2266 15.6797 10.5469C15.8226 11.3053 15.6195 11.9459 15.0703 12.4688C14.148 13.0238 13.2105 13.555 12.2578 14.0625C12.0703 14.0938 11.8828 14.0938 11.6953 14.0625C10.68 13.5081 9.67997 12.93 8.69531 12.3281C8.34047 11.8864 8.18423 11.3786 8.22656 10.8047C8.23439 10.6328 8.24217 10.461 8.25 10.2891C9.54853 8.99836 10.8376 7.70152 12.1172 6.39844ZM10.7578 14.6953C11.5634 15.2508 12.3681 15.2508 13.1719 14.6953C13.1774 15.12 13.2087 15.5419 13.2656 15.9609C13.3789 16.2144 13.5429 16.4253 13.7578 16.5938C14.9246 17.0443 16.0965 17.4818 17.2734 17.9062C18.5538 18.4591 19.3272 19.42 19.5938 20.7891C19.6172 21.5233 19.625 22.2577 19.6172 22.9922C18.9765 22.9922 18.336 22.9922 17.6953 22.9922C17.7031 22.1639 17.6953 21.3358 17.6719 20.5078C17.4955 19.8472 17.0815 19.4175 16.4297 19.2188C15.9316 19.1677 15.4316 19.1443 14.9297 19.1484C14.4733 19.1424 14.0201 19.1659 13.5703 19.2188C13.3489 19.3713 13.2786 19.5822 13.3594 19.8516C13.418 19.9866 13.5195 20.0725 13.6641 20.1094C14.4922 20.125 15.3203 20.1406 16.1484 20.1562C16.402 20.238 16.5818 20.402 16.6875 20.6484C16.7109 21.4295 16.7188 22.2108 16.7109 22.9922C13.539 22.9922 10.3672 22.9922 7.19531 22.9922C7.18748 22.2889 7.19531 21.5858 7.21875 20.8828C7.25897 20.5146 7.4543 20.2724 7.80469 20.1562C8.63283 20.1406 9.46092 20.125 10.2891 20.1094C10.5589 19.9837 10.6605 19.7727 10.5938 19.4766C10.5412 19.377 10.4708 19.2911 10.3828 19.2188C9.933 19.1659 9.47986 19.1424 9.02344 19.1484C8.5215 19.1443 8.02153 19.1677 7.52344 19.2188C6.86995 19.4191 6.45591 19.8487 6.28125 20.5078C6.25781 21.3358 6.24998 22.1639 6.25781 22.9922C5.60156 22.9922 4.94531 22.9922 4.28906 22.9922C4.27637 22.2565 4.29981 21.5222 4.35938 20.7891C4.62623 19.4189 5.39967 18.458 6.67969 17.9062C7.87973 17.4803 9.06722 17.0272 10.2422 16.5469C10.4431 16.3927 10.5915 16.1973 10.6875 15.9609C10.7522 15.5422 10.7757 15.1204 10.7578 14.6953Z" fill="#8B3E00"/>
<path opacity="0.889" fill-rule="evenodd" clip-rule="evenodd" d="M9.53906 4.94531C10.0305 4.97583 10.2102 5.22581 10.0781 5.69531C9.85598 5.95697 9.59817 5.99602 9.30469 5.8125C9.06304 5.43014 9.14114 5.14106 9.53906 4.94531Z" fill="#8B3E00"/>
<path opacity="0.938" fill-rule="evenodd" clip-rule="evenodd" d="M4.42968 8.64844C4.9536 8.69667 5.11766 8.96231 4.92187 9.44531C4.73854 9.67134 4.56667 9.90572 4.40624 10.1484C4.30122 10.4372 4.31685 10.7185 4.45312 10.9922C4.72199 11.2956 4.95637 11.6237 5.15624 11.9766C5.45395 12.7485 5.35237 13.4595 4.85156 14.1094C4.28651 14.3259 4.02869 14.1306 4.07812 13.5234C4.31031 13.2329 4.38844 12.9048 4.31249 12.5391C4.03124 12.1016 3.74999 11.664 3.46874 11.2266C3.28152 10.6441 3.3284 10.0816 3.60937 9.53906C3.81539 9.16941 4.08883 8.87255 4.42968 8.64844Z" fill="#8B3E00"/>
<path opacity="0.936" fill-rule="evenodd" clip-rule="evenodd" d="M23.9766 12.3985C23.9766 12.6798 23.9766 12.961 23.9766 13.2423C23.8895 13.5646 23.7332 13.8536 23.5078 14.1094C22.9576 14.3097 22.6998 14.1144 22.7344 13.5235C22.9735 13.2353 23.0516 12.9072 22.9688 12.5391C22.6881 12.1032 22.4068 11.6657 22.125 11.2266C21.958 10.7207 21.9737 10.2207 22.1719 9.72663C22.3403 9.40535 22.5434 9.10849 22.7813 8.83601C23.2245 8.53052 23.5292 8.6321 23.6953 9.14069C23.5577 9.48166 23.3623 9.78635 23.1094 10.0548C22.9532 10.3673 22.9532 10.6797 23.1094 10.9923C23.3125 11.2579 23.5157 11.5235 23.7188 11.7891C23.8289 11.9879 23.9148 12.1911 23.9766 12.3985Z" fill="#8B3E00"/>
<path opacity="0.938" fill-rule="evenodd" clip-rule="evenodd" d="M-0.0234375 12.8194C-0.0234375 12.5382 -0.0234375 12.2569 -0.0234375 11.9757C0.147616 11.4394 0.444491 10.9784 0.867188 10.5929C1.40324 10.4259 1.64542 10.6212 1.59375 11.1788C1.41778 11.4527 1.23028 11.7183 1.03125 11.9757C0.961294 12.2059 0.94567 12.4403 0.984375 12.6788C1.289 13.1004 1.57025 13.5379 1.82812 13.9913C2.05239 14.665 1.95864 15.2901 1.54688 15.8663C1.25193 16.1264 0.970678 16.1108 0.703125 15.8194C0.679688 15.7491 0.65625 15.6788 0.632812 15.6085C0.712083 15.3572 0.813647 15.115 0.9375 14.8819C0.989269 14.6135 0.942394 14.3635 0.796875 14.1319C0.432679 13.7457 0.159242 13.3082 -0.0234375 12.8194Z" fill="#8B3E00"/>
<path opacity="0.936" fill-rule="evenodd" clip-rule="evenodd" d="M19.6173 10.522C20.1089 10.4745 20.3199 10.6933 20.2501 11.1782C20.1169 11.4135 19.9606 11.6323 19.7814 11.8345C19.5819 12.1693 19.5663 12.513 19.7345 12.8657C19.9714 13.1494 20.1901 13.4463 20.3907 13.7564C20.7516 14.5667 20.65 15.3089 20.0861 15.9829C19.6949 16.1466 19.4293 16.0295 19.2892 15.6314C19.3571 15.368 19.4587 15.118 19.5939 14.8814C19.6456 14.6129 19.5987 14.3629 19.4532 14.1314C18.312 12.8684 18.3667 11.6653 19.6173 10.522Z" fill="#8B3E00"/>
<path opacity="0.922" fill-rule="evenodd" clip-rule="evenodd" d="M11.2736 11.4141C11.518 11.4123 11.7524 11.4592 11.9767 11.5547C12.0952 11.5424 12.2045 11.5034 12.3048 11.4376C12.8447 11.3678 13.0556 11.5944 12.9376 12.1172C12.7864 12.3378 12.5755 12.4706 12.3048 12.5157C11.8789 12.5983 11.4883 12.5202 11.1329 12.2813C10.853 11.9373 10.8999 11.6483 11.2736 11.4141Z" fill="#8B3E00"/>
<path opacity="0.883" fill-rule="evenodd" clip-rule="evenodd" d="M11.9296 19.1484C12.4929 19.1969 12.657 19.4782 12.4218 19.9922C12.046 20.2358 11.7648 20.1577 11.578 19.7578C11.5282 19.4565 11.6454 19.2534 11.9296 19.1484Z" fill="#8B3E00"/>
</g>
<defs>
<clipPath id="clip0_5012_8988">
<rect width="24" height="24" fill="white"/>
</clipPath>
</defs>
</svg>
