<svg width="165" height="115" viewBox="0 0 165 115" fill="none" xmlns="http://www.w3.org/2000/svg">
<circle cx="71" cy="50" r="50" fill="#8B3E00"/>
<g clip-path="url(#clip0_3299_4577)">
<path d="M76.1562 25.205C75.4824 25.5566 75.3945 25.8886 75.3945 27.9785C75.3945 29.5996 75.4141 29.8339 75.5898 30.1757C75.8145 30.6152 76.3711 30.957 76.8594 30.957C77.3477 30.957 77.9043 30.6152 78.1289 30.1757C78.3047 29.8339 78.3242 29.5996 78.3242 27.9785C78.3242 26.3574 78.3047 26.123 78.1289 25.7812C77.7676 25.0683 76.8887 24.8144 76.1562 25.205Z" fill="white"/>
<path d="M66.7617 29.1894C66.3223 29.4824 66.1172 29.873 66.1172 30.4297C66.1172 31.0644 66.3125 31.3379 67.748 32.7343C68.5195 33.4765 68.9297 33.8086 69.2031 33.8867C70.3457 34.2285 71.4102 33.0664 70.9512 31.9824C70.7949 31.5918 69.0762 29.7656 68.4219 29.2871C67.9531 28.9355 67.2109 28.8965 66.7617 29.1894Z" fill="white"/>
<path d="M85.2969 29.2871C85.0918 29.4336 84.4473 30.0488 83.8711 30.6347C83.1289 31.4062 82.7969 31.8164 82.7188 32.0898C82.377 33.2324 83.5391 34.2969 84.6231 33.8379C85.0137 33.6816 86.8399 31.9629 87.3184 31.3086C87.8262 30.6152 87.6602 29.6582 86.9571 29.1894C86.5078 28.8965 85.7657 28.9355 85.2969 29.2871Z" fill="white"/>
<path d="M73.3926 34.0234C72.9922 34.1992 72.5918 34.6875 72.4746 35.1367C72.4258 35.332 72.1523 36.3769 71.8887 37.4414C70.9707 41.0449 69.4766 43.8281 67.2988 46.0058C66.0391 47.2656 64.584 48.2031 63.627 48.3886C63.3535 48.4472 63.3145 48.4179 63.0508 47.9003C62.7285 47.2851 61.957 46.5331 61.2734 46.2011C60.3164 45.7226 60.1309 45.7031 55.0039 45.7031C50.375 45.7031 50.1797 45.7128 49.8086 45.8984C49.5547 46.0253 49.3496 46.2304 49.2227 46.4843C49.0273 46.8652 49.0273 47.0312 49.0273 60.3515C49.0273 73.6718 49.0273 73.8378 49.2227 74.2186C49.3496 74.4725 49.5547 74.6776 49.8086 74.8046C50.1797 74.9901 50.375 74.9999 55.0039 74.9999C58.7148 74.9999 59.9258 74.9706 60.3066 74.8632C61.3809 74.58 62.3477 73.8964 62.9043 73.0468C63.0801 72.7733 63.2656 72.5585 63.3145 72.5585C63.373 72.5585 64.6816 72.9784 66.2246 73.4862C70.9512 75.0487 70.5117 74.9999 79.1641 74.9999C83.3535 74.9999 86.1172 74.9608 86.4395 74.9022C88.2559 74.5604 89.6621 73.1054 89.9648 71.2499C90.0625 70.6444 90.0039 69.8827 89.7988 69.1894C89.75 69.0233 89.8379 68.955 90.3652 68.7206C92.8359 67.6464 93.7051 64.5702 92.1816 62.2655L91.8789 61.8163L92.1816 61.3671C92.7285 60.5468 92.9043 59.9218 92.9043 58.8866C92.9043 57.8515 92.7285 57.2265 92.1816 56.4062L91.8789 55.957L92.1816 55.5077C93.9297 52.8515 92.4648 49.3163 89.3691 48.7304C89.0566 48.6718 87.0352 48.6327 84.4668 48.6327C82.0547 48.6327 80.082 48.6132 80.082 48.5937C80.082 48.5644 80.1895 48.1347 80.3262 47.6367C81.1074 44.7167 81.4883 40.3222 81.1074 38.5253C80.6484 36.3281 78.8125 34.4921 76.6152 34.0332C75.7461 33.8476 73.793 33.8476 73.3926 34.0234ZM76.5957 37.0898C77.1523 37.3437 77.7969 37.9785 78.0703 38.5644C78.2559 38.9746 78.2754 39.1601 78.2656 40.9179C78.2559 42.9296 78.1094 44.1992 77.6797 46.0937C77.416 47.2753 77.3184 47.6171 77.0938 48.2031L76.9277 48.6327H75.2773C73.8223 48.6327 73.5879 48.6523 73.2461 48.8281C72.8066 49.0527 72.4648 49.6093 72.4648 50.0976C72.4648 50.5859 72.8066 51.1425 73.2461 51.3671C73.6172 51.5624 73.8027 51.5624 81.2539 51.5624C88.7051 51.5624 88.8906 51.5624 89.2617 51.7577C89.7012 51.9823 90.043 52.539 90.043 53.0273C90.043 53.5155 89.7012 54.0722 89.2617 54.2968C88.9199 54.4726 88.6855 54.4921 87.1133 54.4921C85.0625 54.4921 84.7305 54.5898 84.3789 55.2734C84.1348 55.7616 84.1348 56.1523 84.3789 56.6405C84.7305 57.3241 85.0625 57.4218 87.1133 57.4218C89.1641 57.4218 89.4961 57.5194 89.8477 58.203C90.0918 58.6913 90.0918 59.0819 89.8477 59.5702C89.4961 60.2538 89.1641 60.3515 87.1133 60.3515C85.541 60.3515 85.3066 60.371 84.9648 60.5468C84.5254 60.7714 84.1836 61.328 84.1836 61.8163C84.1836 62.3046 84.5254 62.8612 84.9648 63.0858C85.3066 63.2616 85.541 63.2812 87.1133 63.2812C89.1641 63.2812 89.4961 63.3788 89.8477 64.0624C90.0918 64.5507 90.0918 64.9413 89.8477 65.4296C89.4961 66.1132 89.1641 66.2108 87.1133 66.2108C85.541 66.2108 85.3066 66.2304 84.9648 66.4062C84.5254 66.6308 84.1836 67.1874 84.1836 67.6757C84.1836 68.4179 84.9062 69.1405 85.6484 69.1405C86.3906 69.1405 87.1133 69.8632 87.1133 70.6054C87.1133 71.0936 86.7715 71.6503 86.3223 71.8749C85.9414 72.08 85.834 72.08 78.832 72.0507C72.4648 72.0214 71.6445 71.9921 70.8926 71.8358C70.4336 71.7479 68.6367 71.1913 66.8887 70.6151L63.7246 69.5702L63.6953 60.4882L63.6758 51.4062L64.3496 51.2402C65.8633 50.8495 67.4941 49.8534 68.9785 48.4374C70.707 46.787 71.9375 45.0878 73.0508 42.8222C73.8223 41.2499 74.1934 40.2343 74.6719 38.3788C74.8574 37.6562 75.0332 37.0019 75.0625 36.9238C75.1211 36.7382 76.0195 36.8359 76.5957 37.0898ZM59.9648 48.8281C60.2188 48.955 60.4238 49.1601 60.5508 49.414C60.7461 49.7948 60.7461 49.9706 60.7461 60.3515C60.7461 70.7323 60.7461 70.9081 60.5508 71.289C60.4238 71.5429 60.2188 71.7479 59.9648 71.8749C59.6035 72.0604 59.3984 72.0702 55.7656 72.0702H51.957V60.3515V48.6327H55.7656C59.3984 48.6327 59.6035 48.6425 59.9648 48.8281Z" fill="white"/>
<path d="M55.6484 66.416C55.2285 66.6308 54.8867 67.207 54.8867 67.6757C54.8867 68.4179 55.6094 69.1406 56.3516 69.1406C57.0938 69.1406 57.8164 68.4179 57.8164 67.6757C57.8164 67.1874 57.4746 66.6308 57.0352 66.4062C56.5566 66.1621 56.1172 66.1621 55.6484 66.416Z" fill="white"/>
</g>
<circle cx="159" cy="19" r="6" fill="#FF7701" fill-opacity="0.5"/>
<circle cx="7.5" cy="20.5" r="7.5" fill="#8B3E00"/>
<circle cx="132" cy="73" r="4" fill="#8B3E00" fill-opacity="0.8"/>
<circle cx="62.5" cy="112.5" r="2.5" fill="#8B3E00"/>
<circle cx="13.5" cy="79.5" r="4.5" fill="#8B3E00"/>
<defs>
<clipPath id="clip0_3299_4577">
<rect width="50" height="49.9999" fill="white" transform="translate(46 25)"/>
</clipPath>
</defs>
</svg>
